# Blender v2.80 (sub 75) OBJ File: 'comma.blend'
# www.blender.org
mtllib acute.mtl
o Text
v -0.028500 0.607000 -0.050000
v 0.083500 0.754000 -0.050000
v -0.016500 0.754000 -0.050000
v -0.083500 0.607000 -0.050000
v -0.028500 0.607000 0.050000
v 0.083500 0.754000 0.050000
v -0.016500 0.754000 0.050000
v -0.083500 0.607000 0.050000
v -0.028500 0.607000 0.050000
v -0.028500 0.607000 -0.050000
v 0.083500 0.754000 0.050000
v 0.083500 0.754000 -0.050000
v -0.016500 0.754000 0.050000
v -0.016500 0.754000 -0.050000
v -0.083500 0.607000 0.050000
v -0.083500 0.607000 -0.050000
vn 0.0000 -0.0000 -1.0000
vn 0.0000 0.0000 1.0000
vn 0.4438 -0.8961 0.0000
vn 0.8961 0.4438 0.0000
vn -0.5409 0.8410 0.0000
vn -0.8410 -0.5409 0.0000
usemtl None
s off
f 1//1 3//1 2//1
f 1//1 4//1 3//1
f 7//2 5//2 6//2
f 8//2 5//2 7//2
s 1
f 10//3 12//4 11//4 9//3
f 12//4 14//5 13//5 11//4
f 14//5 16//6 15//6 13//5
f 16//6 10//3 9//3 15//6
