# Blender v2.80 (sub 75) OBJ File: 'comma.blend'
# www.blender.org
mtllib backslash.mtl
o Text_Text.014
v -0.101825 0.091052 -0.050000
v -0.050286 0.091052 -0.050000
v 0.101825 0.633644 -0.050000
v 0.049928 0.633644 -0.050000
v -0.101825 0.091052 0.050000
v -0.050286 0.091052 0.050000
v 0.101825 0.633644 0.050000
v 0.049928 0.633644 0.050000
v -0.101825 0.091052 0.050000
v -0.101825 0.091052 -0.050000
v -0.050286 0.091052 0.050000
v -0.050286 0.091052 -0.050000
v 0.101825 0.633644 0.050000
v 0.101825 0.633644 -0.050000
v 0.049928 0.633644 0.050000
v 0.049928 0.633644 -0.050000
vn 0.0000 -0.0000 -1.0000
vn 0.0000 0.0000 1.0000
vn -0.7967 -0.6044 0.0000
vn 0.6042 -0.7968 0.0000
vn 0.7968 0.6042 0.0000
vn -0.6044 0.7967 0.0000
usemtl None
s 1
f 2//1 4//1 3//1
f 2//1 1//1 4//1
f 8//2 6//2 7//2
f 5//2 6//2 8//2
f 10//3 12//4 11//4 9//3
f 12//4 14//5 13//5 11//4
f 14//5 16//6 15//6 13//5
f 16//6 10//3 9//3 15//6
