# Blender v2.80 (sub 75) OBJ File: 'comma.blend'
# www.blender.org
mtllib bracketleft.mtl
o Text_Text.018
v -0.071045 -0.045669 -0.050000
v 0.071045 -0.045669 -0.050000
v 0.071045 0.624696 -0.050000
v -0.071045 0.624696 -0.050000
v -0.071045 0.571367 -0.050000
v 0.006621 0.571367 -0.050000
v 0.006621 0.007659 -0.050000
v -0.071045 0.007659 -0.050000
v -0.071045 -0.045669 0.050000
v 0.071045 -0.045669 0.050000
v 0.071045 0.624696 0.050000
v -0.071045 0.624696 0.050000
v -0.071045 0.571367 0.050000
v 0.006621 0.571367 0.050000
v 0.006621 0.007659 0.050000
v -0.071045 0.007659 0.050000
v -0.071045 -0.045669 0.050000
v -0.071045 -0.045669 -0.050000
v 0.071045 -0.045669 0.050000
v 0.071045 -0.045669 -0.050000
v 0.071045 0.624696 0.050000
v 0.071045 0.624696 -0.050000
v -0.071045 0.624696 0.050000
v -0.071045 0.624696 -0.050000
v -0.071045 0.571367 0.050000
v -0.071045 0.571367 -0.050000
v 0.006621 0.571367 0.050000
v 0.006621 0.571367 -0.050000
v 0.006621 0.007659 0.050000
v 0.006621 0.007659 -0.050000
v -0.071045 0.007659 0.050000
v -0.071045 0.007659 -0.050000
vn -0.0000 -0.0000 -1.0000
vn 0.0000 0.0000 1.0000
vn -0.7071 -0.7071 0.0000
vn 0.7071 -0.7071 0.0000
vn 0.7071 0.7071 0.0000
vn -0.7071 0.7071 0.0000
usemtl None
s 1
f 2//1 6//1 3//1
f 6//1 4//1 3//1
f 6//1 5//1 4//1
f 2//1 7//1 6//1
f 2//1 8//1 7//1
f 2//1 1//1 8//1
f 14//2 10//2 11//2
f 12//2 14//2 11//2
f 13//2 14//2 12//2
f 15//2 10//2 14//2
f 16//2 10//2 15//2
f 9//2 10//2 16//2
f 18//3 20//4 19//4 17//3
f 20//4 22//5 21//5 19//4
f 22//5 24//6 23//6 21//5
f 24//6 26//3 25//3 23//6
f 26//3 28//3 27//3 25//3
f 28//3 30//6 29//6 27//3
f 30//6 32//6 31//6 29//6
f 32//6 18//3 17//3 31//6
