# Blender v2.80 (sub 75) OBJ File: 'comma.blend'
# www.blender.org
mtllib bracketright.mtl
o Text_Text.019
v -0.071045 0.624696 -0.050000
v -0.071045 -0.045669 -0.050000
v 0.071045 -0.045669 -0.050000
v 0.071045 0.007659 -0.050000
v -0.006621 0.007659 -0.050000
v -0.006621 0.571367 -0.050000
v 0.071045 0.571367 -0.050000
v 0.071045 0.624696 -0.050000
v -0.071045 0.624696 0.050000
v -0.071045 -0.045669 0.050000
v 0.071045 -0.045669 0.050000
v 0.071045 0.007659 0.050000
v -0.006621 0.007659 0.050000
v -0.006621 0.571367 0.050000
v 0.071045 0.571367 0.050000
v 0.071045 0.624696 0.050000
v -0.071045 0.624696 0.050000
v -0.071045 0.624696 -0.050000
v -0.071045 -0.045669 0.050000
v -0.071045 -0.045669 -0.050000
v 0.071045 -0.045669 0.050000
v 0.071045 -0.045669 -0.050000
v 0.071045 0.007659 0.050000
v 0.071045 0.007659 -0.050000
v -0.006621 0.007659 0.050000
v -0.006621 0.007659 -0.050000
v -0.006621 0.571367 0.050000
v -0.006621 0.571367 -0.050000
v 0.071045 0.571367 0.050000
v 0.071045 0.571367 -0.050000
v 0.071045 0.624696 0.050000
v 0.071045 0.624696 -0.050000
vn 0.0000 0.0000 -1.0000
vn -0.0000 0.0000 1.0000
vn -0.7071 0.7071 0.0000
vn -0.7071 -0.7071 0.0000
vn 0.7071 -0.7071 0.0000
vn 0.7071 0.7071 -0.0000
usemtl None
s 1
f 7//1 1//1 8//1
f 7//1 6//1 1//1
f 6//1 2//1 1//1
f 5//1 2//1 6//1
f 3//1 5//1 4//1
f 3//1 2//1 5//1
f 9//2 15//2 16//2
f 14//2 15//2 9//2
f 10//2 14//2 9//2
f 10//2 13//2 14//2
f 13//2 11//2 12//2
f 10//2 11//2 13//2
f 18//3 20//4 19//4 17//3
f 20//4 22//5 21//5 19//4
f 22//5 24//6 23//6 21//5
f 24//6 26//6 25//6 23//6
f 26//6 28//5 27//5 25//6
f 28//5 30//5 29//5 27//5
f 30//5 32//6 31//6 29//5
f 32//6 18//3 17//3 31//6
