# Blender v2.80 (sub 75) OBJ File: 'comma.blend'
# www.blender.org
mtllib circumflex.mtl
o Text_Text.072
v 0.000537 0.560630 -0.050000
v 0.086435 0.346958 -0.050000
v 0.152649 0.346958 -0.050000
v 0.026306 0.633644 -0.050000
v -0.025591 0.633644 -0.050000
v -0.152649 0.346958 -0.050000
v -0.087867 0.346958 -0.050000
v 0.000537 0.560630 0.050000
v 0.086435 0.346958 0.050000
v 0.152649 0.346958 0.050000
v 0.026306 0.633644 0.050000
v -0.025591 0.633644 0.050000
v -0.152649 0.346958 0.050000
v -0.087867 0.346958 0.050000
v 0.000537 0.560630 0.050000
v 0.000537 0.560630 -0.050000
v 0.086435 0.346958 0.050000
v 0.086435 0.346958 -0.050000
v 0.152649 0.346958 0.050000
v 0.152649 0.346958 -0.050000
v 0.026306 0.633644 0.050000
v 0.026306 0.633644 -0.050000
v -0.025591 0.633644 0.050000
v -0.025591 0.633644 -0.050000
v -0.152649 0.346958 0.050000
v -0.152649 0.346958 -0.050000
v -0.087867 0.346958 0.050000
v -0.087867 0.346958 -0.050000
vn 0.0000 -0.0000 -1.0000
vn 0.0000 0.0000 1.0000
vn -0.0050 -1.0000 0.0000
vn -0.5599 -0.8286 0.0000
vn 0.8376 -0.5462 0.0000
vn 0.5462 0.8376 0.0000
vn -0.5454 0.8382 0.0000
vn -0.8382 -0.5454 0.0000
vn 0.5557 -0.8314 0.0000
usemtl None
s 1
f 3//1 5//1 4//1
f 3//1 1//1 5//1
f 1//1 6//1 5//1
f 3//1 2//1 1//1
f 7//1 6//1 1//1
f 12//2 10//2 11//2
f 8//2 10//2 12//2
f 13//2 8//2 12//2
f 9//2 10//2 8//2
f 13//2 14//2 8//2
f 16//3 18//4 17//4 15//3
f 18//4 20//5 19//5 17//4
f 20//5 22//6 21//6 19//5
f 22//6 24//7 23//7 21//6
f 24//7 26//8 25//8 23//7
f 26//8 28//9 27//9 25//8
f 28//9 16//3 15//3 27//9
