# Blender v2.80 (sub 75) OBJ File: 'comma.blend'
# www.blender.org
mtllib comma.mtl
o Text_Text.074
v -0.001969 0.100000 -0.050000
v 0.034538 0.100000 -0.050000
v 0.034538 0.173372 -0.050000
v -0.038833 0.173372 -0.050000
v -0.038833 0.100000 -0.050000
v -0.038734 0.093368 -0.050000
v -0.038436 0.086951 -0.050000
v -0.037938 0.080751 -0.050000
v -0.037243 0.074767 -0.050000
v -0.036348 0.069000 -0.050000
v -0.035254 0.063449 -0.050000
v -0.033962 0.058113 -0.050000
v -0.032470 0.052995 -0.050000
v -0.030780 0.048092 -0.050000
v -0.028891 0.043406 -0.050000
v -0.026803 0.038935 -0.050000
v -0.024517 0.034682 -0.050000
v -0.022014 0.030614 -0.050000
v -0.019277 0.026703 -0.050000
v -0.016307 0.022949 -0.050000
v -0.013103 0.019351 -0.050000
v -0.009666 0.015910 -0.050000
v -0.005995 0.012625 -0.050000
v -0.002090 0.009497 -0.050000
v 0.002048 0.006526 -0.050000
v 0.006420 0.003711 -0.050000
v 0.011026 0.001053 -0.050000
v 0.015865 -0.001449 -0.050000
v 0.020938 -0.003794 -0.050000
v 0.038833 0.023765 -0.050000
v 0.035508 0.025315 -0.050000
v 0.032331 0.026982 -0.050000
v 0.029304 0.028765 -0.050000
v 0.026426 0.030665 -0.050000
v 0.023697 0.032682 -0.050000
v 0.021117 0.034816 -0.050000
v 0.018686 0.037066 -0.050000
v 0.016404 0.039434 -0.050000
v 0.014272 0.041918 -0.050000
v 0.012288 0.044519 -0.050000
v 0.010454 0.047237 -0.050000
v 0.008769 0.050072 -0.050000
v 0.007218 0.053070 -0.050000
v 0.005786 0.056280 -0.050000
v 0.004474 0.059702 -0.050000
v 0.003281 0.063334 -0.050000
v 0.002207 0.067178 -0.050000
v 0.001253 0.071233 -0.050000
v 0.000418 0.075499 -0.050000
v -0.000298 0.079977 -0.050000
v -0.000895 0.084666 -0.050000
v -0.001372 0.089566 -0.050000
v -0.001730 0.094677 -0.050000
v -0.001969 0.100000 0.050000
v 0.034538 0.100000 0.050000
v 0.034538 0.173372 0.050000
v -0.038833 0.173372 0.050000
v -0.038833 0.100000 0.050000
v -0.038734 0.093368 0.050000
v -0.038436 0.086951 0.050000
v -0.037938 0.080751 0.050000
v -0.037243 0.074767 0.050000
v -0.036348 0.069000 0.050000
v -0.035254 0.063449 0.050000
v -0.033962 0.058113 0.050000
v -0.032470 0.052995 0.050000
v -0.030780 0.048092 0.050000
v -0.028891 0.043406 0.050000
v -0.026803 0.038935 0.050000
v -0.024517 0.034682 0.050000
v -0.022014 0.030614 0.050000
v -0.019277 0.026703 0.050000
v -0.016307 0.022949 0.050000
v -0.013103 0.019351 0.050000
v -0.009666 0.015910 0.050000
v -0.005995 0.012625 0.050000
v -0.002090 0.009497 0.050000
v 0.002048 0.006526 0.050000
v 0.006420 0.003711 0.050000
v 0.011026 0.001053 0.050000
v 0.015865 -0.001449 0.050000
v 0.020938 -0.003794 0.050000
v 0.038833 0.023765 0.050000
v 0.035508 0.025315 0.050000
v 0.032331 0.026982 0.050000
v 0.029304 0.028765 0.050000
v 0.026426 0.030665 0.050000
v 0.023697 0.032682 0.050000
v 0.021117 0.034816 0.050000
v 0.018686 0.037066 0.050000
v 0.016404 0.039434 0.050000
v 0.014272 0.041918 0.050000
v 0.012288 0.044519 0.050000
v 0.010454 0.047237 0.050000
v 0.008769 0.050072 0.050000
v 0.007218 0.053070 0.050000
v 0.005786 0.056280 0.050000
v 0.004474 0.059702 0.050000
v 0.003281 0.063334 0.050000
v 0.002207 0.067178 0.050000
v 0.001253 0.071233 0.050000
v 0.000418 0.075499 0.050000
v -0.000298 0.079977 0.050000
v -0.000895 0.084666 0.050000
v -0.001372 0.089566 0.050000
v -0.001730 0.094677 0.050000
v -0.001969 0.100000 0.050000
v -0.001969 0.100000 -0.050000
v 0.034538 0.100000 0.050000
v 0.034538 0.100000 -0.050000
v 0.034538 0.173372 0.050000
v 0.034538 0.173372 -0.050000
v -0.038833 0.173372 0.050000
v -0.038833 0.173372 -0.050000
v -0.038833 0.100000 0.050000
v -0.038833 0.100000 -0.050000
v -0.038734 0.093368 0.050000
v -0.038734 0.093368 -0.050000
v -0.038436 0.086951 0.050000
v -0.038436 0.086951 -0.050000
v -0.037938 0.080751 0.050000
v -0.037938 0.080751 -0.050000
v -0.037243 0.074767 0.050000
v -0.037243 0.074767 -0.050000
v -0.036348 0.069000 0.050000
v -0.036348 0.069000 -0.050000
v -0.035254 0.063449 0.050000
v -0.035254 0.063449 -0.050000
v -0.033962 0.058113 0.050000
v -0.033962 0.058113 -0.050000
v -0.032470 0.052995 0.050000
v -0.032470 0.052995 -0.050000
v -0.030780 0.048092 0.050000
v -0.030780 0.048092 -0.050000
v -0.028891 0.043406 0.050000
v -0.028891 0.043406 -0.050000
v -0.026803 0.038935 0.050000
v -0.026803 0.038935 -0.050000
v -0.024517 0.034682 0.050000
v -0.024517 0.034682 -0.050000
v -0.022014 0.030614 0.050000
v -0.022014 0.030614 -0.050000
v -0.019277 0.026703 0.050000
v -0.019277 0.026703 -0.050000
v -0.016307 0.022949 0.050000
v -0.016307 0.022949 -0.050000
v -0.013103 0.019351 0.050000
v -0.013103 0.019351 -0.050000
v -0.009666 0.015910 0.050000
v -0.009666 0.015910 -0.050000
v -0.005995 0.012625 0.050000
v -0.005995 0.012625 -0.050000
v -0.002090 0.009497 0.050000
v -0.002090 0.009497 -0.050000
v 0.002048 0.006526 0.050000
v 0.002048 0.006526 -0.050000
v 0.006420 0.003711 0.050000
v 0.006420 0.003711 -0.050000
v 0.011026 0.001053 0.050000
v 0.011026 0.001053 -0.050000
v 0.015865 -0.001449 0.050000
v 0.015865 -0.001449 -0.050000
v 0.020938 -0.003794 0.050000
v 0.020938 -0.003794 -0.050000
v 0.038833 0.023765 0.050000
v 0.038833 0.023765 -0.050000
v 0.035508 0.025315 0.050000
v 0.035508 0.025315 -0.050000
v 0.032331 0.026982 0.050000
v 0.032331 0.026982 -0.050000
v 0.029304 0.028765 0.050000
v 0.029304 0.028765 -0.050000
v 0.026426 0.030665 0.050000
v 0.026426 0.030665 -0.050000
v 0.023697 0.032682 0.050000
v 0.023697 0.032682 -0.050000
v 0.021117 0.034816 0.050000
v 0.021117 0.034816 -0.050000
v 0.018686 0.037066 0.050000
v 0.018686 0.037066 -0.050000
v 0.016404 0.039434 0.050000
v 0.016404 0.039434 -0.050000
v 0.014272 0.041918 0.050000
v 0.014272 0.041918 -0.050000
v 0.012288 0.044519 0.050000
v 0.012288 0.044519 -0.050000
v 0.010454 0.047237 0.050000
v 0.010454 0.047237 -0.050000
v 0.008769 0.050072 0.050000
v 0.008769 0.050072 -0.050000
v 0.007218 0.053070 0.050000
v 0.007218 0.053070 -0.050000
v 0.005786 0.056280 0.050000
v 0.005786 0.056280 -0.050000
v 0.004474 0.059702 0.050000
v 0.004474 0.059702 -0.050000
v 0.003281 0.063334 0.050000
v 0.003281 0.063334 -0.050000
v 0.002207 0.067178 0.050000
v 0.002207 0.067178 -0.050000
v 0.001253 0.071233 0.050000
v 0.001253 0.071233 -0.050000
v 0.000418 0.075499 0.050000
v 0.000418 0.075499 -0.050000
v -0.000298 0.079977 0.050000
v -0.000298 0.079977 -0.050000
v -0.000895 0.084666 0.050000
v -0.000895 0.084666 -0.050000
v -0.001372 0.089566 0.050000
v -0.001372 0.089566 -0.050000
v -0.001730 0.094677 0.050000
v -0.001730 0.094677 -0.050000
vn 0.0000 -0.0000 -1.0000
vn 0.0000 0.0000 1.0000
vn 0.7228 -0.6911 0.0000
vn 0.7071 -0.7071 0.0000
vn 0.7071 0.7071 0.0000
vn -0.7071 0.7071 0.0000
vn -1.0000 -0.0075 0.0000
vn -0.9995 -0.0307 0.0000
vn -0.9980 -0.0632 0.0000
vn -0.9952 -0.0977 0.0000
vn -0.9909 -0.1344 0.0000
vn -0.9849 -0.1733 0.0000
vn -0.9767 -0.2144 0.0000
vn -0.9662 -0.2576 0.0000
vn -0.9530 -0.3029 0.0000
vn -0.9368 -0.3500 0.0000
vn -0.9171 -0.3987 0.0000
vn -0.8938 -0.4485 0.0000
vn -0.8666 -0.4990 0.0000
vn -0.8359 -0.5489 0.0000
vn -0.8021 -0.5971 0.0000
vn -0.7659 -0.6430 0.0000
vn -0.7274 -0.6862 0.0000
vn -0.6874 -0.7263 0.0000
vn -0.6462 -0.7631 0.0000
vn -0.6044 -0.7967 0.0000
vn -0.5625 -0.8268 0.0000
vn -0.5208 -0.8537 0.0000
vn -0.4797 -0.8774 0.0000
vn -0.4395 -0.8982 0.0000
vn 0.2773 -0.9608 0.0000
vn 0.9612 0.2758 -0.0000
vn 0.4436 0.8962 -0.0000
vn 0.4862 0.8738 -0.0000
vn 0.5294 0.8484 -0.0000
vn 0.5729 0.8197 -0.0000
vn 0.6161 0.7877 -0.0000
vn 0.6586 0.7525 -0.0000
vn 0.7000 0.7142 -0.0000
vn 0.7397 0.6729 -0.0000
vn 0.7773 0.6291 -0.0000
vn 0.8124 0.5831 -0.0000
vn 0.8446 0.5354 -0.0000
vn 0.8743 0.4854 -0.0000
vn 0.9011 0.4335 -0.0000
vn 0.9238 0.3829 -0.0000
vn 0.9422 0.3352 -0.0000
vn 0.9568 0.2906 -0.0000
vn 0.9685 0.2491 0.0000
vn 0.9776 0.2106 0.0000
vn 0.9846 0.1750 0.0000
vn 0.9899 0.1421 0.0000
vn 0.9938 0.1116 0.0000
vn 0.9965 0.0834 0.0000
vn 0.9984 0.0573 0.0000
usemtl None
s 1
f 2//1 4//1 3//1
f 2//1 5//1 4//1
f 1//2 5//1 2//1
f 53//1 5//1 1//2
f 53//1 6//1 5//1
f 52//1 6//1 53//1
f 52//1 7//1 6//1
f 51//1 7//1 52//1
f 51//1 8//1 7//1
f 50//1 8//1 51//1
f 50//1 9//1 8//1
f 49//1 9//1 50//1
f 48//1 9//1 49//1
f 48//1 10//1 9//1
f 47//1 10//1 48//1
f 47//1 11//1 10//1
f 46//1 11//1 47//1
f 46//1 12//1 11//1
f 45//1 12//1 46//1
f 44//1 12//1 45//1
f 44//1 13//1 12//1
f 43//1 13//1 44//1
f 42//1 13//1 43//1
f 42//1 14//1 13//1
f 41//1 14//1 42//1
f 41//1 15//1 14//1
f 40//1 15//1 41//1
f 39//1 15//1 40//1
f 39//1 16//1 15//1
f 38//1 16//1 39//1
f 37//1 16//1 38//1
f 37//1 17//1 16//1
f 36//1 17//1 37//1
f 35//1 17//1 36//1
f 35//1 18//1 17//1
f 34//1 18//1 35//1
f 33//1 18//1 34//1
f 33//1 19//1 18//1
f 32//1 19//1 33//1
f 31//1 19//1 32//1
f 31//1 20//1 19//1
f 30//1 20//1 31//1
f 29//1 20//1 30//1
f 29//1 21//1 20//1
f 29//1 22//1 21//1
f 29//1 23//1 22//1
f 29//1 24//1 23//1
f 29//1 25//1 24//1
f 29//1 26//1 25//1
f 29//1 27//1 26//1
f 29//1 28//1 27//1
f 57//2 55//2 56//2
f 58//2 55//2 57//2
f 58//2 54//2 55//2
f 58//2 106//2 54//2
f 59//2 106//2 58//2
f 59//2 105//2 106//2
f 60//2 105//2 59//2
f 60//2 104//2 105//2
f 61//2 104//2 60//2
f 61//2 103//2 104//2
f 62//2 103//2 61//2
f 62//2 102//2 103//2
f 62//2 101//2 102//2
f 63//2 101//2 62//2
f 63//2 100//2 101//2
f 64//2 100//2 63//2
f 64//2 99//2 100//2
f 65//2 99//2 64//2
f 65//2 98//2 99//2
f 65//2 97//2 98//2
f 66//2 97//2 65//2
f 66//2 96//2 97//2
f 66//2 95//2 96//2
f 67//2 95//2 66//2
f 67//2 94//2 95//2
f 68//2 94//2 67//2
f 68//2 93//2 94//2
f 68//2 92//2 93//2
f 69//2 92//2 68//2
f 69//2 91//2 92//2
f 69//2 90//2 91//2
f 70//2 90//2 69//2
f 70//2 89//2 90//2
f 70//2 88//2 89//2
f 71//2 88//2 70//2
f 71//2 87//2 88//2
f 71//2 86//2 87//2
f 72//2 86//2 71//2
f 72//2 85//2 86//2
f 72//2 84//2 85//2
f 73//2 84//2 72//2
f 73//2 83//2 84//2
f 73//2 82//2 83//2
f 74//2 82//2 73//2
f 75//2 82//2 74//2
f 76//2 82//2 75//2
f 77//2 82//2 76//2
f 78//2 82//2 77//2
f 79//2 82//2 78//2
f 80//2 82//2 79//2
f 81//2 82//2 80//2
f 108//3 110//4 109//4 107//3
f 110//4 112//5 111//5 109//4
f 112//5 114//6 113//6 111//5
f 114//6 116//7 115//7 113//6
f 116//7 118//8 117//8 115//7
f 118//8 120//9 119//9 117//8
f 120//9 122//10 121//10 119//9
f 122//10 124//11 123//11 121//10
f 124//11 126//12 125//12 123//11
f 126//12 128//13 127//13 125//12
f 128//13 130//14 129//14 127//13
f 130//14 132//15 131//15 129//14
f 132//15 134//16 133//16 131//15
f 134//16 136//17 135//17 133//16
f 136//17 138//18 137//18 135//17
f 138//18 140//19 139//19 137//18
f 140//19 142//20 141//20 139//19
f 142//20 144//21 143//21 141//20
f 144//21 146//22 145//22 143//21
f 146//22 148//23 147//23 145//22
f 148//23 150//24 149//24 147//23
f 150//24 152//25 151//25 149//24
f 152//25 154//26 153//26 151//25
f 154//26 156//27 155//27 153//26
f 156//27 158//28 157//28 155//27
f 158//28 160//29 159//29 157//28
f 160//29 162//30 161//30 159//29
f 162//30 164//31 163//31 161//30
f 164//31 166//32 165//32 163//31
f 166//32 168//33 167//33 165//32
f 168//33 170//34 169//34 167//33
f 170//34 172//35 171//35 169//34
f 172//35 174//36 173//36 171//35
f 174//36 176//37 175//37 173//36
f 176//37 178//38 177//38 175//37
f 178//38 180//39 179//39 177//38
f 180//39 182//40 181//40 179//39
f 182//40 184//41 183//41 181//40
f 184//41 186//42 185//42 183//41
f 186//42 188//43 187//43 185//42
f 188//43 190//44 189//44 187//43
f 190//44 192//45 191//45 189//44
f 192//45 194//46 193//46 191//45
f 194//46 196//47 195//47 193//46
f 196//47 198//48 197//48 195//47
f 198//48 200//49 199//49 197//48
f 200//49 202//50 201//50 199//49
f 202//50 204//51 203//51 201//50
f 204//51 206//52 205//52 203//51
f 206//52 208//53 207//53 205//52
f 208//53 210//54 209//54 207//53
f 210//54 212//55 211//55 209//54
f 212//55 108//3 107//3 211//55
