# Blender v2.80 (sub 75) OBJ File: 'comma.blend'
# www.blender.org
mtllib exclam.mtl
o Text_Text.084
v -0.037044 0.100000 -0.050000
v 0.037044 0.100000 -0.050000
v 0.037044 0.173372 -0.050000
v -0.037044 0.173372 -0.050000
v -0.021296 0.230279 -0.050000
v 0.020222 0.230279 -0.050000
v 0.039907 0.508375 -0.050000
v 0.039907 0.624696 -0.050000
v -0.039907 0.624696 -0.050000
v -0.039907 0.508375 -0.050000
v -0.037044 0.100000 0.050000
v 0.037044 0.100000 0.050000
v 0.037044 0.173372 0.050000
v -0.037044 0.173372 0.050000
v -0.021296 0.230279 0.050000
v 0.020222 0.230279 0.050000
v 0.039907 0.508375 0.050000
v 0.039907 0.624696 0.050000
v -0.039907 0.624696 0.050000
v -0.039907 0.508375 0.050000
v -0.021296 0.230279 0.050000
v -0.021296 0.230279 -0.050000
v 0.020222 0.230279 0.050000
v 0.020222 0.230279 -0.050000
v 0.039907 0.508375 0.050000
v 0.039907 0.508375 -0.050000
v 0.039907 0.624696 0.050000
v 0.039907 0.624696 -0.050000
v -0.039907 0.624696 0.050000
v -0.039907 0.624696 -0.050000
v -0.039907 0.508375 0.050000
v -0.039907 0.508375 -0.050000
v -0.037044 0.100000 0.050000
v -0.037044 0.100000 -0.050000
v 0.037044 0.100000 0.050000
v 0.037044 0.100000 -0.050000
v 0.037044 0.173372 0.050000
v 0.037044 0.173372 -0.050000
v -0.037044 0.173372 0.050000
v -0.037044 0.173372 -0.050000
vn 0.0000 -0.0000 -1.0000
vn 0.0000 0.0000 1.0000
vn -0.6831 -0.7303 0.0000
vn 0.6817 -0.7316 0.0000
vn 0.9994 -0.0353 0.0000
vn 0.7071 0.7071 0.0000
vn -0.7071 0.7071 0.0000
vn -0.9994 -0.0334 0.0000
vn -0.7071 -0.7071 0.0000
vn 0.7071 -0.7071 0.0000
usemtl None
s 1
f 7//1 9//1 8//1
f 7//1 10//1 9//1
f 6//1 10//1 7//1
f 6//1 5//1 10//1
f 2//1 4//1 3//1
f 2//1 1//1 4//1
f 19//2 17//2 18//2
f 20//2 17//2 19//2
f 20//2 16//2 17//2
f 15//2 16//2 20//2
f 14//2 12//2 13//2
f 11//2 12//2 14//2
f 22//3 24//4 23//4 21//3
f 24//4 26//5 25//5 23//4
f 26//5 28//6 27//6 25//5
f 28//6 30//7 29//7 27//6
f 30//7 32//8 31//8 29//7
f 32//8 22//3 21//3 31//8
f 34//9 36//10 35//10 33//9
f 36//10 38//6 37//6 35//10
f 38//6 40//7 39//7 37//6
f 40//7 34//9 33//9 39//7
