# Blender v2.80 (sub 75) OBJ File: 'comma.blend'
# www.blender.org
mtllib four.mtl
o Text_Text.087
v -0.110594 0.100000 -0.050000
v -0.046170 0.100000 -0.050000
v -0.046170 0.225626 -0.050000
v 0.181460 0.225626 -0.050000
v 0.181460 0.284682 -0.050000
v -0.057981 0.624696 -0.050000
v -0.110594 0.624696 -0.050000
v -0.110594 0.284682 -0.050000
v -0.181460 0.284682 -0.050000
v -0.181460 0.225626 -0.050000
v -0.110594 0.225626 -0.050000
v 0.118110 0.284682 -0.050000
v -0.046170 0.284682 -0.050000
v -0.046170 0.521260 -0.050000
v -0.110594 0.100000 0.050000
v -0.046170 0.100000 0.050000
v -0.046170 0.225626 0.050000
v 0.181460 0.225626 0.050000
v 0.181460 0.284682 0.050000
v -0.057981 0.624696 0.050000
v -0.110594 0.624696 0.050000
v -0.110594 0.284682 0.050000
v -0.181460 0.284682 0.050000
v -0.181460 0.225626 0.050000
v -0.110594 0.225626 0.050000
v 0.118110 0.284682 0.050000
v -0.046170 0.284682 0.050000
v -0.046170 0.521260 0.050000
v -0.110594 0.100000 0.050000
v -0.110594 0.100000 -0.050000
v -0.046170 0.100000 0.050000
v -0.046170 0.100000 -0.050000
v -0.046170 0.225626 0.050000
v -0.046170 0.225626 -0.050000
v 0.181460 0.225626 0.050000
v 0.181460 0.225626 -0.050000
v 0.181460 0.284682 0.050000
v 0.181460 0.284682 -0.050000
v -0.057981 0.624696 0.050000
v -0.057981 0.624696 -0.050000
v -0.110594 0.624696 0.050000
v -0.110594 0.624696 -0.050000
v -0.110594 0.284682 0.050000
v -0.110594 0.284682 -0.050000
v -0.181460 0.284682 0.050000
v -0.181460 0.284682 -0.050000
v -0.181460 0.225626 0.050000
v -0.181460 0.225626 -0.050000
v -0.110594 0.225626 0.050000
v -0.110594 0.225626 -0.050000
v 0.118110 0.284682 0.050000
v 0.118110 0.284682 -0.050000
v -0.046170 0.284682 0.050000
v -0.046170 0.284682 -0.050000
v -0.046170 0.521260 0.050000
v -0.046170 0.521260 -0.050000
vn 0.0000 -0.0000 -1.0000
vn 0.0000 0.0000 1.0000
vn -0.7071 -0.7071 0.0000
vn 0.7071 -0.7071 0.0000
vn 0.9533 0.3020 0.0000
vn 0.4606 0.8876 0.0000
vn -0.7071 0.7071 0.0000
vn -0.8861 0.4635 0.0000
vn 0.7071 0.7071 0.0000
vn 0.2988 -0.9543 0.0000
usemtl None
s 1
f 5//1 7//1 6//1
f 5//1 14//1 7//1
f 14//1 8//1 7//1
f 5//1 12//1 14//1
f 13//1 8//1 14//1
f 4//1 12//1 5//1
f 4//1 13//1 12//1
f 4//1 8//1 13//1
f 4//1 9//1 8//1
f 4//1 10//1 9//1
f 3//2 10//1 4//1
f 2//1 11//1 3//1
f 11//2 10//2 3//2
f 2//1 1//1 11//1
f 21//2 19//2 20//2
f 28//2 19//2 21//2
f 22//2 28//2 21//2
f 26//2 19//2 28//2
f 22//2 27//2 28//2
f 26//2 18//2 19//2
f 27//2 18//2 26//2
f 22//2 18//2 27//2
f 23//2 18//2 22//2
f 24//2 18//2 23//2
f 24//2 17//2 18//2
f 25//2 16//2 17//2
f 24//1 25//1 17//1
f 15//2 16//2 25//2
f 30//3 32//4 31//4 29//3
f 32//4 34//4 33//4 31//4
f 34//4 36//4 35//4 33//4
f 36//4 38//5 37//5 35//4
f 38//5 40//6 39//6 37//5
f 40//6 42//7 41//7 39//6
f 42//7 44//7 43//7 41//7
f 44//7 46//7 45//7 43//7
f 46//7 48//3 47//3 45//7
f 48//3 50//3 49//3 47//3
f 50//3 30//3 29//3 49//3
f 52//8 54//9 53//9 51//8
f 54//9 56//10 55//10 53//9
f 56//10 52//8 51//8 55//10
