# Blender v2.80 (sub 75) OBJ File: 'comma.blend'
# www.blender.org
mtllib grave.mtl
o Text_Text.089
v -0.018969 0.627559 -0.050000
v -0.067287 0.527344 -0.050000
v -0.015390 0.527344 -0.050000
v 0.067287 0.627559 -0.050000
v -0.018969 0.627559 0.050000
v -0.067287 0.527344 0.050000
v -0.015390 0.527344 0.050000
v 0.067287 0.627559 0.050000
v -0.018969 0.627559 0.050000
v -0.018969 0.627559 -0.050000
v -0.067287 0.527344 0.050000
v -0.067287 0.527344 -0.050000
v -0.015390 0.527344 0.050000
v -0.015390 0.527344 -0.050000
v 0.067287 0.627559 0.050000
v 0.067287 0.627559 -0.050000
vn 0.0000 -0.0000 -1.0000
vn 0.0000 0.0000 1.0000
vn -0.5318 0.8468 0.0000
vn -0.8468 -0.5318 0.0000
vn 0.4264 -0.9045 0.0000
vn 0.9045 0.4264 0.0000
usemtl None
s 1
f 3//1 1//1 4//1
f 3//1 2//1 1//1
f 5//2 7//2 8//2
f 6//2 7//2 5//2
f 10//3 12//4 11//4 9//3
f 12//4 14//5 13//5 11//4
f 14//5 16//6 15//6 13//5
f 16//6 10//3 9//3 15//6
