# Blender v2.80 (sub 75) OBJ File: 'comma.blend'
# www.blender.org
mtllib greater.mtl
o Text_Text.090
v -0.173765 0.389549 -0.050000
v -0.173765 0.329420 -0.050000
v 0.173765 0.180888 -0.050000
v 0.173765 0.244954 -0.050000
v -0.101467 0.359127 -0.050000
v 0.173765 0.472226 -0.050000
v 0.173765 0.536292 -0.050000
v -0.173765 0.389549 0.050000
v -0.173765 0.329420 0.050000
v 0.173765 0.180888 0.050000
v 0.173765 0.244954 0.050000
v -0.101467 0.359127 0.050000
v 0.173765 0.472226 0.050000
v 0.173765 0.536292 0.050000
v -0.173765 0.389549 0.050000
v -0.173765 0.389549 -0.050000
v -0.173765 0.329420 0.050000
v -0.173765 0.329420 -0.050000
v 0.173765 0.180888 0.050000
v 0.173765 0.180888 -0.050000
v 0.173765 0.244954 0.050000
v 0.173765 0.244954 -0.050000
v -0.101467 0.359127 0.050000
v -0.101467 0.359127 -0.050000
v 0.173765 0.472226 0.050000
v 0.173765 0.472226 -0.050000
v 0.173765 0.536292 0.050000
v 0.173765 0.536292 -0.050000
vn -0.0000 -0.0000 -1.0000
vn -0.0000 0.0000 1.0000
vn -0.8334 0.5527 0.0000
vn -0.8346 -0.5509 0.0000
vn 0.5509 -0.8346 0.0000
vn 0.8316 0.5554 0.0000
vn 1.0000 -0.0017 0.0000
vn 0.8307 -0.5567 0.0000
vn 0.5527 0.8334 0.0000
usemtl None
s 1
f 6//1 1//1 7//1
f 5//1 1//1 6//1
f 5//1 2//1 1//1
f 4//1 2//1 5//1
f 4//1 3//1 2//1
f 8//2 13//2 14//2
f 8//2 12//2 13//2
f 9//2 12//2 8//2
f 9//2 11//2 12//2
f 10//2 11//2 9//2
f 16//3 18//4 17//4 15//3
f 18//4 20//5 19//5 17//4
f 20//5 22//6 21//6 19//5
f 22//6 24//7 23//7 21//6
f 24//7 26//8 25//8 23//7
f 26//8 28//9 27//9 25//8
f 28//9 16//3 15//3 27//9
