# Blender v2.80 (sub 75) OBJ File: 'comma.blend'
# www.blender.org
mtllib lower_o_grave.mtl
o Text
v -0.006000 0.607000 -0.050000
v 0.106000 0.754000 -0.050000
v 0.006000 0.754000 -0.050000
v -0.061000 0.607000 -0.050000
v -0.237969 0.294487 -0.050000
v -0.232000 0.262065 -0.050000
v -0.222281 0.231906 -0.050000
v -0.209000 0.204185 -0.050000
v -0.192344 0.179075 -0.050000
v -0.172500 0.156750 -0.050000
v -0.149656 0.137383 -0.050000
v -0.124000 0.121148 -0.050000
v -0.095719 0.108219 -0.050000
v -0.065000 0.098769 -0.050000
v -0.032031 0.092971 -0.050000
v 0.003000 0.091000 -0.050000
v 0.036653 0.093047 -0.050000
v 0.068472 0.099046 -0.050000
v 0.098250 0.108781 -0.050000
v 0.125778 0.122037 -0.050000
v 0.150847 0.138598 -0.050000
v 0.173250 0.158250 -0.050000
v 0.192778 0.180777 -0.050000
v 0.209222 0.205963 -0.050000
v 0.222375 0.233594 -0.050000
v 0.232028 0.263454 -0.050000
v 0.237972 0.295328 -0.050000
v 0.240000 0.329000 -0.050000
v 0.237896 0.360605 -0.050000
v 0.231750 0.390755 -0.050000
v 0.221813 0.419203 -0.050000
v 0.208333 0.445704 -0.050000
v 0.191563 0.470010 -0.050000
v 0.171750 0.491875 -0.050000
v 0.149146 0.511053 -0.050000
v 0.124000 0.527296 -0.050000
v 0.096563 0.540359 -0.050000
v 0.067083 0.549995 -0.050000
v 0.035813 0.555958 -0.050000
v 0.003000 0.558000 -0.050000
v -0.031401 0.556034 -0.050000
v -0.063958 0.550273 -0.050000
v -0.094453 0.540922 -0.050000
v -0.122667 0.528185 -0.050000
v -0.148380 0.512268 -0.050000
v -0.171375 0.493375 -0.050000
v -0.191432 0.471711 -0.050000
v -0.208333 0.447482 -0.050000
v -0.221859 0.420891 -0.050000
v -0.231792 0.392144 -0.050000
v -0.237911 0.361445 -0.050000
v -0.240000 0.329000 -0.050000
v 0.147789 0.305935 -0.050000
v 0.144231 0.284310 -0.050000
v 0.138438 0.264234 -0.050000
v 0.130519 0.245815 -0.050000
v 0.120586 0.229159 -0.050000
v 0.108750 0.214375 -0.050000
v 0.095123 0.201570 -0.050000
v 0.079815 0.190852 -0.050000
v 0.062938 0.182328 -0.050000
v 0.044602 0.176107 -0.050000
v 0.024919 0.172295 -0.050000
v 0.004000 0.171000 -0.050000
v -0.018757 0.172237 -0.050000
v -0.039972 0.175894 -0.050000
v -0.059562 0.181891 -0.050000
v -0.077444 0.190148 -0.050000
v -0.093535 0.200586 -0.050000
v -0.107750 0.213125 -0.050000
v -0.120007 0.227685 -0.050000
v -0.130222 0.244185 -0.050000
v -0.138312 0.262547 -0.050000
v -0.144194 0.282690 -0.050000
v -0.147785 0.304534 -0.050000
v -0.149000 0.328000 -0.050000
v -0.147689 0.349228 -0.050000
v -0.143847 0.369320 -0.050000
v -0.137609 0.388141 -0.050000
v -0.129111 0.405556 -0.050000
v -0.118488 0.421429 -0.050000
v -0.105875 0.435625 -0.050000
v -0.091408 0.448009 -0.050000
v -0.075222 0.458445 -0.050000
v -0.057453 0.466797 -0.050000
v -0.038236 0.472931 -0.050000
v -0.017707 0.476710 -0.050000
v 0.004000 0.478000 -0.050000
v 0.024499 0.476711 -0.050000
v 0.043907 0.472935 -0.050000
v 0.062094 0.466813 -0.050000
v 0.078926 0.458482 -0.050000
v 0.094272 0.448081 -0.050000
v 0.108000 0.435750 -0.050000
v 0.119978 0.421627 -0.050000
v 0.130074 0.405852 -0.050000
v 0.138156 0.388563 -0.050000
v 0.144093 0.369898 -0.050000
v 0.147751 0.349998 -0.050000
v 0.149000 0.329000 -0.050000
v -0.006000 0.607000 0.050000
v 0.106000 0.754000 0.050000
v 0.006000 0.754000 0.050000
v -0.061000 0.607000 0.050000
v -0.237969 0.294487 0.050000
v -0.232000 0.262065 0.050000
v -0.222281 0.231906 0.050000
v -0.209000 0.204185 0.050000
v -0.192344 0.179075 0.050000
v -0.172500 0.156750 0.050000
v -0.149656 0.137383 0.050000
v -0.124000 0.121148 0.050000
v -0.095719 0.108219 0.050000
v -0.065000 0.098769 0.050000
v -0.032031 0.092971 0.050000
v 0.003000 0.091000 0.050000
v 0.036653 0.093047 0.050000
v 0.068472 0.099046 0.050000
v 0.098250 0.108781 0.050000
v 0.125778 0.122037 0.050000
v 0.150847 0.138598 0.050000
v 0.173250 0.158250 0.050000
v 0.192778 0.180777 0.050000
v 0.209222 0.205963 0.050000
v 0.222375 0.233594 0.050000
v 0.232028 0.263454 0.050000
v 0.237972 0.295328 0.050000
v 0.240000 0.329000 0.050000
v 0.237896 0.360605 0.050000
v 0.231750 0.390755 0.050000
v 0.221813 0.419203 0.050000
v 0.208333 0.445704 0.050000
v 0.191563 0.470010 0.050000
v 0.171750 0.491875 0.050000
v 0.149146 0.511053 0.050000
v 0.124000 0.527296 0.050000
v 0.096563 0.540359 0.050000
v 0.067083 0.549995 0.050000
v 0.035813 0.555958 0.050000
v 0.003000 0.558000 0.050000
v -0.031401 0.556034 0.050000
v -0.063958 0.550273 0.050000
v -0.094453 0.540922 0.050000
v -0.122667 0.528185 0.050000
v -0.148380 0.512268 0.050000
v -0.171375 0.493375 0.050000
v -0.191432 0.471711 0.050000
v -0.208333 0.447482 0.050000
v -0.221859 0.420891 0.050000
v -0.231792 0.392144 0.050000
v -0.237911 0.361445 0.050000
v -0.240000 0.329000 0.050000
v 0.147789 0.305935 0.050000
v 0.144231 0.284310 0.050000
v 0.138438 0.264234 0.050000
v 0.130519 0.245815 0.050000
v 0.120586 0.229159 0.050000
v 0.108750 0.214375 0.050000
v 0.095123 0.201570 0.050000
v 0.079815 0.190852 0.050000
v 0.062938 0.182328 0.050000
v 0.044602 0.176107 0.050000
v 0.024919 0.172295 0.050000
v 0.004000 0.171000 0.050000
v -0.018757 0.172237 0.050000
v -0.039972 0.175894 0.050000
v -0.059562 0.181891 0.050000
v -0.077444 0.190148 0.050000
v -0.093535 0.200586 0.050000
v -0.107750 0.213125 0.050000
v -0.120007 0.227685 0.050000
v -0.130222 0.244185 0.050000
v -0.138312 0.262547 0.050000
v -0.144194 0.282690 0.050000
v -0.147785 0.304534 0.050000
v -0.149000 0.328000 0.050000
v -0.147689 0.349228 0.050000
v -0.143847 0.369320 0.050000
v -0.137609 0.388141 0.050000
v -0.129111 0.405556 0.050000
v -0.118488 0.421429 0.050000
v -0.105875 0.435625 0.050000
v -0.091408 0.448009 0.050000
v -0.075222 0.458445 0.050000
v -0.057453 0.466797 0.050000
v -0.038236 0.472931 0.050000
v -0.017707 0.476710 0.050000
v 0.004000 0.478000 0.050000
v 0.024499 0.476711 0.050000
v 0.043907 0.472935 0.050000
v 0.062094 0.466813 0.050000
v 0.078926 0.458482 0.050000
v 0.094272 0.448081 0.050000
v 0.108000 0.435750 0.050000
v 0.119978 0.421627 0.050000
v 0.130074 0.405852 0.050000
v 0.138156 0.388563 0.050000
v 0.144093 0.369898 0.050000
v 0.147751 0.349998 0.050000
v 0.149000 0.329000 0.050000
v -0.237969 0.294487 0.050000
v -0.237969 0.294487 -0.050000
v -0.232000 0.262065 0.050000
v -0.232000 0.262065 -0.050000
v -0.222281 0.231906 0.050000
v -0.222281 0.231906 -0.050000
v -0.209000 0.204185 0.050000
v -0.209000 0.204185 -0.050000
v -0.192344 0.179075 0.050000
v -0.192344 0.179075 -0.050000
v -0.172500 0.156750 0.050000
v -0.172500 0.156750 -0.050000
v -0.149656 0.137383 0.050000
v -0.149656 0.137383 -0.050000
v -0.124000 0.121148 0.050000
v -0.124000 0.121148 -0.050000
v -0.095719 0.108219 0.050000
v -0.095719 0.108219 -0.050000
v -0.065000 0.098769 0.050000
v -0.065000 0.098769 -0.050000
v -0.032031 0.092971 0.050000
v -0.032031 0.092971 -0.050000
v 0.003000 0.091000 0.050000
v 0.003000 0.091000 -0.050000
v 0.036653 0.093047 0.050000
v 0.036653 0.093047 -0.050000
v 0.068472 0.099046 0.050000
v 0.068472 0.099046 -0.050000
v 0.098250 0.108781 0.050000
v 0.098250 0.108781 -0.050000
v 0.125778 0.122037 0.050000
v 0.125778 0.122037 -0.050000
v 0.150847 0.138598 0.050000
v 0.150847 0.138598 -0.050000
v 0.173250 0.158250 0.050000
v 0.173250 0.158250 -0.050000
v 0.192778 0.180777 0.050000
v 0.192778 0.180777 -0.050000
v 0.209222 0.205963 0.050000
v 0.209222 0.205963 -0.050000
v 0.222375 0.233594 0.050000
v 0.222375 0.233594 -0.050000
v 0.232028 0.263454 0.050000
v 0.232028 0.263454 -0.050000
v 0.237972 0.295328 0.050000
v 0.237972 0.295328 -0.050000
v 0.240000 0.329000 0.050000
v 0.240000 0.329000 -0.050000
v 0.237896 0.360605 0.050000
v 0.237896 0.360605 -0.050000
v 0.231750 0.390755 0.050000
v 0.231750 0.390755 -0.050000
v 0.221813 0.419203 0.050000
v 0.221813 0.419203 -0.050000
v 0.208333 0.445704 0.050000
v 0.208333 0.445704 -0.050000
v 0.191563 0.470010 0.050000
v 0.191563 0.470010 -0.050000
v 0.171750 0.491875 0.050000
v 0.171750 0.491875 -0.050000
v 0.149146 0.511053 0.050000
v 0.149146 0.511053 -0.050000
v 0.124000 0.527296 0.050000
v 0.124000 0.527296 -0.050000
v 0.096563 0.540359 0.050000
v 0.096563 0.540359 -0.050000
v 0.067083 0.549995 0.050000
v 0.067083 0.549995 -0.050000
v 0.035813 0.555958 0.050000
v 0.035813 0.555958 -0.050000
v 0.003000 0.558000 0.050000
v 0.003000 0.558000 -0.050000
v -0.031401 0.556034 0.050000
v -0.031401 0.556034 -0.050000
v -0.063958 0.550273 0.050000
v -0.063958 0.550273 -0.050000
v -0.094453 0.540922 0.050000
v -0.094453 0.540922 -0.050000
v -0.122667 0.528185 0.050000
v -0.122667 0.528185 -0.050000
v -0.148380 0.512268 0.050000
v -0.148380 0.512268 -0.050000
v -0.171375 0.493375 0.050000
v -0.171375 0.493375 -0.050000
v -0.191432 0.471711 0.050000
v -0.191432 0.471711 -0.050000
v -0.208333 0.447482 0.050000
v -0.208333 0.447482 -0.050000
v -0.221859 0.420891 0.050000
v -0.221859 0.420891 -0.050000
v -0.231792 0.392144 0.050000
v -0.231792 0.392144 -0.050000
v -0.237911 0.361445 0.050000
v -0.237911 0.361445 -0.050000
v -0.240000 0.329000 0.050000
v -0.240000 0.329000 -0.050000
v 0.147789 0.305935 0.050000
v 0.147789 0.305935 -0.050000
v 0.144231 0.284310 0.050000
v 0.144231 0.284310 -0.050000
v 0.138438 0.264234 0.050000
v 0.138438 0.264234 -0.050000
v 0.130519 0.245815 0.050000
v 0.130519 0.245815 -0.050000
v 0.120586 0.229159 0.050000
v 0.120586 0.229159 -0.050000
v 0.108750 0.214375 0.050000
v 0.108750 0.214375 -0.050000
v 0.095123 0.201570 0.050000
v 0.095123 0.201570 -0.050000
v 0.079815 0.190852 0.050000
v 0.079815 0.190852 -0.050000
v 0.062938 0.182328 0.050000
v 0.062938 0.182328 -0.050000
v 0.044602 0.176107 0.050000
v 0.044602 0.176107 -0.050000
v 0.024919 0.172295 0.050000
v 0.024919 0.172295 -0.050000
v 0.004000 0.171000 0.050000
v 0.004000 0.171000 -0.050000
v -0.018757 0.172237 0.050000
v -0.018757 0.172237 -0.050000
v -0.039972 0.175894 0.050000
v -0.039972 0.175894 -0.050000
v -0.059562 0.181891 0.050000
v -0.059562 0.181891 -0.050000
v -0.077444 0.190148 0.050000
v -0.077444 0.190148 -0.050000
v -0.093535 0.200586 0.050000
v -0.093535 0.200586 -0.050000
v -0.107750 0.213125 0.050000
v -0.107750 0.213125 -0.050000
v -0.120007 0.227685 0.050000
v -0.120007 0.227685 -0.050000
v -0.130222 0.244185 0.050000
v -0.130222 0.244185 -0.050000
v -0.138312 0.262547 0.050000
v -0.138312 0.262547 -0.050000
v -0.144194 0.282690 0.050000
v -0.144194 0.282690 -0.050000
v -0.147785 0.304534 0.050000
v -0.147785 0.304534 -0.050000
v -0.149000 0.328000 0.050000
v -0.149000 0.328000 -0.050000
v -0.147689 0.349228 0.050000
v -0.147689 0.349228 -0.050000
v -0.143847 0.369320 0.050000
v -0.143847 0.369320 -0.050000
v -0.137609 0.388141 0.050000
v -0.137609 0.388141 -0.050000
v -0.129111 0.405556 0.050000
v -0.129111 0.405556 -0.050000
v -0.118488 0.421429 0.050000
v -0.118488 0.421429 -0.050000
v -0.105875 0.435625 0.050000
v -0.105875 0.435625 -0.050000
v -0.091408 0.448009 0.050000
v -0.091408 0.448009 -0.050000
v -0.075222 0.458445 0.050000
v -0.075222 0.458445 -0.050000
v -0.057453 0.466797 0.050000
v -0.057453 0.466797 -0.050000
v -0.038236 0.472931 0.050000
v -0.038236 0.472931 -0.050000
v -0.017707 0.476710 0.050000
v -0.017707 0.476710 -0.050000
v 0.004000 0.478000 0.050000
v 0.004000 0.478000 -0.050000
v 0.024499 0.476711 0.050000
v 0.024499 0.476711 -0.050000
v 0.043907 0.472935 0.050000
v 0.043907 0.472935 -0.050000
v 0.062094 0.466813 0.050000
v 0.062094 0.466813 -0.050000
v 0.078926 0.458482 0.050000
v 0.078926 0.458482 -0.050000
v 0.094272 0.448081 0.050000
v 0.094272 0.448081 -0.050000
v 0.108000 0.435750 0.050000
v 0.108000 0.435750 -0.050000
v 0.119978 0.421627 0.050000
v 0.119978 0.421627 -0.050000
v 0.130074 0.405852 0.050000
v 0.130074 0.405852 -0.050000
v 0.138156 0.388563 0.050000
v 0.138156 0.388563 -0.050000
v 0.144093 0.369898 0.050000
v 0.144093 0.369898 -0.050000
v 0.147751 0.349998 0.050000
v 0.147751 0.349998 -0.050000
v 0.149000 0.329000 0.050000
v 0.149000 0.329000 -0.050000
v -0.006000 0.607000 0.050000
v -0.006000 0.607000 -0.050000
v 0.106000 0.754000 0.050000
v 0.106000 0.754000 -0.050000
v 0.006000 0.754000 0.050000
v 0.006000 0.754000 -0.050000
v -0.061000 0.607000 0.050000
v -0.061000 0.607000 -0.050000
vn 0.0000 0.0000 -1.0000
vn -0.0000 0.0000 1.0000
vn -0.9927 -0.1201 0.0000
vn -0.9697 -0.2444 0.0000
vn -0.9289 -0.3702 0.0000
vn -0.8697 -0.4936 0.0000
vn -0.7923 -0.6101 0.0000
vn -0.6988 -0.7153 0.0000
vn -0.5921 -0.8058 0.0000
vn -0.4763 -0.8792 0.0000
vn -0.3557 -0.9346 0.0000
vn -0.2340 -0.9722 0.0000
vn -0.1149 -0.9934 0.0000
vn 0.0023 -1.0000 0.0000
vn 0.1232 -0.9924 0.0000
vn 0.2485 -0.9686 0.0000
vn 0.3731 -0.9278 0.0000
vn 0.4936 -0.8697 0.0000
vn 0.6067 -0.7949 0.0000
vn 0.7092 -0.7050 0.0000
vn 0.7983 -0.6022 0.0000
vn 0.8721 -0.4893 0.0000
vn 0.9292 -0.3695 0.0000
vn 0.9693 -0.2459 0.0000
vn 0.9925 -0.1220 0.0000
vn 1.0000 0.0031 0.0000
vn 0.9911 0.1334 0.0000
vn 0.9641 0.2654 0.0000
vn 0.9198 0.3924 0.0000
vn 0.8591 0.5118 0.0000
vn 0.7837 0.6210 0.0000
vn 0.6955 0.7185 0.0000
vn 0.5960 0.8029 0.0000
vn 0.4872 0.8733 0.0000
vn 0.3710 0.9286 0.0000
vn 0.2495 0.9684 0.0000
vn 0.1249 0.9922 0.0000
vn 0.0025 1.0000 0.0000
vn -0.1158 0.9933 0.0000
vn -0.2341 0.9722 0.0000
vn -0.3530 0.9356 0.0000
vn -0.4699 0.8827 0.0000
vn -0.5819 0.8133 0.0000
vn -0.6859 0.7277 0.0000
vn -0.7788 0.6272 0.0000
vn -0.8578 0.5140 0.0000
vn -0.9204 0.3909 0.0000
vn -0.9651 0.2616 0.0000
vn -0.9915 0.1301 0.0000
vn -1.0000 0.0027 0.0000
vn -0.9942 0.1075 0.0000
vn -0.9754 0.2202 0.0000
vn -0.9416 0.3368 0.0000
vn -0.8907 0.4545 0.0000
vn -0.8217 0.5699 0.0000
vn -0.7345 0.6785 0.0000
vn -0.6308 0.7759 0.0000
vn -0.5135 0.8581 0.0000
vn -0.3870 0.9221 0.0000
vn -0.2563 0.9666 0.0000
vn -0.1262 0.9920 0.0000
vn -0.0038 1.0000 0.0000
vn 0.1122 0.9937 0.0000
vn 0.2317 0.9727 0.0000
vn 0.3568 0.9342 0.0000
vn 0.4830 0.8756 0.0000
vn 0.6045 0.7966 0.0000
vn 0.7152 0.6989 0.0000
vn 0.8097 0.5867 0.0000
vn 0.8848 0.4659 0.0000
vn 0.9395 0.3425 0.0000
vn 0.9751 0.2216 0.0000
vn 0.9942 0.1071 0.0000
vn 1.0000 -0.0049 0.0000
vn 0.9922 -0.1250 0.0000
vn 0.9678 -0.2517 0.0000
vn 0.9260 -0.3774 0.0000
vn 0.8668 -0.4985 0.0000
vn 0.7911 -0.6116 0.0000
vn 0.7006 -0.7136 0.0000
vn 0.5974 -0.8019 0.0000
vn 0.4847 -0.8747 0.0000
vn 0.3655 -0.9308 0.0000
vn 0.2430 -0.9700 0.0000
vn 0.1204 -0.9927 0.0000
vn -0.0017 -1.0000 0.0000
vn -0.1271 -0.9919 0.0000
vn -0.2556 -0.9668 0.0000
vn -0.3822 -0.9241 0.0000
vn -0.5035 -0.8640 0.0000
vn -0.6160 -0.7877 0.0000
vn -0.7171 -0.6970 0.0000
vn -0.8043 -0.5943 0.0000
vn -0.8760 -0.4823 0.0000
vn -0.9314 -0.3640 0.0000
vn -0.9702 -0.2424 0.0000
vn -0.9927 -0.1203 0.0000
vn -1.0000 -0.0035 0.0000
vn 0.4438 -0.8961 0.0000
vn 0.8961 0.4438 0.0000
vn -0.5409 0.8410 0.0000
vn -0.8410 -0.5409 0.0000
usemtl None
s off
f 39//1 41//1 40//1
f 39//1 42//1 41//1
f 38//1 42//1 39//1
f 38//1 43//1 42//1
f 37//1 43//1 38//1
f 37//1 44//1 43//1
f 36//1 44//1 37//1
f 36//1 45//1 44//1
f 35//1 45//1 36//1
f 35//1 46//1 45//1
f 34//1 46//1 35//1
f 34//1 47//1 46//1
f 33//1 88//1 34//1
f 88//1 47//1 34//1
f 33//1 89//1 88//1
f 87//1 47//1 88//1
f 33//1 90//1 89//1
f 86//1 47//1 87//1
f 33//1 91//1 90//1
f 85//1 47//1 86//1
f 85//1 48//1 47//1
f 32//1 91//1 33//1
f 32//1 92//1 91//1
f 84//1 48//1 85//1
f 32//1 93//1 92//1
f 83//1 48//1 84//1
f 32//1 94//1 93//1
f 82//1 48//1 83//1
f 82//1 49//1 48//1
f 31//1 94//1 32//1
f 31//1 95//1 94//1
f 81//1 49//1 82//1
f 31//1 96//1 95//1
f 80//1 49//1 81//1
f 80//1 50//1 49//1
f 30//1 96//1 31//1
f 30//1 97//1 96//1
f 79//1 50//1 80//1
f 79//1 51//1 50//1
f 29//1 97//1 30//1
f 29//1 98//1 97//1
f 78//1 51//1 79//1
f 29//1 99//1 98//1
f 77//1 51//1 78//1
f 77//1 52//1 51//1
f 28//1 99//1 29//1
f 28//1 100//1 99//1
f 76//1 52//1 77//1
f 27//1 100//1 28//1
f 27//1 53//1 100//1
f 76//1 5//1 52//1
f 75//1 5//1 76//1
f 27//1 54//1 53//1
f 74//1 5//1 75//1
f 26//1 54//1 27//1
f 74//1 6//1 5//1
f 26//1 55//1 54//1
f 73//1 6//1 74//1
f 26//1 56//1 55//1
f 25//1 56//1 26//1
f 72//1 6//1 73//1
f 72//1 7//1 6//1
f 25//1 57//1 56//1
f 71//1 7//1 72//1
f 24//1 57//1 25//1
f 71//1 8//1 7//1
f 24//1 58//1 57//1
f 70//1 8//1 71//1
f 24//1 59//1 58//1
f 69//1 8//1 70//1
f 23//1 59//1 24//1
f 69//1 9//1 8//1
f 23//1 60//1 59//1
f 68//1 9//1 69//1
f 23//1 61//1 60//1
f 67//1 9//1 68//1
f 23//1 62//1 61//1
f 66//1 9//1 67//1
f 22//1 62//1 23//1
f 66//1 10//1 9//1
f 22//1 63//1 62//1
f 65//1 10//1 66//1
f 22//1 64//1 63//1
f 64//1 10//1 65//1
f 22//1 10//1 64//1
f 21//1 10//1 22//1
f 21//1 11//1 10//1
f 20//1 11//1 21//1
f 20//1 12//1 11//1
f 19//1 12//1 20//1
f 19//1 13//1 12//1
f 18//1 13//1 19//1
f 18//1 14//1 13//1
f 17//1 14//1 18//1
f 17//1 15//1 14//1
f 16//1 15//1 17//1
f 1//1 3//1 2//1
f 1//1 4//1 3//1
f 141//2 139//2 140//2
f 142//2 139//2 141//2
f 142//2 138//2 139//2
f 143//2 138//2 142//2
f 143//2 137//2 138//2
f 144//2 137//2 143//2
f 144//2 136//2 137//2
f 145//2 136//2 144//2
f 145//2 135//2 136//2
f 146//2 135//2 145//2
f 146//2 134//2 135//2
f 147//2 134//2 146//2
f 188//2 133//2 134//2
f 147//2 188//2 134//2
f 189//2 133//2 188//2
f 147//2 187//2 188//2
f 190//2 133//2 189//2
f 147//2 186//2 187//2
f 191//2 133//2 190//2
f 147//2 185//2 186//2
f 148//2 185//2 147//2
f 191//2 132//2 133//2
f 192//2 132//2 191//2
f 148//2 184//2 185//2
f 193//2 132//2 192//2
f 148//2 183//2 184//2
f 194//2 132//2 193//2
f 148//2 182//2 183//2
f 149//2 182//2 148//2
f 194//2 131//2 132//2
f 195//2 131//2 194//2
f 149//2 181//2 182//2
f 196//2 131//2 195//2
f 149//2 180//2 181//2
f 150//2 180//2 149//2
f 196//2 130//2 131//2
f 197//2 130//2 196//2
f 150//2 179//2 180//2
f 151//2 179//2 150//2
f 197//2 129//2 130//2
f 198//2 129//2 197//2
f 151//2 178//2 179//2
f 199//2 129//2 198//2
f 151//2 177//2 178//2
f 152//2 177//2 151//2
f 199//2 128//2 129//2
f 200//2 128//2 199//2
f 152//2 176//2 177//2
f 200//2 127//2 128//2
f 153//2 127//2 200//2
f 105//2 176//2 152//2
f 105//2 175//2 176//2
f 154//2 127//2 153//2
f 105//2 174//2 175//2
f 154//2 126//2 127//2
f 106//2 174//2 105//2
f 155//2 126//2 154//2
f 106//2 173//2 174//2
f 156//2 126//2 155//2
f 156//2 125//2 126//2
f 106//2 172//2 173//2
f 107//2 172//2 106//2
f 157//2 125//2 156//2
f 107//2 171//2 172//2
f 157//2 124//2 125//2
f 108//2 171//2 107//2
f 158//2 124//2 157//2
f 108//2 170//2 171//2
f 159//2 124//2 158//2
f 108//2 169//2 170//2
f 159//2 123//2 124//2
f 109//2 169//2 108//2
f 160//2 123//2 159//2
f 109//2 168//2 169//2
f 161//2 123//2 160//2
f 109//2 167//2 168//2
f 162//2 123//2 161//2
f 109//2 166//2 167//2
f 162//2 122//2 123//2
f 110//2 166//2 109//2
f 163//2 122//2 162//2
f 110//2 165//2 166//2
f 164//2 122//2 163//2
f 110//2 164//2 165//2
f 110//2 122//2 164//2
f 110//2 121//2 122//2
f 111//2 121//2 110//2
f 111//2 120//2 121//2
f 112//2 120//2 111//2
f 112//2 119//2 120//2
f 113//2 119//2 112//2
f 113//2 118//2 119//2
f 114//2 118//2 113//2
f 114//2 117//2 118//2
f 115//2 117//2 114//2
f 115//2 116//2 117//2
f 103//2 101//2 102//2
f 104//2 101//2 103//2
s 1
f 202//3 204//4 203//4 201//3
f 204//4 206//5 205//5 203//4
f 206//5 208//6 207//6 205//5
f 208//6 210//7 209//7 207//6
f 210//7 212//8 211//8 209//7
f 212//8 214//9 213//9 211//8
f 214//9 216//10 215//10 213//9
f 216//10 218//11 217//11 215//10
f 218//11 220//12 219//12 217//11
f 220//12 222//13 221//13 219//12
f 222//13 224//14 223//14 221//13
f 224//14 226//15 225//15 223//14
f 226//15 228//16 227//16 225//15
f 228//16 230//17 229//17 227//16
f 230//17 232//18 231//18 229//17
f 232//18 234//19 233//19 231//18
f 234//19 236//20 235//20 233//19
f 236//20 238//21 237//21 235//20
f 238//21 240//22 239//22 237//21
f 240//22 242//23 241//23 239//22
f 242//23 244//24 243//24 241//23
f 244//24 246//25 245//25 243//24
f 246//25 248//26 247//26 245//25
f 248//26 250//27 249//27 247//26
f 250//27 252//28 251//28 249//27
f 252//28 254//29 253//29 251//28
f 254//29 256//30 255//30 253//29
f 256//30 258//31 257//31 255//30
f 258//31 260//32 259//32 257//31
f 260//32 262//33 261//33 259//32
f 262//33 264//34 263//34 261//33
f 264//34 266//35 265//35 263//34
f 266//35 268//36 267//36 265//35
f 268//36 270//37 269//37 267//36
f 270//37 272//38 271//38 269//37
f 272//38 274//39 273//39 271//38
f 274//39 276//40 275//40 273//39
f 276//40 278//41 277//41 275//40
f 278//41 280//42 279//42 277//41
f 280//42 282//43 281//43 279//42
f 282//43 284//44 283//44 281//43
f 284//44 286//45 285//45 283//44
f 286//45 288//46 287//46 285//45
f 288//46 290//47 289//47 287//46
f 290//47 292//48 291//48 289//47
f 292//48 294//49 293//49 291//48
f 294//49 296//50 295//50 293//49
f 296//50 202//3 201//3 295//50
f 298//51 300//52 299//52 297//51
f 300//52 302//53 301//53 299//52
f 302//53 304//54 303//54 301//53
f 304//54 306//55 305//55 303//54
f 306//55 308//56 307//56 305//55
f 308//56 310//57 309//57 307//56
f 310//57 312//58 311//58 309//57
f 312//58 314//59 313//59 311//58
f 314//59 316//60 315//60 313//59
f 316//60 318//61 317//61 315//60
f 318//61 320//62 319//62 317//61
f 320//62 322//63 321//63 319//62
f 322//63 324//64 323//64 321//63
f 324//64 326//65 325//65 323//64
f 326//65 328//66 327//66 325//65
f 328//66 330//67 329//67 327//66
f 330//67 332//68 331//68 329//67
f 332//68 334//69 333//69 331//68
f 334//69 336//70 335//70 333//69
f 336//70 338//71 337//71 335//70
f 338//71 340//72 339//72 337//71
f 340//72 342//73 341//73 339//72
f 342//73 344//74 343//74 341//73
f 344//74 346//75 345//75 343//74
f 346//75 348//76 347//76 345//75
f 348//76 350//77 349//77 347//76
f 350//77 352//78 351//78 349//77
f 352//78 354//79 353//79 351//78
f 354//79 356//80 355//80 353//79
f 356//80 358//81 357//81 355//80
f 358//81 360//82 359//82 357//81
f 360//82 362//83 361//83 359//82
f 362//83 364//84 363//84 361//83
f 364//84 366//85 365//85 363//84
f 366//85 368//86 367//86 365//85
f 368//86 370//87 369//87 367//86
f 370//87 372//88 371//88 369//87
f 372//88 374//89 373//89 371//88
f 374//89 376//90 375//90 373//89
f 376//90 378//91 377//91 375//90
f 378//91 380//92 379//92 377//91
f 380//92 382//93 381//93 379//92
f 382//93 384//94 383//94 381//93
f 384//94 386//95 385//95 383//94
f 386//95 388//96 387//96 385//95
f 388//96 390//97 389//97 387//96
f 390//97 392//98 391//98 389//97
f 392//98 298//51 297//51 391//98
f 394//99 396//100 395//100 393//99
f 396//100 398//101 397//101 395//100
f 398//101 400//102 399//102 397//101
f 400//102 394//99 393//99 399//102
