# Blender v2.80 (sub 75) OBJ File: 'comma.blend'
# www.blender.org
mtllib lower_t.mtl
o Text_Text.128
v -0.055118 0.155118 -0.050000
v -0.056955 0.155136 -0.050000
v -0.058886 0.155188 -0.050000
v -0.060912 0.155275 -0.050000
v -0.063032 0.155397 -0.050000
v -0.065246 0.155553 -0.050000
v -0.067555 0.155745 -0.050000
v -0.069959 0.155971 -0.050000
v -0.072457 0.156232 -0.050000
v -0.075049 0.156528 -0.050000
v -0.077736 0.156858 -0.050000
v -0.080517 0.157223 -0.050000
v -0.083393 0.157624 -0.050000
v -0.092699 0.100716 -0.050000
v -0.088205 0.099801 -0.050000
v -0.083791 0.098966 -0.050000
v -0.079456 0.098211 -0.050000
v -0.075201 0.097535 -0.050000
v -0.071025 0.096938 -0.050000
v -0.066929 0.096421 -0.050000
v -0.062913 0.095984 -0.050000
v -0.058976 0.095626 -0.050000
v -0.055118 0.095347 -0.050000
v -0.051340 0.095148 -0.050000
v -0.047642 0.095029 -0.050000
v -0.044023 0.094989 -0.050000
v -0.038286 0.095066 -0.050000
v -0.032769 0.095298 -0.050000
v -0.027470 0.095683 -0.050000
v -0.022389 0.096222 -0.050000
v -0.017528 0.096916 -0.050000
v -0.012885 0.097763 -0.050000
v -0.008461 0.098765 -0.050000
v -0.004255 0.099921 -0.050000
v -0.000268 0.101230 -0.050000
v 0.003500 0.102694 -0.050000
v 0.007049 0.104312 -0.050000
v 0.010379 0.106085 -0.050000
v 0.013521 0.107982 -0.050000
v 0.016504 0.109977 -0.050000
v 0.019327 0.112068 -0.050000
v 0.021992 0.114257 -0.050000
v 0.024497 0.116542 -0.050000
v 0.026843 0.118925 -0.050000
v 0.029030 0.121404 -0.050000
v 0.031059 0.123980 -0.050000
v 0.032928 0.126653 -0.050000
v 0.034638 0.129423 -0.050000
v 0.036189 0.132290 -0.050000
v 0.037581 0.135254 -0.050000
v 0.038838 0.138544 -0.050000
v 0.039986 0.142388 -0.050000
v 0.041025 0.146786 -0.050000
v 0.041955 0.151738 -0.050000
v 0.042775 0.157245 -0.050000
v 0.043486 0.163305 -0.050000
v 0.044088 0.169921 -0.050000
v 0.044580 0.177090 -0.050000
v 0.044962 0.184814 -0.050000
v 0.045236 0.193091 -0.050000
v 0.045400 0.201924 -0.050000
v 0.045455 0.211310 -0.050000
v 0.045455 0.429993 -0.050000
v 0.092699 0.429993 -0.050000
v 0.092699 0.480100 -0.050000
v 0.045455 0.480100 -0.050000
v 0.045455 0.574231 -0.050000
v -0.018611 0.612885 -0.050000
v -0.018611 0.480100 -0.050000
v -0.083393 0.480100 -0.050000
v -0.083393 0.429993 -0.050000
v -0.018611 0.429993 -0.050000
v -0.018611 0.207731 -0.050000
v -0.018635 0.203274 -0.050000
v -0.018706 0.199091 -0.050000
v -0.018824 0.195182 -0.050000
v -0.018989 0.191545 -0.050000
v -0.019202 0.188183 -0.050000
v -0.019461 0.185093 -0.050000
v -0.019768 0.182277 -0.050000
v -0.020122 0.179734 -0.050000
v -0.020524 0.177465 -0.050000
v -0.020973 0.175469 -0.050000
v -0.021468 0.173747 -0.050000
v -0.022011 0.172298 -0.050000
v -0.022608 0.171008 -0.050000
v -0.023264 0.169763 -0.050000
v -0.023980 0.168562 -0.050000
v -0.024755 0.167406 -0.050000
v -0.025591 0.166295 -0.050000
v -0.026485 0.165229 -0.050000
v -0.027440 0.164208 -0.050000
v -0.028454 0.163231 -0.050000
v -0.029528 0.162299 -0.050000
v -0.030661 0.161411 -0.050000
v -0.031854 0.160569 -0.050000
v -0.033107 0.159771 -0.050000
v -0.034435 0.159028 -0.050000
v -0.035856 0.158349 -0.050000
v -0.037368 0.157735 -0.050000
v -0.038972 0.157186 -0.050000
v -0.040669 0.156701 -0.050000
v -0.042457 0.156281 -0.050000
v -0.044337 0.155926 -0.050000
v -0.046310 0.155635 -0.050000
v -0.048374 0.155409 -0.050000
v -0.050530 0.155247 -0.050000
v -0.052778 0.155151 -0.050000
v -0.055118 0.155118 0.050000
v -0.056955 0.155136 0.050000
v -0.058886 0.155188 0.050000
v -0.060912 0.155275 0.050000
v -0.063032 0.155397 0.050000
v -0.065246 0.155553 0.050000
v -0.067555 0.155745 0.050000
v -0.069959 0.155971 0.050000
v -0.072457 0.156232 0.050000
v -0.075049 0.156528 0.050000
v -0.077736 0.156858 0.050000
v -0.080517 0.157223 0.050000
v -0.083393 0.157624 0.050000
v -0.092699 0.100716 0.050000
v -0.088205 0.099801 0.050000
v -0.083791 0.098966 0.050000
v -0.079456 0.098211 0.050000
v -0.075201 0.097535 0.050000
v -0.071025 0.096938 0.050000
v -0.066929 0.096421 0.050000
v -0.062913 0.095984 0.050000
v -0.058976 0.095626 0.050000
v -0.055118 0.095347 0.050000
v -0.051340 0.095148 0.050000
v -0.047642 0.095029 0.050000
v -0.044023 0.094989 0.050000
v -0.038286 0.095066 0.050000
v -0.032769 0.095298 0.050000
v -0.027470 0.095683 0.050000
v -0.022389 0.096222 0.050000
v -0.017528 0.096916 0.050000
v -0.012885 0.097763 0.050000
v -0.008461 0.098765 0.050000
v -0.004255 0.099921 0.050000
v -0.000268 0.101230 0.050000
v 0.003500 0.102694 0.050000
v 0.007049 0.104312 0.050000
v 0.010379 0.106085 0.050000
v 0.013521 0.107982 0.050000
v 0.016504 0.109977 0.050000
v 0.019327 0.112068 0.050000
v 0.021992 0.114257 0.050000
v 0.024497 0.116542 0.050000
v 0.026843 0.118925 0.050000
v 0.029030 0.121404 0.050000
v 0.031059 0.123980 0.050000
v 0.032928 0.126653 0.050000
v 0.034638 0.129423 0.050000
v 0.036189 0.132290 0.050000
v 0.037581 0.135254 0.050000
v 0.038838 0.138544 0.050000
v 0.039986 0.142388 0.050000
v 0.041025 0.146786 0.050000
v 0.041955 0.151738 0.050000
v 0.042775 0.157245 0.050000
v 0.043486 0.163305 0.050000
v 0.044088 0.169921 0.050000
v 0.044580 0.177090 0.050000
v 0.044962 0.184814 0.050000
v 0.045236 0.193091 0.050000
v 0.045400 0.201924 0.050000
v 0.045455 0.211310 0.050000
v 0.045455 0.429993 0.050000
v 0.092699 0.429993 0.050000
v 0.092699 0.480100 0.050000
v 0.045455 0.480100 0.050000
v 0.045455 0.574231 0.050000
v -0.018611 0.612885 0.050000
v -0.018611 0.480100 0.050000
v -0.083393 0.480100 0.050000
v -0.083393 0.429993 0.050000
v -0.018611 0.429993 0.050000
v -0.018611 0.207731 0.050000
v -0.018635 0.203274 0.050000
v -0.018706 0.199091 0.050000
v -0.018824 0.195182 0.050000
v -0.018989 0.191545 0.050000
v -0.019202 0.188183 0.050000
v -0.019461 0.185093 0.050000
v -0.019768 0.182277 0.050000
v -0.020122 0.179734 0.050000
v -0.020524 0.177465 0.050000
v -0.020973 0.175469 0.050000
v -0.021468 0.173747 0.050000
v -0.022011 0.172298 0.050000
v -0.022608 0.171008 0.050000
v -0.023264 0.169763 0.050000
v -0.023980 0.168562 0.050000
v -0.024755 0.167406 0.050000
v -0.025591 0.166295 0.050000
v -0.026485 0.165229 0.050000
v -0.027440 0.164208 0.050000
v -0.028454 0.163231 0.050000
v -0.029528 0.162299 0.050000
v -0.030661 0.161411 0.050000
v -0.031854 0.160569 0.050000
v -0.033107 0.159771 0.050000
v -0.034435 0.159028 0.050000
v -0.035856 0.158349 0.050000
v -0.037368 0.157735 0.050000
v -0.038972 0.157186 0.050000
v -0.040669 0.156701 0.050000
v -0.042457 0.156281 0.050000
v -0.044337 0.155926 0.050000
v -0.046310 0.155635 0.050000
v -0.048374 0.155409 0.050000
v -0.050530 0.155247 0.050000
v -0.052778 0.155151 0.050000
v -0.055118 0.155118 0.050000
v -0.055118 0.155118 -0.050000
v -0.056955 0.155136 0.050000
v -0.056955 0.155136 -0.050000
v -0.058886 0.155188 0.050000
v -0.058886 0.155188 -0.050000
v -0.060912 0.155275 0.050000
v -0.060912 0.155275 -0.050000
v -0.063032 0.155397 0.050000
v -0.063032 0.155397 -0.050000
v -0.065246 0.155553 0.050000
v -0.065246 0.155553 -0.050000
v -0.067555 0.155745 0.050000
v -0.067555 0.155745 -0.050000
v -0.069959 0.155971 0.050000
v -0.069959 0.155971 -0.050000
v -0.072457 0.156232 0.050000
v -0.072457 0.156232 -0.050000
v -0.075049 0.156528 0.050000
v -0.075049 0.156528 -0.050000
v -0.077736 0.156858 0.050000
v -0.077736 0.156858 -0.050000
v -0.080517 0.157223 0.050000
v -0.080517 0.157223 -0.050000
v -0.083393 0.157624 0.050000
v -0.083393 0.157624 -0.050000
v -0.092699 0.100716 0.050000
v -0.092699 0.100716 -0.050000
v -0.088205 0.099801 0.050000
v -0.088205 0.099801 -0.050000
v -0.083791 0.098966 0.050000
v -0.083791 0.098966 -0.050000
v -0.079456 0.098211 0.050000
v -0.079456 0.098211 -0.050000
v -0.075201 0.097535 0.050000
v -0.075201 0.097535 -0.050000
v -0.071025 0.096938 0.050000
v -0.071025 0.096938 -0.050000
v -0.066929 0.096421 0.050000
v -0.066929 0.096421 -0.050000
v -0.062913 0.095984 0.050000
v -0.062913 0.095984 -0.050000
v -0.058976 0.095626 0.050000
v -0.058976 0.095626 -0.050000
v -0.055118 0.095347 0.050000
v -0.055118 0.095347 -0.050000
v -0.051340 0.095148 0.050000
v -0.051340 0.095148 -0.050000
v -0.047642 0.095029 0.050000
v -0.047642 0.095029 -0.050000
v -0.044023 0.094989 0.050000
v -0.044023 0.094989 -0.050000
v -0.038286 0.095066 0.050000
v -0.038286 0.095066 -0.050000
v -0.032769 0.095298 0.050000
v -0.032769 0.095298 -0.050000
v -0.027470 0.095683 0.050000
v -0.027470 0.095683 -0.050000
v -0.022389 0.096222 0.050000
v -0.022389 0.096222 -0.050000
v -0.017528 0.096916 0.050000
v -0.017528 0.096916 -0.050000
v -0.012885 0.097763 0.050000
v -0.012885 0.097763 -0.050000
v -0.008461 0.098765 0.050000
v -0.008461 0.098765 -0.050000
v -0.004255 0.099921 0.050000
v -0.004255 0.099921 -0.050000
v -0.000268 0.101230 0.050000
v -0.000268 0.101230 -0.050000
v 0.003500 0.102694 0.050000
v 0.003500 0.102694 -0.050000
v 0.007049 0.104312 0.050000
v 0.007049 0.104312 -0.050000
v 0.010379 0.106085 0.050000
v 0.010379 0.106085 -0.050000
v 0.013521 0.107982 0.050000
v 0.013521 0.107982 -0.050000
v 0.016504 0.109977 0.050000
v 0.016504 0.109977 -0.050000
v 0.019327 0.112068 0.050000
v 0.019327 0.112068 -0.050000
v 0.021992 0.114257 0.050000
v 0.021992 0.114257 -0.050000
v 0.024497 0.116542 0.050000
v 0.024497 0.116542 -0.050000
v 0.026843 0.118925 0.050000
v 0.026843 0.118925 -0.050000
v 0.029030 0.121404 0.050000
v 0.029030 0.121404 -0.050000
v 0.031059 0.123980 0.050000
v 0.031059 0.123980 -0.050000
v 0.032928 0.126653 0.050000
v 0.032928 0.126653 -0.050000
v 0.034638 0.129423 0.050000
v 0.034638 0.129423 -0.050000
v 0.036189 0.132290 0.050000
v 0.036189 0.132290 -0.050000
v 0.037581 0.135254 0.050000
v 0.037581 0.135254 -0.050000
v 0.038838 0.138544 0.050000
v 0.038838 0.138544 -0.050000
v 0.039986 0.142388 0.050000
v 0.039986 0.142388 -0.050000
v 0.041025 0.146786 0.050000
v 0.041025 0.146786 -0.050000
v 0.041955 0.151738 0.050000
v 0.041955 0.151738 -0.050000
v 0.042775 0.157245 0.050000
v 0.042775 0.157245 -0.050000
v 0.043486 0.163305 0.050000
v 0.043486 0.163305 -0.050000
v 0.044088 0.169921 0.050000
v 0.044088 0.169921 -0.050000
v 0.044580 0.177090 0.050000
v 0.044580 0.177090 -0.050000
v 0.044962 0.184814 0.050000
v 0.044962 0.184814 -0.050000
v 0.045236 0.193091 0.050000
v 0.045236 0.193091 -0.050000
v 0.045400 0.201924 0.050000
v 0.045400 0.201924 -0.050000
v 0.045455 0.211310 0.050000
v 0.045455 0.211310 -0.050000
v 0.045455 0.429993 0.050000
v 0.045455 0.429993 -0.050000
v 0.092699 0.429993 0.050000
v 0.092699 0.429993 -0.050000
v 0.092699 0.480100 0.050000
v 0.092699 0.480100 -0.050000
v 0.045455 0.480100 0.050000
v 0.045455 0.480100 -0.050000
v 0.045455 0.574231 0.050000
v 0.045455 0.574231 -0.050000
v -0.018611 0.612885 0.050000
v -0.018611 0.612885 -0.050000
v -0.018611 0.480100 0.050000
v -0.018611 0.480100 -0.050000
v -0.083393 0.480100 0.050000
v -0.083393 0.480100 -0.050000
v -0.083393 0.429993 0.050000
v -0.083393 0.429993 -0.050000
v -0.018611 0.429993 0.050000
v -0.018611 0.429993 -0.050000
v -0.018611 0.207731 0.050000
v -0.018611 0.207731 -0.050000
v -0.018635 0.203274 0.050000
v -0.018635 0.203274 -0.050000
v -0.018706 0.199091 0.050000
v -0.018706 0.199091 -0.050000
v -0.018824 0.195182 0.050000
v -0.018824 0.195182 -0.050000
v -0.018989 0.191545 0.050000
v -0.018989 0.191545 -0.050000
v -0.019202 0.188183 0.050000
v -0.019202 0.188183 -0.050000
v -0.019461 0.185093 0.050000
v -0.019461 0.185093 -0.050000
v -0.019768 0.182277 0.050000
v -0.019768 0.182277 -0.050000
v -0.020122 0.179734 0.050000
v -0.020122 0.179734 -0.050000
v -0.020524 0.177465 0.050000
v -0.020524 0.177465 -0.050000
v -0.020973 0.175469 0.050000
v -0.020973 0.175469 -0.050000
v -0.021468 0.173747 0.050000
v -0.021468 0.173747 -0.050000
v -0.022011 0.172298 0.050000
v -0.022011 0.172298 -0.050000
v -0.022608 0.171008 0.050000
v -0.022608 0.171008 -0.050000
v -0.023264 0.169763 0.050000
v -0.023264 0.169763 -0.050000
v -0.023980 0.168562 0.050000
v -0.023980 0.168562 -0.050000
v -0.024755 0.167406 0.050000
v -0.024755 0.167406 -0.050000
v -0.025591 0.166295 0.050000
v -0.025591 0.166295 -0.050000
v -0.026485 0.165229 0.050000
v -0.026485 0.165229 -0.050000
v -0.027440 0.164208 0.050000
v -0.027440 0.164208 -0.050000
v -0.028454 0.163231 0.050000
v -0.028454 0.163231 -0.050000
v -0.029528 0.162299 0.050000
v -0.029528 0.162299 -0.050000
v -0.030661 0.161411 0.050000
v -0.030661 0.161411 -0.050000
v -0.031854 0.160569 0.050000
v -0.031854 0.160569 -0.050000
v -0.033107 0.159771 0.050000
v -0.033107 0.159771 -0.050000
v -0.034435 0.159028 0.050000
v -0.034435 0.159028 -0.050000
v -0.035856 0.158349 0.050000
v -0.035856 0.158349 -0.050000
v -0.037368 0.157735 0.050000
v -0.037368 0.157735 -0.050000
v -0.038972 0.157186 0.050000
v -0.038972 0.157186 -0.050000
v -0.040669 0.156701 0.050000
v -0.040669 0.156701 -0.050000
v -0.042457 0.156281 0.050000
v -0.042457 0.156281 -0.050000
v -0.044337 0.155926 0.050000
v -0.044337 0.155926 -0.050000
v -0.046310 0.155635 0.050000
v -0.046310 0.155635 -0.050000
v -0.048374 0.155409 0.050000
v -0.048374 0.155409 -0.050000
v -0.050530 0.155247 0.050000
v -0.050530 0.155247 -0.050000
v -0.052778 0.155151 0.050000
v -0.052778 0.155151 -0.050000
vn 0.0000 -0.0000 -1.0000
vn 0.0000 0.0000 1.0000
vn -0.0022 1.0000 0.0000
vn 0.0182 0.9998 0.0000
vn 0.0350 0.9994 0.0000
vn 0.0501 0.9987 0.0000
vn 0.0639 0.9980 0.0000
vn 0.0766 0.9971 0.0000
vn 0.0881 0.9961 0.0000
vn 0.0988 0.9951 0.0000
vn 0.1086 0.9941 0.0000
vn 0.1177 0.9930 0.0000
vn 0.1262 0.9920 0.0000
vn 0.1340 0.9910 0.0000
vn -0.5934 0.8049 0.0000
vn -0.8231 -0.5679 0.0000
vn -0.1927 -0.9813 0.0000
vn -0.1788 -0.9839 0.0000
vn -0.1643 -0.9864 0.0000
vn -0.1492 -0.9888 0.0000
vn -0.1333 -0.9911 0.0000
vn -0.1167 -0.9932 0.0000
vn -0.0994 -0.9950 0.0000
vn -0.0813 -0.9967 0.0000
vn -0.0623 -0.9981 0.0000
vn -0.0424 -0.9991 0.0000
vn -0.0216 -0.9998 0.0000
vn 0.0012 -1.0000 0.0000
vn 0.0276 -0.9996 0.0000
vn 0.0572 -0.9984 0.0000
vn 0.0891 -0.9960 0.0000
vn 0.1234 -0.9924 0.0000
vn 0.1604 -0.9870 0.0000
vn 0.2002 -0.9797 0.0000
vn 0.2430 -0.9700 0.0000
vn 0.2887 -0.9574 0.0000
vn 0.3373 -0.9414 0.0000
vn 0.3886 -0.9214 0.0000
vn 0.4425 -0.8968 0.0000
vn 0.4936 -0.8697 0.0000
vn 0.5366 -0.8438 0.0000
vn 0.5757 -0.8176 0.0000
vn 0.6152 -0.7884 0.0000
vn 0.6545 -0.7560 0.0000
vn 0.6935 -0.7205 0.0000
vn 0.7315 -0.6819 0.0000
vn 0.7681 -0.6403 0.0000
vn 0.8030 -0.5960 0.0000
vn 0.8356 -0.5494 0.0000
vn 0.8656 -0.5008 0.0000
vn 0.8927 -0.4506 0.0000
vn 0.9202 -0.3914 0.0000
vn 0.9468 -0.3219 0.0000
vn 0.9661 -0.2582 0.0000
vn 0.9783 -0.2072 0.0000
vn 0.9861 -0.1659 0.0000
vn 0.9913 -0.1319 0.0000
vn 0.9946 -0.1035 0.0000
vn 0.9968 -0.0795 0.0000
vn 0.9983 -0.0590 0.0000
vn 0.9991 -0.0413 0.0000
vn 0.9997 -0.0258 0.0000
vn 0.9999 -0.0122 0.0000
vn 1.0000 -0.0029 0.0000
vn 0.7071 -0.7071 0.0000
vn 0.7071 0.7071 0.0000
vn 0.8708 0.4916 0.0000
vn -0.4916 0.8708 0.0000
vn -0.7071 0.7071 0.0000
vn -0.7071 -0.7071 0.0000
vn -1.0000 0.0026 0.0000
vn -0.9999 0.0111 0.0000
vn -0.9997 0.0236 0.0000
vn -0.9993 0.0378 0.0000
vn -0.9985 0.0542 0.0000
vn -0.9973 0.0734 0.0000
vn -0.9954 0.0961 0.0000
vn -0.9924 0.1232 0.0000
vn -0.9877 0.1561 0.0000
vn -0.9804 0.1968 0.0000
vn -0.9687 0.2481 0.0000
vn -0.9494 0.3140 0.0000
vn -0.9227 0.3856 0.0000
vn -0.8965 0.4431 0.0000
vn -0.8721 0.4893 0.0000
vn -0.8449 0.5348 0.0000
vn -0.8152 0.5792 0.0000
vn -0.7830 0.6221 0.0000
vn -0.7486 0.6630 0.0000
vn -0.7125 0.7017 0.0000
vn -0.6749 0.7379 0.0000
vn -0.6362 0.7715 0.0000
vn -0.5968 0.8024 0.0000
vn -0.5572 0.8304 0.0000
vn -0.5129 0.8584 0.0000
vn -0.4599 0.8880 0.0000
vn -0.4038 0.9149 0.0000
vn -0.3501 0.9367 0.0000
vn -0.2994 0.9541 0.0000
vn -0.2518 0.9678 0.0000
vn -0.2073 0.9783 0.0000
vn -0.1658 0.9862 0.0000
vn -0.1274 0.9918 0.0000
vn -0.0918 0.9958 0.0000
vn -0.0589 0.9983 0.0000
vn -0.0284 0.9996 0.0000
usemtl None
s 1
f 67//1 69//1 68//1
f 66//1 69//1 67//1
f 64//1 66//1 65//1
f 64//1 69//1 66//1
f 64//1 70//1 69//1
f 64//1 71//1 70//1
f 63//2 71//2 64//2
f 62//1 72//1 63//1
f 72//1 71//1 63//1
f 62//1 73//1 72//1
f 61//1 73//1 62//1
f 61//1 74//1 73//1
f 61//1 75//1 74//1
f 60//1 75//1 61//1
f 60//1 76//1 75//1
f 60//1 77//1 76//1
f 59//1 77//1 60//1
f 59//1 78//1 77//1
f 59//1 79//1 78//1
f 59//1 80//1 79//1
f 58//1 80//1 59//1
f 58//1 81//1 80//1
f 58//1 82//1 81//1
f 58//1 83//1 82//1
f 57//1 83//1 58//1
f 57//1 84//1 83//1
f 57//1 85//1 84//1
f 57//1 86//1 85//1
f 57//1 87//1 86//1
f 56//1 87//1 57//1
f 56//1 88//1 87//1
f 56//1 89//1 88//1
f 56//1 90//1 89//1
f 56//1 91//1 90//1
f 56//1 92//1 91//1
f 56//1 93//1 92//1
f 55//1 93//1 56//1
f 55//1 94//1 93//1
f 55//1 95//1 94//1
f 55//1 96//1 95//1
f 55//1 97//1 96//1
f 55//1 98//1 97//1
f 55//1 99//1 98//1
f 55//1 100//1 99//1
f 55//1 101//1 100//1
f 12//1 14//1 13//1
f 54//1 101//1 55//1
f 11//1 14//1 12//1
f 54//1 102//1 101//1
f 10//1 14//1 11//1
f 54//1 103//1 102//1
f 9//1 14//1 10//1
f 54//1 104//1 103//1
f 8//1 14//1 9//1
f 7//1 14//1 8//1
f 54//1 105//1 104//1
f 6//1 14//1 7//1
f 54//1 106//1 105//1
f 5//1 14//1 6//1
f 54//1 107//1 106//1
f 4//1 14//1 5//1
f 3//1 14//1 4//1
f 54//1 108//1 107//1
f 2//1 14//1 3//1
f 54//1 1//1 108//1
f 1//1 14//1 2//1
f 54//1 14//1 1//1
f 53//1 14//1 54//1
f 52//1 14//1 53//1
f 51//1 14//1 52//1
f 50//1 14//1 51//1
f 49//1 14//1 50//1
f 48//1 14//1 49//1
f 47//1 14//1 48//1
f 46//1 14//1 47//1
f 45//1 14//1 46//1
f 44//1 14//1 45//1
f 43//1 14//1 44//1
f 42//1 14//1 43//1
f 41//1 14//1 42//1
f 40//1 14//1 41//1
f 39//1 14//1 40//1
f 38//1 14//1 39//1
f 37//1 14//1 38//1
f 36//1 14//1 37//1
f 35//1 14//1 36//1
f 34//1 14//1 35//1
f 34//1 15//1 14//1
f 33//1 15//1 34//1
f 33//1 16//1 15//1
f 33//1 17//1 16//1
f 32//1 17//1 33//1
f 32//1 18//1 17//1
f 31//1 18//1 32//1
f 31//1 19//1 18//1
f 31//1 20//1 19//1
f 30//1 20//1 31//1
f 30//1 21//1 20//1
f 29//1 21//1 30//1
f 29//1 22//1 21//1
f 28//1 22//1 29//1
f 28//1 23//1 22//1
f 28//1 24//1 23//1
f 27//1 24//1 28//1
f 27//1 25//1 24//1
f 26//1 25//1 27//1
f 177//2 175//2 176//2
f 177//2 174//2 175//2
f 174//2 172//2 173//2
f 177//2 172//2 174//2
f 178//2 172//2 177//2
f 179//2 172//2 178//2
f 179//1 171//1 172//1
f 180//2 170//2 171//2
f 179//2 180//2 171//2
f 181//2 170//2 180//2
f 181//2 169//2 170//2
f 182//2 169//2 181//2
f 183//2 169//2 182//2
f 183//2 168//2 169//2
f 184//2 168//2 183//2
f 185//2 168//2 184//2
f 185//2 167//2 168//2
f 186//2 167//2 185//2
f 187//2 167//2 186//2
f 188//2 167//2 187//2
f 188//2 166//2 167//2
f 189//2 166//2 188//2
f 190//2 166//2 189//2
f 191//2 166//2 190//2
f 191//2 165//2 166//2
f 192//2 165//2 191//2
f 193//2 165//2 192//2
f 194//2 165//2 193//2
f 195//2 165//2 194//2
f 195//2 164//2 165//2
f 196//2 164//2 195//2
f 197//2 164//2 196//2
f 198//2 164//2 197//2
f 199//2 164//2 198//2
f 200//2 164//2 199//2
f 201//2 164//2 200//2
f 201//2 163//2 164//2
f 202//2 163//2 201//2
f 203//2 163//2 202//2
f 204//2 163//2 203//2
f 205//2 163//2 204//2
f 206//2 163//2 205//2
f 207//2 163//2 206//2
f 208//2 163//2 207//2
f 209//2 163//2 208//2
f 122//2 120//2 121//2
f 209//2 162//2 163//2
f 122//2 119//2 120//2
f 210//2 162//2 209//2
f 122//2 118//2 119//2
f 211//2 162//2 210//2
f 122//2 117//2 118//2
f 212//2 162//2 211//2
f 122//2 116//2 117//2
f 122//2 115//2 116//2
f 213//2 162//2 212//2
f 122//2 114//2 115//2
f 214//2 162//2 213//2
f 122//2 113//2 114//2
f 215//2 162//2 214//2
f 122//2 112//2 113//2
f 122//2 111//2 112//2
f 216//2 162//2 215//2
f 122//2 110//2 111//2
f 109//2 162//2 216//2
f 122//2 109//2 110//2
f 122//2 162//2 109//2
f 122//2 161//2 162//2
f 122//2 160//2 161//2
f 122//2 159//2 160//2
f 122//2 158//2 159//2
f 122//2 157//2 158//2
f 122//2 156//2 157//2
f 122//2 155//2 156//2
f 122//2 154//2 155//2
f 122//2 153//2 154//2
f 122//2 152//2 153//2
f 122//2 151//2 152//2
f 122//2 150//2 151//2
f 122//2 149//2 150//2
f 122//2 148//2 149//2
f 122//2 147//2 148//2
f 122//2 146//2 147//2
f 122//2 145//2 146//2
f 122//2 144//2 145//2
f 122//2 143//2 144//2
f 122//2 142//2 143//2
f 123//2 142//2 122//2
f 123//2 141//2 142//2
f 124//2 141//2 123//2
f 125//2 141//2 124//2
f 125//2 140//2 141//2
f 126//2 140//2 125//2
f 126//2 139//2 140//2
f 127//2 139//2 126//2
f 128//2 139//2 127//2
f 128//2 138//2 139//2
f 129//2 138//2 128//2
f 129//2 137//2 138//2
f 130//2 137//2 129//2
f 130//2 136//2 137//2
f 131//2 136//2 130//2
f 132//2 136//2 131//2
f 132//2 135//2 136//2
f 133//2 135//2 132//2
f 133//2 134//2 135//2
f 218//3 220//4 219//4 217//3
f 220//4 222//5 221//5 219//4
f 222//5 224//6 223//6 221//5
f 224//6 226//7 225//7 223//6
f 226//7 228//8 227//8 225//7
f 228//8 230//9 229//9 227//8
f 230//9 232//10 231//10 229//9
f 232//10 234//11 233//11 231//10
f 234//11 236//12 235//12 233//11
f 236//12 238//13 237//13 235//12
f 238//13 240//14 239//14 237//13
f 240//14 242//15 241//15 239//14
f 242//15 244//16 243//16 241//15
f 244//16 246//17 245//17 243//16
f 246//17 248//18 247//18 245//17
f 248//18 250//19 249//19 247//18
f 250//19 252//20 251//20 249//19
f 252//20 254//21 253//21 251//20
f 254//21 256//22 255//22 253//21
f 256//22 258//23 257//23 255//22
f 258//23 260//24 259//24 257//23
f 260//24 262//25 261//25 259//24
f 262//25 264//26 263//26 261//25
f 264//26 266//27 265//27 263//26
f 266//27 268//28 267//28 265//27
f 268//28 270//29 269//29 267//28
f 270//29 272//30 271//30 269//29
f 272//30 274//31 273//31 271//30
f 274//31 276//32 275//32 273//31
f 276//32 278//33 277//33 275//32
f 278//33 280//34 279//34 277//33
f 280//34 282//35 281//35 279//34
f 282//35 284//36 283//36 281//35
f 284//36 286//37 285//37 283//36
f 286//37 288//38 287//38 285//37
f 288//38 290//39 289//39 287//38
f 290//39 292//40 291//40 289//39
f 292//40 294//41 293//41 291//40
f 294//41 296//42 295//42 293//41
f 296//42 298//43 297//43 295//42
f 298//43 300//44 299//44 297//43
f 300//44 302//45 301//45 299//44
f 302//45 304//46 303//46 301//45
f 304//46 306//47 305//47 303//46
f 306//47 308//48 307//48 305//47
f 308//48 310//49 309//49 307//48
f 310//49 312//50 311//50 309//49
f 312//50 314//51 313//51 311//50
f 314//51 316//52 315//52 313//51
f 316//52 318//53 317//53 315//52
f 318//53 320//54 319//54 317//53
f 320//54 322//55 321//55 319//54
f 322//55 324//56 323//56 321//55
f 324//56 326//57 325//57 323//56
f 326//57 328//58 327//58 325//57
f 328//58 330//59 329//59 327//58
f 330//59 332//60 331//60 329//59
f 332//60 334//61 333//61 331//60
f 334//61 336//62 335//62 333//61
f 336//62 338//63 337//63 335//62
f 338//63 340//64 339//64 337//63
f 340//64 342//65 341//65 339//64
f 342//65 344//65 343//65 341//65
f 344//65 346//66 345//66 343//65
f 346//66 348//66 347//66 345//66
f 348//66 350//67 349//67 347//66
f 350//67 352//68 351//68 349//67
f 352//68 354//69 353//69 351//68
f 354//69 356//69 355//69 353//69
f 356//69 358//70 357//70 355//69
f 358//70 360//70 359//70 357//70
f 360//70 362//71 361//71 359//70
f 362//71 364//72 363//72 361//71
f 364//72 366//73 365//73 363//72
f 366//73 368//74 367//74 365//73
f 368//74 370//75 369//75 367//74
f 370//75 372//76 371//76 369//75
f 372//76 374//77 373//77 371//76
f 374//77 376//78 375//78 373//77
f 376//78 378//79 377//79 375//78
f 378//79 380//80 379//80 377//79
f 380//80 382//81 381//81 379//80
f 382//81 384//82 383//82 381//81
f 384//82 386//83 385//83 383//82
f 386//83 388//84 387//84 385//83
f 388//84 390//85 389//85 387//84
f 390//85 392//86 391//86 389//85
f 392//86 394//87 393//87 391//86
f 394//87 396//88 395//88 393//87
f 396//88 398//89 397//89 395//88
f 398//89 400//90 399//90 397//89
f 400//90 402//91 401//91 399//90
f 402//91 404//92 403//92 401//91
f 404//92 406//93 405//93 403//92
f 406//93 408//94 407//94 405//93
f 408//94 410//95 409//95 407//94
f 410//95 412//96 411//96 409//95
f 412//96 414//97 413//97 411//96
f 414//97 416//98 415//98 413//97
f 416//98 418//99 417//99 415//98
f 418//99 420//100 419//100 417//99
f 420//100 422//101 421//101 419//100
f 422//101 424//102 423//102 421//101
f 424//102 426//103 425//103 423//102
f 426//103 428//104 427//104 425//103
f 428//104 430//105 429//105 427//104
f 430//105 432//106 431//106 429//105
f 432//106 218//3 217//3 431//106
