# Blender v2.80 (sub 75) OBJ File: 'comma.blend'
# www.blender.org
mtllib lower_i_acute.mtl
o Text_Text.094
v -0.001611 0.100000 -0.050000
v 0.062813 0.100000 -0.050000
v 0.062813 0.480100 -0.050000
v -0.001611 0.480100 -0.050000
v 0.012706 0.527344 -0.050000
v 0.066034 0.527344 -0.050000
v 0.018432 0.627559 -0.050000
v -0.066034 0.627559 -0.050000
v -0.001611 0.100000 0.050000
v 0.062813 0.100000 0.050000
v 0.062813 0.480100 0.050000
v -0.001611 0.480100 0.050000
v 0.012706 0.527344 0.050000
v 0.066034 0.527344 0.050000
v 0.018432 0.627559 0.050000
v -0.066034 0.627559 0.050000
v -0.001611 0.100000 0.050000
v -0.001611 0.100000 -0.050000
v 0.062813 0.100000 0.050000
v 0.062813 0.100000 -0.050000
v 0.062813 0.480100 0.050000
v 0.062813 0.480100 -0.050000
v -0.001611 0.480100 0.050000
v -0.001611 0.480100 -0.050000
v 0.012706 0.527344 0.050000
v 0.012706 0.527344 -0.050000
v 0.066034 0.527344 0.050000
v 0.066034 0.527344 -0.050000
v 0.018432 0.627559 0.050000
v 0.018432 0.627559 -0.050000
v -0.066034 0.627559 0.050000
v -0.066034 0.627559 -0.050000
vn 0.0000 -0.0000 -1.0000
vn 0.0000 0.0000 1.0000
vn -0.7071 -0.7071 0.0000
vn 0.7071 -0.7071 0.0000
vn 0.7071 0.7071 0.0000
vn -0.7071 0.7071 0.0000
vn -0.4371 -0.8994 0.0000
vn 0.8453 -0.5343 0.0000
vn 0.5343 0.8453 0.0000
vn -0.8994 0.4371 0.0000
usemtl None
s 1
f 6//1 8//1 7//1
f 6//1 5//1 8//1
f 2//1 4//1 3//1
f 2//1 1//1 4//1
f 16//2 14//2 15//2
f 13//2 14//2 16//2
f 12//2 10//2 11//2
f 9//2 10//2 12//2
f 18//3 20//4 19//4 17//3
f 20//4 22//5 21//5 19//4
f 22//5 24//6 23//6 21//5
f 24//6 18//3 17//3 23//6
f 26//7 28//8 27//8 25//7
f 28//8 30//9 29//9 27//8
f 30//9 32//10 31//10 29//9
f 32//10 26//7 25//7 31//10
