# Blender v2.80 (sub 75) OBJ File: 'comma.blend'
# www.blender.org
mtllib lower_z.mtl
o Text_Text.144
v -0.168218 0.100000 -0.050000
v 0.168218 0.100000 -0.050000
v 0.168218 0.152255 -0.050000
v -0.073729 0.429993 -0.050000
v -0.066937 0.429650 -0.050000
v -0.060278 0.429337 -0.050000
v -0.053754 0.429053 -0.050000
v -0.047363 0.428800 -0.050000
v -0.041107 0.428576 -0.050000
v -0.034986 0.428382 -0.050000
v -0.028998 0.428218 -0.050000
v -0.023145 0.428084 -0.050000
v -0.017426 0.427980 -0.050000
v -0.011841 0.427905 -0.050000
v -0.006390 0.427860 -0.050000
v -0.001074 0.427845 -0.050000
v 0.153901 0.427845 -0.050000
v 0.153901 0.480100 -0.050000
v -0.156764 0.480100 -0.050000
v -0.156764 0.437509 -0.050000
v 0.049034 0.196278 -0.050000
v 0.088762 0.152255 -0.050000
v 0.081581 0.152769 -0.050000
v 0.074475 0.153239 -0.050000
v 0.067444 0.153664 -0.050000
v 0.060487 0.154044 -0.050000
v 0.053604 0.154380 -0.050000
v 0.046797 0.154671 -0.050000
v 0.040064 0.154917 -0.050000
v 0.033405 0.155118 -0.050000
v 0.026821 0.155275 -0.050000
v 0.020311 0.155387 -0.050000
v 0.013876 0.155454 -0.050000
v 0.007516 0.155476 -0.050000
v -0.168218 0.155476 -0.050000
v -0.168218 0.100000 0.050000
v 0.168218 0.100000 0.050000
v 0.168218 0.152255 0.050000
v -0.073729 0.429993 0.050000
v -0.066937 0.429650 0.050000
v -0.060278 0.429337 0.050000
v -0.053754 0.429053 0.050000
v -0.047363 0.428800 0.050000
v -0.041107 0.428576 0.050000
v -0.034986 0.428382 0.050000
v -0.028998 0.428218 0.050000
v -0.023145 0.428084 0.050000
v -0.017426 0.427980 0.050000
v -0.011841 0.427905 0.050000
v -0.006390 0.427860 0.050000
v -0.001074 0.427845 0.050000
v 0.153901 0.427845 0.050000
v 0.153901 0.480100 0.050000
v -0.156764 0.480100 0.050000
v -0.156764 0.437509 0.050000
v 0.049034 0.196278 0.050000
v 0.088762 0.152255 0.050000
v 0.081581 0.152769 0.050000
v 0.074475 0.153239 0.050000
v 0.067444 0.153664 0.050000
v 0.060487 0.154044 0.050000
v 0.053604 0.154380 0.050000
v 0.046797 0.154671 0.050000
v 0.040064 0.154917 0.050000
v 0.033405 0.155118 0.050000
v 0.026821 0.155275 0.050000
v 0.020311 0.155387 0.050000
v 0.013876 0.155454 0.050000
v 0.007516 0.155476 0.050000
v -0.168218 0.155476 0.050000
v -0.168218 0.100000 0.050000
v -0.168218 0.100000 -0.050000
v 0.168218 0.100000 0.050000
v 0.168218 0.100000 -0.050000
v 0.168218 0.152255 0.050000
v 0.168218 0.152255 -0.050000
v -0.073729 0.429993 0.050000
v -0.073729 0.429993 -0.050000
v -0.066937 0.429650 0.050000
v -0.066937 0.429650 -0.050000
v -0.060278 0.429337 0.050000
v -0.060278 0.429337 -0.050000
v -0.053754 0.429053 0.050000
v -0.053754 0.429053 -0.050000
v -0.047363 0.428800 0.050000
v -0.047363 0.428800 -0.050000
v -0.041107 0.428576 0.050000
v -0.041107 0.428576 -0.050000
v -0.034986 0.428382 0.050000
v -0.034986 0.428382 -0.050000
v -0.028998 0.428218 0.050000
v -0.028998 0.428218 -0.050000
v -0.023145 0.428084 0.050000
v -0.023145 0.428084 -0.050000
v -0.017426 0.427980 0.050000
v -0.017426 0.427980 -0.050000
v -0.011841 0.427905 0.050000
v -0.011841 0.427905 -0.050000
v -0.006390 0.427860 0.050000
v -0.006390 0.427860 -0.050000
v -0.001074 0.427845 0.050000
v -0.001074 0.427845 -0.050000
v 0.153901 0.427845 0.050000
v 0.153901 0.427845 -0.050000
v 0.153901 0.480100 0.050000
v 0.153901 0.480100 -0.050000
v -0.156764 0.480100 0.050000
v -0.156764 0.480100 -0.050000
v -0.156764 0.437509 0.050000
v -0.156764 0.437509 -0.050000
v 0.049034 0.196278 0.050000
v 0.049034 0.196278 -0.050000
v 0.088762 0.152255 0.050000
v 0.088762 0.152255 -0.050000
v 0.081581 0.152769 0.050000
v 0.081581 0.152769 -0.050000
v 0.074475 0.153239 0.050000
v 0.074475 0.153239 -0.050000
v 0.067444 0.153664 0.050000
v 0.067444 0.153664 -0.050000
v 0.060487 0.154044 0.050000
v 0.060487 0.154044 -0.050000
v 0.053604 0.154380 0.050000
v 0.053604 0.154380 -0.050000
v 0.046797 0.154671 0.050000
v 0.046797 0.154671 -0.050000
v 0.040064 0.154917 0.050000
v 0.040064 0.154917 -0.050000
v 0.033405 0.155118 0.050000
v 0.033405 0.155118 -0.050000
v 0.026821 0.155275 0.050000
v 0.026821 0.155275 -0.050000
v 0.020311 0.155387 0.050000
v 0.020311 0.155387 -0.050000
v 0.013876 0.155454 0.050000
v 0.013876 0.155454 -0.050000
v 0.007516 0.155476 0.050000
v 0.007516 0.155476 -0.050000
v -0.168218 0.155476 0.050000
v -0.168218 0.155476 -0.050000
vn 0.0000 -0.0000 -1.0000
vn 0.0000 0.0000 1.0000
vn -0.7071 -0.7071 0.0000
vn 0.7071 -0.7071 0.0000
vn 0.9365 0.3507 0.0000
vn 0.8994 -0.4370 0.0000
vn -0.0487 -0.9988 0.0000
vn -0.0452 -0.9990 0.0000
vn -0.0415 -0.9991 0.0000
vn -0.0377 -0.9993 0.0000
vn -0.0337 -0.9994 0.0000
vn -0.0295 -0.9996 0.0000
vn -0.0252 -0.9997 0.0000
vn -0.0206 -0.9998 0.0000
vn -0.0158 -0.9999 0.0000
vn -0.0108 -0.9999 0.0000
vn -0.0055 -1.0000 0.0000
vn -0.0014 -1.0000 0.0000
vn 0.7071 0.7071 0.0000
vn -0.7071 0.7071 0.0000
vn -0.9383 -0.3459 0.0000
vn -0.7517 -0.6596 0.0000
vn -0.8987 0.4386 0.0000
vn 0.0687 0.9976 0.0000
vn 0.0632 0.9980 0.0000
vn 0.0575 0.9983 0.0000
vn 0.0516 0.9987 0.0000
vn 0.0457 0.9990 0.0000
vn 0.0396 0.9992 0.0000
vn 0.0334 0.9994 0.0000
vn 0.0270 0.9996 0.0000
vn 0.0205 0.9998 0.0000
vn 0.0138 0.9999 0.0000
vn 0.0070 1.0000 0.0000
vn 0.0018 1.0000 0.0000
usemtl None
s 1
f 17//1 19//1 18//1
f 17//1 20//1 19//1
f 17//1 4//1 20//1
f 4//1 21//1 20//1
f 17//1 5//1 4//1
f 3//1 21//1 4//1
f 17//1 6//1 5//1
f 17//1 7//1 6//1
f 17//1 8//1 7//1
f 17//1 9//1 8//1
f 17//1 10//1 9//1
f 17//1 11//1 10//1
f 17//1 12//1 11//1
f 17//1 13//1 12//1
f 17//1 14//1 13//1
f 17//1 15//1 14//1
f 17//1 16//1 15//1
f 3//1 22//1 21//1
f 33//1 35//1 34//1
f 33//1 1//1 35//1
f 32//1 1//1 33//1
f 31//1 1//1 32//1
f 30//1 1//1 31//1
f 29//1 1//1 30//1
f 28//1 1//1 29//1
f 27//1 1//1 28//1
f 26//1 1//1 27//1
f 25//1 1//1 26//1
f 24//1 1//1 25//1
f 23//1 1//1 24//1
f 22//1 1//1 23//1
f 2//1 22//1 3//1
f 2//1 1//1 22//1
f 54//2 52//2 53//2
f 55//2 52//2 54//2
f 39//2 52//2 55//2
f 56//2 39//2 55//2
f 40//2 52//2 39//2
f 56//2 38//2 39//2
f 41//2 52//2 40//2
f 42//2 52//2 41//2
f 43//2 52//2 42//2
f 44//2 52//2 43//2
f 45//2 52//2 44//2
f 46//2 52//2 45//2
f 47//2 52//2 46//2
f 48//2 52//2 47//2
f 49//2 52//2 48//2
f 50//2 52//2 49//2
f 51//2 52//2 50//2
f 57//2 38//2 56//2
f 70//2 68//2 69//2
f 36//2 68//2 70//2
f 36//2 67//2 68//2
f 36//2 66//2 67//2
f 36//2 65//2 66//2
f 36//2 64//2 65//2
f 36//2 63//2 64//2
f 36//2 62//2 63//2
f 36//2 61//2 62//2
f 36//2 60//2 61//2
f 36//2 59//2 60//2
f 36//2 58//2 59//2
f 36//2 57//2 58//2
f 57//2 37//2 38//2
f 36//2 37//2 57//2
f 72//3 74//4 73//4 71//3
f 74//4 76//5 75//5 73//4
f 76//5 78//6 77//6 75//5
f 78//6 80//7 79//7 77//6
f 80//7 82//8 81//8 79//7
f 82//8 84//9 83//9 81//8
f 84//9 86//10 85//10 83//9
f 86//10 88//11 87//11 85//10
f 88//11 90//12 89//12 87//11
f 90//12 92//13 91//13 89//12
f 92//13 94//14 93//14 91//13
f 94//14 96//15 95//15 93//14
f 96//15 98//16 97//16 95//15
f 98//16 100//17 99//17 97//16
f 100//17 102//18 101//18 99//17
f 102//18 104//4 103//4 101//18
f 104//4 106//19 105//19 103//4
f 106//19 108//20 107//20 105//19
f 108//20 110//21 109//21 107//20
f 110//21 112//22 111//22 109//21
f 112//22 114//23 113//23 111//22
f 114//23 116//24 115//24 113//23
f 116//24 118//25 117//25 115//24
f 118//25 120//26 119//26 117//25
f 120//26 122//27 121//27 119//26
f 122//27 124//28 123//28 121//27
f 124//28 126//29 125//29 123//28
f 126//29 128//30 127//30 125//29
f 128//30 130//31 129//31 127//30
f 130//31 132//32 131//32 129//31
f 132//32 134//33 133//33 131//32
f 134//33 136//34 135//34 133//33
f 136//34 138//35 137//35 135//34
f 138//35 140//20 139//20 137//35
f 140//20 72//3 71//3 139//20
