# Blender v2.80 (sub 75) OBJ File: 'comma.blend'
# www.blender.org
mtllib lower_r.mtl
o Text_Text.122
v 0.038833 0.100000 -0.050000
v 0.103257 0.100000 -0.050000
v 0.103257 0.480100 -0.050000
v 0.045276 0.480100 -0.050000
v 0.045276 0.422477 -0.050000
v 0.041601 0.429026 -0.050000
v 0.037973 0.435193 -0.050000
v 0.034393 0.440976 -0.050000
v 0.030860 0.446377 -0.050000
v 0.027374 0.451395 -0.050000
v 0.023935 0.456031 -0.050000
v 0.020544 0.460284 -0.050000
v 0.017200 0.464153 -0.050000
v 0.013903 0.467641 -0.050000
v 0.010653 0.470745 -0.050000
v 0.007450 0.473467 -0.050000
v 0.004295 0.475805 -0.050000
v 0.001137 0.477863 -0.050000
v -0.002073 0.479742 -0.050000
v -0.005335 0.481442 -0.050000
v -0.008649 0.482964 -0.050000
v -0.012016 0.484306 -0.050000
v -0.015435 0.485469 -0.050000
v -0.018906 0.486453 -0.050000
v -0.022429 0.487258 -0.050000
v -0.026004 0.487885 -0.050000
v -0.029632 0.488332 -0.050000
v -0.033312 0.488601 -0.050000
v -0.037044 0.488690 -0.050000
v -0.042479 0.488546 -0.050000
v -0.047930 0.488114 -0.050000
v -0.053396 0.487393 -0.050000
v -0.058876 0.486384 -0.050000
v -0.064372 0.485086 -0.050000
v -0.069882 0.483500 -0.050000
v -0.075407 0.481626 -0.050000
v -0.080947 0.479464 -0.050000
v -0.086502 0.477013 -0.050000
v -0.092072 0.474274 -0.050000
v -0.097657 0.471247 -0.050000
v -0.103257 0.467931 -0.050000
v -0.081067 0.408160 -0.050000
v -0.077130 0.410390 -0.050000
v -0.073193 0.412426 -0.050000
v -0.069256 0.414267 -0.050000
v -0.065319 0.415915 -0.050000
v -0.061382 0.417369 -0.050000
v -0.057445 0.418629 -0.050000
v -0.053508 0.419696 -0.050000
v -0.049571 0.420568 -0.050000
v -0.045634 0.421247 -0.050000
v -0.041697 0.421731 -0.050000
v -0.037759 0.422022 -0.050000
v -0.033822 0.422119 -0.050000
v -0.030333 0.422031 -0.050000
v -0.026903 0.421766 -0.050000
v -0.023533 0.421325 -0.050000
v -0.020222 0.420707 -0.050000
v -0.016971 0.419913 -0.050000
v -0.013780 0.418942 -0.050000
v -0.010648 0.417795 -0.050000
v -0.007576 0.416472 -0.050000
v -0.004563 0.414972 -0.050000
v -0.001611 0.413295 -0.050000
v 0.001283 0.411443 -0.050000
v 0.004116 0.409413 -0.050000
v 0.006852 0.407227 -0.050000
v 0.009455 0.404904 -0.050000
v 0.011923 0.402445 -0.050000
v 0.014257 0.399849 -0.050000
v 0.016456 0.397116 -0.050000
v 0.018522 0.394247 -0.050000
v 0.020453 0.391241 -0.050000
v 0.022250 0.388098 -0.050000
v 0.023913 0.384818 -0.050000
v 0.025441 0.381402 -0.050000
v 0.026836 0.377849 -0.050000
v 0.028096 0.374159 -0.050000
v 0.029811 0.368388 -0.050000
v 0.031377 0.362527 -0.050000
v 0.032793 0.356577 -0.050000
v 0.034061 0.350537 -0.050000
v 0.035180 0.344408 -0.050000
v 0.036149 0.338189 -0.050000
v 0.036969 0.331881 -0.050000
v 0.037640 0.325483 -0.050000
v 0.038162 0.318996 -0.050000
v 0.038535 0.312420 -0.050000
v 0.038759 0.305753 -0.050000
v 0.038833 0.298998 -0.050000
v 0.038833 0.100000 0.050000
v 0.103257 0.100000 0.050000
v 0.103257 0.480100 0.050000
v 0.045276 0.480100 0.050000
v 0.045276 0.422477 0.050000
v 0.041601 0.429026 0.050000
v 0.037973 0.435193 0.050000
v 0.034393 0.440976 0.050000
v 0.030860 0.446377 0.050000
v 0.027374 0.451395 0.050000
v 0.023935 0.456031 0.050000
v 0.020544 0.460284 0.050000
v 0.017200 0.464153 0.050000
v 0.013903 0.467641 0.050000
v 0.010653 0.470745 0.050000
v 0.007450 0.473467 0.050000
v 0.004295 0.475805 0.050000
v 0.001137 0.477863 0.050000
v -0.002073 0.479742 0.050000
v -0.005335 0.481442 0.050000
v -0.008649 0.482964 0.050000
v -0.012016 0.484306 0.050000
v -0.015435 0.485469 0.050000
v -0.018906 0.486453 0.050000
v -0.022429 0.487258 0.050000
v -0.026004 0.487885 0.050000
v -0.029632 0.488332 0.050000
v -0.033312 0.488601 0.050000
v -0.037044 0.488690 0.050000
v -0.042479 0.488546 0.050000
v -0.047930 0.488114 0.050000
v -0.053396 0.487393 0.050000
v -0.058876 0.486384 0.050000
v -0.064372 0.485086 0.050000
v -0.069882 0.483500 0.050000
v -0.075407 0.481626 0.050000
v -0.080947 0.479464 0.050000
v -0.086502 0.477013 0.050000
v -0.092072 0.474274 0.050000
v -0.097657 0.471247 0.050000
v -0.103257 0.467931 0.050000
v -0.081067 0.408160 0.050000
v -0.077130 0.410390 0.050000
v -0.073193 0.412426 0.050000
v -0.069256 0.414267 0.050000
v -0.065319 0.415915 0.050000
v -0.061382 0.417369 0.050000
v -0.057445 0.418629 0.050000
v -0.053508 0.419696 0.050000
v -0.049571 0.420568 0.050000
v -0.045634 0.421247 0.050000
v -0.041697 0.421731 0.050000
v -0.037759 0.422022 0.050000
v -0.033822 0.422119 0.050000
v -0.030333 0.422031 0.050000
v -0.026903 0.421766 0.050000
v -0.023533 0.421325 0.050000
v -0.020222 0.420707 0.050000
v -0.016971 0.419913 0.050000
v -0.013780 0.418942 0.050000
v -0.010648 0.417795 0.050000
v -0.007576 0.416472 0.050000
v -0.004563 0.414972 0.050000
v -0.001611 0.413295 0.050000
v 0.001283 0.411443 0.050000
v 0.004116 0.409413 0.050000
v 0.006852 0.407227 0.050000
v 0.009455 0.404904 0.050000
v 0.011923 0.402445 0.050000
v 0.014257 0.399849 0.050000
v 0.016456 0.397116 0.050000
v 0.018522 0.394247 0.050000
v 0.020453 0.391241 0.050000
v 0.022250 0.388098 0.050000
v 0.023913 0.384818 0.050000
v 0.025441 0.381402 0.050000
v 0.026836 0.377849 0.050000
v 0.028096 0.374159 0.050000
v 0.029811 0.368388 0.050000
v 0.031377 0.362527 0.050000
v 0.032793 0.356577 0.050000
v 0.034061 0.350537 0.050000
v 0.035180 0.344408 0.050000
v 0.036149 0.338189 0.050000
v 0.036969 0.331881 0.050000
v 0.037640 0.325483 0.050000
v 0.038162 0.318996 0.050000
v 0.038535 0.312420 0.050000
v 0.038759 0.305753 0.050000
v 0.038833 0.298998 0.050000
v 0.038833 0.100000 0.050000
v 0.038833 0.100000 -0.050000
v 0.103257 0.100000 0.050000
v 0.103257 0.100000 -0.050000
v 0.103257 0.480100 0.050000
v 0.103257 0.480100 -0.050000
v 0.045276 0.480100 0.050000
v 0.045276 0.480100 -0.050000
v 0.045276 0.422477 0.050000
v 0.045276 0.422477 -0.050000
v 0.041601 0.429026 0.050000
v 0.041601 0.429026 -0.050000
v 0.037973 0.435193 0.050000
v 0.037973 0.435193 -0.050000
v 0.034393 0.440976 0.050000
v 0.034393 0.440976 -0.050000
v 0.030860 0.446377 0.050000
v 0.030860 0.446377 -0.050000
v 0.027374 0.451395 0.050000
v 0.027374 0.451395 -0.050000
v 0.023935 0.456031 0.050000
v 0.023935 0.456031 -0.050000
v 0.020544 0.460284 0.050000
v 0.020544 0.460284 -0.050000
v 0.017200 0.464153 0.050000
v 0.017200 0.464153 -0.050000
v 0.013903 0.467641 0.050000
v 0.013903 0.467641 -0.050000
v 0.010653 0.470745 0.050000
v 0.010653 0.470745 -0.050000
v 0.007450 0.473467 0.050000
v 0.007450 0.473467 -0.050000
v 0.004295 0.475805 0.050000
v 0.004295 0.475805 -0.050000
v 0.001137 0.477863 0.050000
v 0.001137 0.477863 -0.050000
v -0.002073 0.479742 0.050000
v -0.002073 0.479742 -0.050000
v -0.005335 0.481442 0.050000
v -0.005335 0.481442 -0.050000
v -0.008649 0.482964 0.050000
v -0.008649 0.482964 -0.050000
v -0.012016 0.484306 0.050000
v -0.012016 0.484306 -0.050000
v -0.015435 0.485469 0.050000
v -0.015435 0.485469 -0.050000
v -0.018906 0.486453 0.050000
v -0.018906 0.486453 -0.050000
v -0.022429 0.487258 0.050000
v -0.022429 0.487258 -0.050000
v -0.026004 0.487885 0.050000
v -0.026004 0.487885 -0.050000
v -0.029632 0.488332 0.050000
v -0.029632 0.488332 -0.050000
v -0.033312 0.488601 0.050000
v -0.033312 0.488601 -0.050000
v -0.037044 0.488690 0.050000
v -0.037044 0.488690 -0.050000
v -0.042479 0.488546 0.050000
v -0.042479 0.488546 -0.050000
v -0.047930 0.488114 0.050000
v -0.047930 0.488114 -0.050000
v -0.053396 0.487393 0.050000
v -0.053396 0.487393 -0.050000
v -0.058876 0.486384 0.050000
v -0.058876 0.486384 -0.050000
v -0.064372 0.485086 0.050000
v -0.064372 0.485086 -0.050000
v -0.069882 0.483500 0.050000
v -0.069882 0.483500 -0.050000
v -0.075407 0.481626 0.050000
v -0.075407 0.481626 -0.050000
v -0.080947 0.479464 0.050000
v -0.080947 0.479464 -0.050000
v -0.086502 0.477013 0.050000
v -0.086502 0.477013 -0.050000
v -0.092072 0.474274 0.050000
v -0.092072 0.474274 -0.050000
v -0.097657 0.471247 0.050000
v -0.097657 0.471247 -0.050000
v -0.103257 0.467931 0.050000
v -0.103257 0.467931 -0.050000
v -0.081067 0.408160 0.050000
v -0.081067 0.408160 -0.050000
v -0.077130 0.410390 0.050000
v -0.077130 0.410390 -0.050000
v -0.073193 0.412426 0.050000
v -0.073193 0.412426 -0.050000
v -0.069256 0.414267 0.050000
v -0.069256 0.414267 -0.050000
v -0.065319 0.415915 0.050000
v -0.065319 0.415915 -0.050000
v -0.061382 0.417369 0.050000
v -0.061382 0.417369 -0.050000
v -0.057445 0.418629 0.050000
v -0.057445 0.418629 -0.050000
v -0.053508 0.419696 0.050000
v -0.053508 0.419696 -0.050000
v -0.049571 0.420568 0.050000
v -0.049571 0.420568 -0.050000
v -0.045634 0.421247 0.050000
v -0.045634 0.421247 -0.050000
v -0.041697 0.421731 0.050000
v -0.041697 0.421731 -0.050000
v -0.037759 0.422022 0.050000
v -0.037759 0.422022 -0.050000
v -0.033822 0.422119 0.050000
v -0.033822 0.422119 -0.050000
v -0.030333 0.422031 0.050000
v -0.030333 0.422031 -0.050000
v -0.026903 0.421766 0.050000
v -0.026903 0.421766 -0.050000
v -0.023533 0.421325 0.050000
v -0.023533 0.421325 -0.050000
v -0.020222 0.420707 0.050000
v -0.020222 0.420707 -0.050000
v -0.016971 0.419913 0.050000
v -0.016971 0.419913 -0.050000
v -0.013780 0.418942 0.050000
v -0.013780 0.418942 -0.050000
v -0.010648 0.417795 0.050000
v -0.010648 0.417795 -0.050000
v -0.007576 0.416472 0.050000
v -0.007576 0.416472 -0.050000
v -0.004563 0.414972 0.050000
v -0.004563 0.414972 -0.050000
v -0.001611 0.413295 0.050000
v -0.001611 0.413295 -0.050000
v 0.001283 0.411443 0.050000
v 0.001283 0.411443 -0.050000
v 0.004116 0.409413 0.050000
v 0.004116 0.409413 -0.050000
v 0.006852 0.407227 0.050000
v 0.006852 0.407227 -0.050000
v 0.009455 0.404904 0.050000
v 0.009455 0.404904 -0.050000
v 0.011923 0.402445 0.050000
v 0.011923 0.402445 -0.050000
v 0.014257 0.399849 0.050000
v 0.014257 0.399849 -0.050000
v 0.016456 0.397116 0.050000
v 0.016456 0.397116 -0.050000
v 0.018522 0.394247 0.050000
v 0.018522 0.394247 -0.050000
v 0.020453 0.391241 0.050000
v 0.020453 0.391241 -0.050000
v 0.022250 0.388098 0.050000
v 0.022250 0.388098 -0.050000
v 0.023913 0.384818 0.050000
v 0.023913 0.384818 -0.050000
v 0.025441 0.381402 0.050000
v 0.025441 0.381402 -0.050000
v 0.026836 0.377849 0.050000
v 0.026836 0.377849 -0.050000
v 0.028096 0.374159 0.050000
v 0.028096 0.374159 -0.050000
v 0.029811 0.368388 0.050000
v 0.029811 0.368388 -0.050000
v 0.031377 0.362527 0.050000
v 0.031377 0.362527 -0.050000
v 0.032793 0.356577 0.050000
v 0.032793 0.356577 -0.050000
v 0.034061 0.350537 0.050000
v 0.034061 0.350537 -0.050000
v 0.035180 0.344408 0.050000
v 0.035180 0.344408 -0.050000
v 0.036149 0.338189 0.050000
v 0.036149 0.338189 -0.050000
v 0.036969 0.331881 0.050000
v 0.036969 0.331881 -0.050000
v 0.037640 0.325483 0.050000
v 0.037640 0.325483 -0.050000
v 0.038162 0.318996 0.050000
v 0.038162 0.318996 -0.050000
v 0.038535 0.312420 0.050000
v 0.038535 0.312420 -0.050000
v 0.038759 0.305753 0.050000
v 0.038759 0.305753 -0.050000
v 0.038833 0.298998 0.050000
v 0.038833 0.298998 -0.050000
vn 0.0000 0.0000 -1.0000
vn -0.0003 0.0000 -1.0000
vn 0.0000 0.0000 1.0000
vn -0.0003 0.0000 1.0000
vn 0.0003 0.0000 1.0000
vn -0.7071 -0.7071 0.0000
vn 0.7071 -0.7071 0.0000
vn 0.7071 0.7071 0.0000
vn -0.7071 0.7071 0.0000
vn -0.2529 0.9675 0.0000
vn 0.8671 0.4982 0.0000
vn 0.8561 0.5167 0.0000
vn 0.8436 0.5369 0.0000
vn 0.8291 0.5590 0.0000
vn 0.8123 0.5832 0.0000
vn 0.7926 0.6097 0.0000
vn 0.7694 0.6388 0.0000
vn 0.7418 0.6706 0.0000
vn 0.7089 0.7053 0.0000
vn 0.6694 0.7429 0.0000
vn 0.6219 0.7831 0.0000
vn 0.5710 0.8209 0.0000
vn 0.5257 0.8506 0.0000
vn 0.4838 0.8752 0.0000
vn 0.4398 0.8981 0.0000
vn 0.3938 0.9192 0.0000
vn 0.3463 0.9381 0.0000
vn 0.2976 0.9547 0.0000
vn 0.2479 0.9688 0.0000
vn 0.1978 0.9803 0.0000
vn 0.1475 0.9891 0.0000
vn 0.0976 0.9952 0.0000
vn 0.0484 0.9988 0.0000
vn -0.0013 1.0000 0.0000
vn -0.0528 0.9986 0.0000
vn -0.1050 0.9945 0.0000
vn -0.1560 0.9878 0.0000
vn -0.2055 0.9787 0.0000
vn -0.2532 0.9674 0.0000
vn -0.2990 0.9543 0.0000
vn -0.3425 0.9395 0.0000
vn -0.3837 0.9235 0.0000
vn -0.4225 0.9063 0.0000
vn -0.4590 0.8884 0.0000
vn -0.4931 0.8700 0.0000
vn -0.9426 0.3338 0.0000
vn -0.3429 -0.9394 0.0000
vn 0.4761 -0.8794 0.0000
vn 0.4416 -0.8972 0.0000
vn 0.4050 -0.9143 0.0000
vn 0.3664 -0.9305 0.0000
vn 0.3257 -0.9455 0.0000
vn 0.2832 -0.9591 0.0000
vn 0.2389 -0.9710 0.0000
vn 0.1931 -0.9812 0.0000
vn 0.1461 -0.9893 0.0000
vn 0.0980 -0.9952 0.0000
vn 0.0492 -0.9988 0.0000
vn -0.0003 -1.0000 0.0000
vn -0.0511 -0.9987 0.0000
vn -0.1034 -0.9946 0.0000
vn -0.1567 -0.9877 0.0000
vn -0.2104 -0.9776 0.0000
vn -0.2642 -0.9645 0.0000
vn -0.3176 -0.9482 0.0000
vn -0.3699 -0.9291 0.0000
vn -0.4209 -0.9071 0.0000
vn -0.4699 -0.8827 0.0000
vn -0.5167 -0.8562 0.0000
vn -0.5610 -0.8278 0.0000
vn -0.6034 -0.7974 0.0000
vn -0.6452 -0.7640 0.0000
vn -0.6861 -0.7275 0.0000
vn -0.7250 -0.6887 0.0000
vn -0.7616 -0.6480 0.0000
vn -0.7956 -0.6058 0.0000
vn -0.8268 -0.5625 0.0000
vn -0.8550 -0.5186 0.0000
vn -0.8803 -0.4744 0.0000
vn -0.9026 -0.4304 0.0000
vn -0.9221 -0.3870 0.0000
vn -0.9388 -0.3443 0.0000
vn -0.9526 -0.3041 0.0000
vn -0.9624 -0.2715 0.0000
vn -0.9695 -0.2449 0.0000
vn -0.9758 -0.2185 0.0000
vn -0.9813 -0.1925 0.0000
vn -0.9860 -0.1668 0.0000
vn -0.9899 -0.1415 0.0000
vn -0.9932 -0.1166 0.0000
vn -0.9957 -0.0923 0.0000
vn -0.9977 -0.0684 0.0000
vn -0.9990 -0.0451 0.0000
vn -0.9998 -0.0223 0.0000
vn -1.0000 -0.0055 0.0000
usemtl None
s 1
f 28//1 30//1 29//1
f 27//1 30//1 28//1
f 27//1 31//1 30//1
f 26//1 31//1 27//1
f 26//1 32//1 31//1
f 25//1 32//1 26//1
f 25//1 33//1 32//1
f 24//1 33//1 25//1
f 23//1 33//1 24//1
f 23//1 34//1 33//1
f 22//1 34//1 23//1
f 22//1 35//1 34//1
f 21//1 35//1 22//1
f 21//1 36//1 35//1
f 20//1 36//1 21//1
f 20//1 37//1 36//1
f 19//1 37//1 20//1
f 2//1 4//1 3//1
f 2//1 5//1 4//1
f 18//1 37//1 19//1
f 18//1 38//1 37//1
f 17//1 38//1 18//1
f 17//1 39//1 38//1
f 16//1 39//1 17//1
f 16//1 40//1 39//1
f 15//1 40//1 16//1
f 15//1 41//1 40//1
f 14//1 41//1 15//1
f 14//1 42//2 41//1
f 13//1 42//2 14//1
f 12//1 44//1 13//1
f 44//1 43//1 13//1
f 43//1 42//2 13//1
f 11//1 45//1 12//1
f 45//1 44//1 12//1
f 10//1 46//1 11//1
f 46//1 45//1 11//1
f 9//1 48//1 10//1
f 48//1 47//1 10//1
f 47//1 46//1 10//1
f 8//1 49//1 9//1
f 49//1 48//1 9//1
f 7//1 51//1 8//1
f 51//1 50//1 8//1
f 50//1 49//1 8//1
f 6//1 52//1 7//1
f 52//1 51//1 7//1
f 5//1 54//1 6//1
f 54//1 53//1 6//1
f 53//1 52//1 6//1
f 2//1 79//1 5//1
f 79//1 78//1 5//1
f 78//1 77//1 5//1
f 77//1 76//1 5//1
f 76//1 75//1 5//1
f 75//1 74//1 5//1
f 74//1 73//1 5//1
f 73//1 72//1 5//1
f 72//1 71//1 5//1
f 71//1 70//1 5//1
f 70//1 69//1 5//1
f 69//1 68//1 5//1
f 68//1 67//1 5//1
f 67//1 66//1 5//1
f 66//1 65//1 5//1
f 65//1 64//1 5//1
f 64//1 63//1 5//1
f 63//1 62//1 5//1
f 62//1 61//1 5//1
f 61//1 60//1 5//1
f 60//1 59//1 5//1
f 59//1 58//1 5//1
f 58//1 57//1 5//1
f 57//1 56//1 5//1
f 56//1 55//1 5//1
f 55//1 54//1 5//1
f 2//1 80//1 79//1
f 2//1 81//1 80//1
f 2//1 82//1 81//1
f 2//1 83//1 82//1
f 2//1 84//1 83//1
f 2//1 85//1 84//1
f 2//1 86//1 85//1
f 2//1 87//1 86//1
f 2//1 88//1 87//1
f 2//1 89//1 88//1
f 2//1 90//1 89//1
f 2//1 1//1 90//1
f 120//3 118//3 119//3
f 120//3 117//3 118//3
f 121//3 117//3 120//3
f 121//3 116//3 117//3
f 122//3 116//3 121//3
f 122//3 115//3 116//3
f 123//3 115//3 122//3
f 123//3 114//3 115//3
f 123//3 113//3 114//3
f 124//3 113//3 123//3
f 124//3 112//3 113//3
f 125//3 112//3 124//3
f 125//3 111//3 112//3
f 126//3 111//3 125//3
f 126//3 110//3 111//3
f 127//3 110//3 126//3
f 127//3 109//3 110//3
f 94//3 92//3 93//3
f 95//3 92//3 94//3
f 127//3 108//3 109//3
f 128//3 108//3 127//3
f 128//3 107//3 108//3
f 129//3 107//3 128//3
f 129//3 106//3 107//3
f 130//3 106//3 129//3
f 130//3 105//3 106//3
f 131//3 105//3 130//3
f 131//3 104//3 105//3
f 132//4 104//3 131//3
f 132//4 103//3 104//3
f 134//3 102//3 103//3
f 133//5 134//3 103//3
f 132//4 133//5 103//3
f 135//3 101//3 102//3
f 134//3 135//3 102//3
f 136//3 100//3 101//3
f 135//3 136//3 101//3
f 138//3 99//3 100//3
f 137//3 138//3 100//3
f 136//3 137//3 100//3
f 139//3 98//3 99//3
f 138//3 139//3 99//3
f 141//3 97//3 98//3
f 140//3 141//3 98//3
f 139//3 140//3 98//3
f 142//3 96//3 97//3
f 141//3 142//3 97//3
f 144//3 95//3 96//3
f 143//3 144//3 96//3
f 142//3 143//3 96//3
f 169//3 92//3 95//3
f 168//3 169//3 95//3
f 167//3 168//3 95//3
f 166//3 167//3 95//3
f 165//3 166//3 95//3
f 164//3 165//3 95//3
f 163//3 164//3 95//3
f 162//3 163//3 95//3
f 161//3 162//3 95//3
f 160//3 161//3 95//3
f 159//3 160//3 95//3
f 158//3 159//3 95//3
f 157//3 158//3 95//3
f 156//3 157//3 95//3
f 155//3 156//3 95//3
f 154//3 155//3 95//3
f 153//3 154//3 95//3
f 152//3 153//3 95//3
f 151//3 152//3 95//3
f 150//3 151//3 95//3
f 149//3 150//3 95//3
f 148//3 149//3 95//3
f 147//3 148//3 95//3
f 146//3 147//3 95//3
f 145//3 146//3 95//3
f 144//3 145//3 95//3
f 170//3 92//3 169//3
f 171//3 92//3 170//3
f 172//3 92//3 171//3
f 173//3 92//3 172//3
f 174//3 92//3 173//3
f 175//3 92//3 174//3
f 176//3 92//3 175//3
f 177//3 92//3 176//3
f 178//3 92//3 177//3
f 179//3 92//3 178//3
f 180//3 92//3 179//3
f 91//3 92//3 180//3
f 182//6 184//7 183//7 181//6
f 184//7 186//8 185//8 183//7
f 186//8 188//9 187//9 185//8
f 188//9 190//10 189//10 187//9
f 190//10 192//11 191//11 189//10
f 192//11 194//12 193//12 191//11
f 194//12 196//13 195//13 193//12
f 196//13 198//14 197//14 195//13
f 198//14 200//15 199//15 197//14
f 200//15 202//16 201//16 199//15
f 202//16 204//17 203//17 201//16
f 204//17 206//18 205//18 203//17
f 206//18 208//19 207//19 205//18
f 208//19 210//20 209//20 207//19
f 210//20 212//21 211//21 209//20
f 212//21 214//22 213//22 211//21
f 214//22 216//23 215//23 213//22
f 216//23 218//24 217//24 215//23
f 218//24 220//25 219//25 217//24
f 220//25 222//26 221//26 219//25
f 222//26 224//27 223//27 221//26
f 224//27 226//28 225//28 223//27
f 226//28 228//29 227//29 225//28
f 228//29 230//30 229//30 227//29
f 230//30 232//31 231//31 229//30
f 232//31 234//32 233//32 231//31
f 234//32 236//33 235//33 233//32
f 236//33 238//34 237//34 235//33
f 238//34 240//35 239//35 237//34
f 240//35 242//36 241//36 239//35
f 242//36 244//37 243//37 241//36
f 244//37 246//38 245//38 243//37
f 246//38 248//39 247//39 245//38
f 248//39 250//40 249//40 247//39
f 250//40 252//41 251//41 249//40
f 252//41 254//42 253//42 251//41
f 254//42 256//43 255//43 253//42
f 256//43 258//44 257//44 255//43
f 258//44 260//45 259//45 257//44
f 260//45 262//46 261//46 259//45
f 262//46 264//47 263//47 261//46
f 264//47 266//48 265//48 263//47
f 266//48 268//49 267//49 265//48
f 268//49 270//50 269//50 267//49
f 270//50 272//51 271//51 269//50
f 272//51 274//52 273//52 271//51
f 274//52 276//53 275//53 273//52
f 276//53 278//54 277//54 275//53
f 278//54 280//55 279//55 277//54
f 280//55 282//56 281//56 279//55
f 282//56 284//57 283//57 281//56
f 284//57 286//58 285//58 283//57
f 286//58 288//59 287//59 285//58
f 288//59 290//60 289//60 287//59
f 290//60 292//61 291//61 289//60
f 292//61 294//62 293//62 291//61
f 294//62 296//63 295//63 293//62
f 296//63 298//64 297//64 295//63
f 298//64 300//65 299//65 297//64
f 300//65 302//66 301//66 299//65
f 302//66 304//67 303//67 301//66
f 304//67 306//68 305//68 303//67
f 306//68 308//69 307//69 305//68
f 308//69 310//70 309//70 307//69
f 310//70 312//71 311//71 309//70
f 312//71 314//72 313//72 311//71
f 314//72 316//73 315//73 313//72
f 316//73 318//74 317//74 315//73
f 318//74 320//75 319//75 317//74
f 320//75 322//76 321//76 319//75
f 322//76 324//77 323//77 321//76
f 324//77 326//78 325//78 323//77
f 326//78 328//79 327//79 325//78
f 328//79 330//80 329//80 327//79
f 330//80 332//81 331//81 329//80
f 332//81 334//82 333//82 331//81
f 334//82 336//83 335//83 333//82
f 336//83 338//84 337//84 335//83
f 338//84 340//85 339//85 337//84
f 340//85 342//86 341//86 339//85
f 342//86 344//87 343//87 341//86
f 344//87 346//88 345//88 343//87
f 346//88 348//89 347//89 345//88
f 348//89 350//90 349//90 347//89
f 350//90 352//91 351//91 349//90
f 352//91 354//92 353//92 351//91
f 354//92 356//93 355//93 353//92
f 356//93 358//94 357//94 355//93
f 358//94 360//95 359//95 357//94
f 360//95 182//6 181//6 359//95
