# Blender v2.80 (sub 75) OBJ File: 'comma.blend'
# www.blender.org
mtllib lower_k.mtl
o Text_Text.100
v 0.093057 0.100000 -0.050000
v 0.157480 0.100000 -0.050000
v 0.157480 0.624696 -0.050000
v 0.093057 0.624696 -0.050000
v 0.093057 0.325483 -0.050000
v -0.059413 0.480100 -0.050000
v -0.142806 0.480100 -0.050000
v 0.002505 0.339084 -0.050000
v -0.157480 0.100000 -0.050000
v -0.078024 0.100000 -0.050000
v 0.047602 0.294345 -0.050000
v 0.093057 0.250680 -0.050000
v 0.093057 0.100000 0.050000
v 0.157480 0.100000 0.050000
v 0.157480 0.624696 0.050000
v 0.093057 0.624696 0.050000
v 0.093057 0.325483 0.050000
v -0.059413 0.480100 0.050000
v -0.142806 0.480100 0.050000
v 0.002505 0.339084 0.050000
v -0.157480 0.100000 0.050000
v -0.078024 0.100000 0.050000
v 0.047602 0.294345 0.050000
v 0.093057 0.250680 0.050000
v 0.093057 0.100000 0.050000
v 0.093057 0.100000 -0.050000
v 0.157480 0.100000 0.050000
v 0.157480 0.100000 -0.050000
v 0.157480 0.624696 0.050000
v 0.157480 0.624696 -0.050000
v 0.093057 0.624696 0.050000
v 0.093057 0.624696 -0.050000
v 0.093057 0.325483 0.050000
v 0.093057 0.325483 -0.050000
v -0.059413 0.480100 0.050000
v -0.059413 0.480100 -0.050000
v -0.142806 0.480100 0.050000
v -0.142806 0.480100 -0.050000
v 0.002505 0.339084 0.050000
v 0.002505 0.339084 -0.050000
v -0.157480 0.100000 0.050000
v -0.157480 0.100000 -0.050000
v -0.078024 0.100000 0.050000
v -0.078024 0.100000 -0.050000
v 0.047602 0.294345 0.050000
v 0.047602 0.294345 -0.050000
v 0.093057 0.250680 0.050000
v 0.093057 0.250680 -0.050000
vn -0.0000 -0.0000 -1.0000
vn 0.0000 0.0000 1.0000
vn -0.7071 -0.7071 0.0000
vn 0.7071 -0.7071 0.0000
vn 0.7071 0.7071 0.0000
vn -0.7071 0.7071 0.0000
vn -0.3795 0.9252 0.0000
vn 0.3859 0.9225 0.0000
vn -0.9267 0.3757 0.0000
vn -0.9945 -0.1051 0.0000
vn -0.8821 -0.4711 0.0000
vn 0.4781 -0.8783 0.0000
vn 0.1156 -0.9933 0.0000
vn -0.9200 -0.3919 0.0000
usemtl None
s 1
f 2//1 4//1 3//1
f 2//1 5//1 4//1
f 5//1 7//1 6//1
f 5//1 8//1 7//1
f 5//1 11//1 8//1
f 11//1 9//1 8//1
f 2//1 12//1 5//1
f 12//1 11//1 5//1
f 10//1 9//1 11//1
f 2//1 1//1 12//1
f 16//2 14//2 15//2
f 17//2 14//2 16//2
f 19//2 17//2 18//2
f 20//2 17//2 19//2
f 23//2 17//2 20//2
f 21//2 23//2 20//2
f 24//2 14//2 17//2
f 23//2 24//2 17//2
f 21//2 22//2 23//2
f 13//2 14//2 24//2
f 26//3 28//4 27//4 25//3
f 28//4 30//5 29//5 27//4
f 30//5 32//6 31//6 29//5
f 32//6 34//7 33//7 31//6
f 34//7 36//8 35//8 33//7
f 36//8 38//9 37//9 35//8
f 38//9 40//10 39//10 37//9
f 40//10 42//11 41//11 39//10
f 42//11 44//12 43//12 41//11
f 44//12 46//13 45//13 43//12
f 46//13 48//14 47//14 45//13
f 48//14 26//3 25//3 47//14
