# Blender v2.80 (sub 75) OBJ File: 'comma.blend'
# www.blender.org
mtllib lower_w.mtl
o Text_Text.141
v 0.077130 0.100000 -0.050000
v 0.144417 0.100000 -0.050000
v 0.260737 0.480100 -0.050000
v 0.194166 0.480100 -0.050000
v 0.133679 0.260702 -0.050000
v 0.111131 0.179098 -0.050000
v 0.110776 0.180572 -0.050000
v 0.110187 0.182966 -0.050000
v 0.109364 0.186279 -0.050000
v 0.108307 0.190512 -0.050000
v 0.107018 0.195664 -0.050000
v 0.105494 0.201736 -0.050000
v 0.103737 0.208728 -0.050000
v 0.101746 0.216639 -0.050000
v 0.099521 0.225470 -0.050000
v 0.097063 0.235220 -0.050000
v 0.094371 0.245891 -0.050000
v 0.091446 0.257480 -0.050000
v 0.030959 0.480100 -0.050000
v -0.035254 0.480100 -0.050000
v -0.092162 0.259628 -0.050000
v -0.111131 0.186972 -0.050000
v -0.132964 0.260344 -0.050000
v -0.198103 0.480100 -0.050000
v -0.260737 0.480100 -0.050000
v -0.141911 0.100000 -0.050000
v -0.074982 0.100000 -0.050000
v -0.014495 0.327631 -0.050000
v 0.000179 0.392412 -0.050000
v 0.077130 0.100000 0.050000
v 0.144417 0.100000 0.050000
v 0.260737 0.480100 0.050000
v 0.194166 0.480100 0.050000
v 0.133679 0.260702 0.050000
v 0.111131 0.179098 0.050000
v 0.110776 0.180572 0.050000
v 0.110187 0.182966 0.050000
v 0.109364 0.186279 0.050000
v 0.108307 0.190512 0.050000
v 0.107018 0.195664 0.050000
v 0.105494 0.201736 0.050000
v 0.103737 0.208728 0.050000
v 0.101746 0.216639 0.050000
v 0.099521 0.225470 0.050000
v 0.097063 0.235220 0.050000
v 0.094371 0.245891 0.050000
v 0.091446 0.257480 0.050000
v 0.030959 0.480100 0.050000
v -0.035254 0.480100 0.050000
v -0.092162 0.259628 0.050000
v -0.111131 0.186972 0.050000
v -0.132964 0.260344 0.050000
v -0.198103 0.480100 0.050000
v -0.260737 0.480100 0.050000
v -0.141911 0.100000 0.050000
v -0.074982 0.100000 0.050000
v -0.014495 0.327631 0.050000
v 0.000179 0.392412 0.050000
v 0.077130 0.100000 0.050000
v 0.077130 0.100000 -0.050000
v 0.144417 0.100000 0.050000
v 0.144417 0.100000 -0.050000
v 0.260737 0.480100 0.050000
v 0.260737 0.480100 -0.050000
v 0.194166 0.480100 0.050000
v 0.194166 0.480100 -0.050000
v 0.133679 0.260702 0.050000
v 0.133679 0.260702 -0.050000
v 0.111131 0.179098 0.050000
v 0.111131 0.179098 -0.050000
v 0.110776 0.180572 0.050000
v 0.110776 0.180572 -0.050000
v 0.110187 0.182966 0.050000
v 0.110187 0.182966 -0.050000
v 0.109364 0.186279 0.050000
v 0.109364 0.186279 -0.050000
v 0.108307 0.190512 0.050000
v 0.108307 0.190512 -0.050000
v 0.107018 0.195664 0.050000
v 0.107018 0.195664 -0.050000
v 0.105494 0.201736 0.050000
v 0.105494 0.201736 -0.050000
v 0.103737 0.208728 0.050000
v 0.103737 0.208728 -0.050000
v 0.101746 0.216639 0.050000
v 0.101746 0.216639 -0.050000
v 0.099521 0.225470 0.050000
v 0.099521 0.225470 -0.050000
v 0.097063 0.235220 0.050000
v 0.097063 0.235220 -0.050000
v 0.094371 0.245891 0.050000
v 0.094371 0.245891 -0.050000
v 0.091446 0.257480 0.050000
v 0.091446 0.257480 -0.050000
v 0.030959 0.480100 0.050000
v 0.030959 0.480100 -0.050000
v -0.035254 0.480100 0.050000
v -0.035254 0.480100 -0.050000
v -0.092162 0.259628 0.050000
v -0.092162 0.259628 -0.050000
v -0.111131 0.186972 0.050000
v -0.111131 0.186972 -0.050000
v -0.132964 0.260344 0.050000
v -0.132964 0.260344 -0.050000
v -0.198103 0.480100 0.050000
v -0.198103 0.480100 -0.050000
v -0.260737 0.480100 0.050000
v -0.260737 0.480100 -0.050000
v -0.141911 0.100000 0.050000
v -0.141911 0.100000 -0.050000
v -0.074982 0.100000 0.050000
v -0.074982 0.100000 -0.050000
v -0.014495 0.327631 0.050000
v -0.014495 0.327631 -0.050000
v 0.000179 0.392412 0.050000
v 0.000179 0.392412 -0.050000
vn -0.0000 -0.0000 -1.0000
vn -0.0000 0.0000 1.0000
vn -0.6105 -0.7920 0.0000
vn 0.5947 -0.8039 0.0000
vn 0.8039 0.5947 0.0000
vn -0.6059 0.7955 0.0000
vn -0.9640 0.2661 0.0000
vn 0.0165 0.9999 0.0000
vn 0.9716 0.2367 0.0000
vn 0.9708 0.2400 0.0000
vn 0.9704 0.2416 0.0000
vn 0.9702 0.2425 0.0000
vn 0.9700 0.2431 0.0000
vn 0.9699 0.2436 0.0000
vn 0.9698 0.2439 0.0000
vn 0.9697 0.2442 0.0000
vn 0.9697 0.2444 0.0000
vn 0.9696 0.2445 0.0000
vn 0.9696 0.2447 0.0000
vn 0.9673 0.2535 0.0000
vn 0.6074 0.7944 0.0000
vn -0.6124 0.7905 0.0000
vn -0.9679 0.2513 0.0000
vn -0.0169 0.9999 0.0000
vn 0.9586 0.2847 0.0000
vn 0.5982 0.8013 0.0000
vn -0.8057 0.5923 0.0000
vn -0.5923 -0.8057 0.0000
vn 0.6096 -0.7927 0.0000
vn 0.9710 -0.2389 0.0000
vn 0.0173 -0.9999 0.0000
usemtl None
s 1
f 2//1 4//1 3//1
f 2//1 5//1 4//1
f 18//1 20//1 19//1
f 18//1 29//1 20//1
f 29//1 21//1 20//1
f 23//1 25//1 24//1
f 23//1 26//1 25//1
f 18//1 1//1 29//1
f 28//1 21//1 29//1
f 27//1 21//1 28//1
f 2//1 6//1 5//1
f 22//1 26//1 23//1
f 27//1 22//1 21//1
f 17//1 1//1 18//1
f 16//1 1//1 17//1
f 15//1 1//1 16//1
f 14//1 1//1 15//1
f 13//1 1//1 14//1
f 12//1 1//1 13//1
f 11//1 1//1 12//1
f 10//1 1//1 11//1
f 9//1 1//1 10//1
f 27//1 26//1 22//1
f 8//1 1//1 9//1
f 7//1 1//1 8//1
f 6//1 1//1 7//1
f 2//1 1//1 6//1
f 33//2 31//2 32//2
f 34//2 31//2 33//2
f 49//2 47//2 48//2
f 58//2 47//2 49//2
f 50//2 58//2 49//2
f 54//2 52//2 53//2
f 55//2 52//2 54//2
f 30//2 47//2 58//2
f 50//2 57//2 58//2
f 50//2 56//2 57//2
f 35//2 31//2 34//2
f 55//2 51//2 52//2
f 51//2 56//2 50//2
f 30//2 46//2 47//2
f 30//2 45//2 46//2
f 30//2 44//2 45//2
f 30//2 43//2 44//2
f 30//2 42//2 43//2
f 30//2 41//2 42//2
f 30//2 40//2 41//2
f 30//2 39//2 40//2
f 30//2 38//2 39//2
f 55//2 56//2 51//2
f 30//2 37//2 38//2
f 30//2 36//2 37//2
f 30//2 35//2 36//2
f 30//2 31//2 35//2
f 60//3 62//4 61//4 59//3
f 62//4 64//5 63//5 61//4
f 64//5 66//6 65//6 63//5
f 66//6 68//7 67//7 65//6
f 68//7 70//8 69//8 67//7
f 70//8 72//9 71//9 69//8
f 72//9 74//10 73//10 71//9
f 74//10 76//11 75//11 73//10
f 76//11 78//12 77//12 75//11
f 78//12 80//13 79//13 77//12
f 80//13 82//14 81//14 79//13
f 82//14 84//15 83//15 81//14
f 84//15 86//16 85//16 83//15
f 86//16 88//17 87//17 85//16
f 88//17 90//18 89//18 87//17
f 90//18 92//19 91//19 89//18
f 92//19 94//20 93//20 91//19
f 94//20 96//21 95//21 93//20
f 96//21 98//22 97//22 95//21
f 98//22 100//23 99//23 97//22
f 100//23 102//24 101//24 99//23
f 102//24 104//25 103//25 101//24
f 104//25 106//26 105//26 103//25
f 106//26 108//27 107//27 105//26
f 108//27 110//28 109//28 107//27
f 110//28 112//29 111//29 109//28
f 112//29 114//30 113//30 111//29
f 114//30 116//31 115//31 113//30
f 116//31 60//3 59//3 115//31
