# Blender v2.80 (sub 75) OBJ File: 'comma.blend'
# www.blender.org
mtllib numbersign.mtl
o Text_Text.106
v 0.112384 0.091052 -0.050000
v 0.166070 0.091052 -0.050000
v 0.134932 0.243522 -0.050000
v 0.195419 0.243522 -0.050000
v 0.195419 0.296851 -0.050000
v 0.124195 0.296851 -0.050000
v 0.097709 0.426772 -0.050000
v 0.195419 0.426772 -0.050000
v 0.195419 0.480100 -0.050000
v 0.086972 0.480100 -0.050000
v 0.055834 0.633644 -0.050000
v 0.002147 0.633644 -0.050000
v 0.033286 0.480100 -0.050000
v -0.079456 0.480100 -0.050000
v -0.110594 0.633644 -0.050000
v -0.164638 0.633644 -0.050000
v -0.133500 0.480100 -0.050000
v -0.195419 0.480100 -0.050000
v -0.195419 0.426772 -0.050000
v -0.122763 0.426772 -0.050000
v -0.095920 0.296851 -0.050000
v -0.195419 0.296851 -0.050000
v -0.195419 0.243522 -0.050000
v -0.085183 0.243522 -0.050000
v -0.054044 0.091052 -0.050000
v -0.000358 0.091052 -0.050000
v -0.031138 0.243522 -0.050000
v 0.081246 0.243522 -0.050000
v 0.044023 0.426772 -0.050000
v 0.070508 0.296851 -0.050000
v -0.041875 0.296851 -0.050000
v -0.068719 0.426772 -0.050000
v 0.112384 0.091052 0.050000
v 0.166070 0.091052 0.050000
v 0.134932 0.243522 0.050000
v 0.195419 0.243522 0.050000
v 0.195419 0.296851 0.050000
v 0.124195 0.296851 0.050000
v 0.097709 0.426772 0.050000
v 0.195419 0.426772 0.050000
v 0.195419 0.480100 0.050000
v 0.086972 0.480100 0.050000
v 0.055834 0.633644 0.050000
v 0.002147 0.633644 0.050000
v 0.033286 0.480100 0.050000
v -0.079456 0.480100 0.050000
v -0.110594 0.633644 0.050000
v -0.164638 0.633644 0.050000
v -0.133500 0.480100 0.050000
v -0.195419 0.480100 0.050000
v -0.195419 0.426772 0.050000
v -0.122763 0.426772 0.050000
v -0.095920 0.296851 0.050000
v -0.195419 0.296851 0.050000
v -0.195419 0.243522 0.050000
v -0.085183 0.243522 0.050000
v -0.054044 0.091052 0.050000
v -0.000358 0.091052 0.050000
v -0.031138 0.243522 0.050000
v 0.081246 0.243522 0.050000
v 0.044023 0.426772 0.050000
v 0.070508 0.296851 0.050000
v -0.041875 0.296851 0.050000
v -0.068719 0.426772 0.050000
v 0.112384 0.091052 0.050000
v 0.112384 0.091052 -0.050000
v 0.166070 0.091052 0.050000
v 0.166070 0.091052 -0.050000
v 0.134932 0.243522 0.050000
v 0.134932 0.243522 -0.050000
v 0.195419 0.243522 0.050000
v 0.195419 0.243522 -0.050000
v 0.195419 0.296851 0.050000
v 0.195419 0.296851 -0.050000
v 0.124195 0.296851 0.050000
v 0.124195 0.296851 -0.050000
v 0.097709 0.426772 0.050000
v 0.097709 0.426772 -0.050000
v 0.195419 0.426772 0.050000
v 0.195419 0.426772 -0.050000
v 0.195419 0.480100 0.050000
v 0.195419 0.480100 -0.050000
v 0.086972 0.480100 0.050000
v 0.086972 0.480100 -0.050000
v 0.055834 0.633644 0.050000
v 0.055834 0.633644 -0.050000
v 0.002147 0.633644 0.050000
v 0.002147 0.633644 -0.050000
v 0.033286 0.480100 0.050000
v 0.033286 0.480100 -0.050000
v -0.079456 0.480100 0.050000
v -0.079456 0.480100 -0.050000
v -0.110594 0.633644 0.050000
v -0.110594 0.633644 -0.050000
v -0.164638 0.633644 0.050000
v -0.164638 0.633644 -0.050000
v -0.133500 0.480100 0.050000
v -0.133500 0.480100 -0.050000
v -0.195419 0.480100 0.050000
v -0.195419 0.480100 -0.050000
v -0.195419 0.426772 0.050000
v -0.195419 0.426772 -0.050000
v -0.122763 0.426772 0.050000
v -0.122763 0.426772 -0.050000
v -0.095920 0.296851 0.050000
v -0.095920 0.296851 -0.050000
v -0.195419 0.296851 0.050000
v -0.195419 0.296851 -0.050000
v -0.195419 0.243522 0.050000
v -0.195419 0.243522 -0.050000
v -0.085183 0.243522 0.050000
v -0.085183 0.243522 -0.050000
v -0.054044 0.091052 0.050000
v -0.054044 0.091052 -0.050000
v -0.000358 0.091052 0.050000
v -0.000358 0.091052 -0.050000
v -0.031138 0.243522 0.050000
v -0.031138 0.243522 -0.050000
v 0.081246 0.243522 0.050000
v 0.081246 0.243522 -0.050000
v 0.044023 0.426772 0.050000
v 0.044023 0.426772 -0.050000
v 0.070508 0.296851 0.050000
v 0.070508 0.296851 -0.050000
v -0.041875 0.296851 0.050000
v -0.041875 0.296851 -0.050000
v -0.068719 0.426772 0.050000
v -0.068719 0.426772 -0.050000
vn 0.0000 -0.0000 -1.0000
vn 0.0000 0.0000 1.0000
vn -0.6324 -0.7746 0.0000
vn 0.7746 -0.6324 0.0000
vn 0.7071 -0.7071 0.0000
vn 0.7071 0.7071 0.0000
vn 0.6326 0.7745 0.0000
vn 0.7745 -0.6326 0.0000
vn 0.6329 0.7742 0.0000
vn -0.7742 0.6329 0.0000
vn -0.7071 0.7071 0.0000
vn -0.7071 -0.7071 0.0000
vn -0.6315 -0.7754 0.0000
vn -0.7754 0.6315 0.0000
vn 0.7739 -0.6333 0.0000
vn -0.6326 -0.7745 0.0000
vn -0.7745 0.6326 0.0000
vn 0.6315 0.7754 0.0000
vn 0.7754 -0.6315 0.0000
usemtl None
s 1
f 10//1 12//1 11//1
f 10//1 13//1 12//1
f 14//1 16//1 15//1
f 14//1 17//1 16//1
f 8//1 10//1 9//1
f 8//1 13//1 10//1
f 8//1 14//1 13//1
f 8//1 17//1 14//1
f 8//1 18//1 17//1
f 8//1 19//1 18//1
f 7//2 19//2 8//2
f 6//1 29//2 7//1
f 29//2 19//1 7//1
f 6//1 30//1 29//2
f 32//2 19//1 29//2
f 31//1 20//2 32//2
f 20//2 19//1 32//2
f 31//1 21//1 20//2
f 4//1 6//1 5//1
f 4//1 30//1 6//1
f 4//1 31//1 30//1
f 4//1 21//1 31//1
f 4//1 22//1 21//1
f 4//1 23//1 22//1
f 3//2 23//2 4//2
f 2//1 28//1 3//1
f 28//1 23//1 3//1
f 2//1 1//1 28//1
f 27//2 23//1 28//1
f 26//1 24//2 27//2
f 24//2 23//1 27//2
f 26//1 25//1 24//2
f 44//2 42//2 43//2
f 45//2 42//2 44//2
f 48//2 46//2 47//2
f 49//2 46//2 48//2
f 42//2 40//2 41//2
f 45//2 40//2 42//2
f 46//2 40//2 45//2
f 49//2 40//2 46//2
f 50//2 40//2 49//2
f 51//2 40//2 50//2
f 51//1 39//1 40//1
f 61//2 38//2 39//2
f 51//2 61//2 39//2
f 62//2 38//2 61//2
f 51//1 64//2 61//2
f 52//2 63//2 64//2
f 51//1 52//2 64//2
f 53//2 63//2 52//2
f 38//2 36//2 37//2
f 62//2 36//2 38//2
f 63//2 36//2 62//2
f 53//2 36//2 63//2
f 54//2 36//2 53//2
f 55//2 36//2 54//2
f 55//1 35//1 36//1
f 60//2 34//2 35//2
f 55//2 60//2 35//2
f 33//2 34//2 60//2
f 55//1 59//1 60//1
f 56//2 58//2 59//2
f 55//1 56//2 59//1
f 57//2 58//2 56//2
f 66//3 68//4 67//4 65//3
f 68//4 70//4 69//4 67//4
f 70//4 72//5 71//5 69//4
f 72//5 74//6 73//6 71//5
f 74//6 76//7 75//7 73//6
f 76//7 78//8 77//8 75//7
f 78//8 80//5 79//5 77//8
f 80//5 82//6 81//6 79//5
f 82//6 84//9 83//9 81//6
f 84//9 86//9 85//9 83//9
f 86//9 88//10 87//10 85//9
f 88//10 90//10 89//10 87//10
f 90//10 92//9 91//9 89//10
f 92//9 94//9 93//9 91//9
f 94//9 96//10 95//10 93//9
f 96//10 98//10 97//10 95//10
f 98//10 100//11 99//11 97//10
f 100//11 102//12 101//12 99//11
f 102//12 104//13 103//13 101//12
f 104//13 106//14 105//14 103//13
f 106//14 108//11 107//11 105//14
f 108//11 110//12 109//12 107//11
f 110//12 112//3 111//3 109//12
f 112//3 114//3 113//3 111//3
f 114//3 116//15 115//15 113//3
f 116//15 118//15 117//15 115//15
f 118//15 120//3 119//3 117//15
f 120//3 66//3 65//3 119//3
f 122//16 124//17 123//17 121//16
f 124//17 126//18 125//18 123//17
f 126//18 128//19 127//19 125//18
f 128//19 122//16 121//16 127//19
