# Blender v2.80 (sub 75) OBJ File: 'comma.blend'
# www.blender.org
mtllib quotesingle.mtl
o Text_Text.121
v -0.019506 0.438941 -0.050000
v 0.020222 0.438941 -0.050000
v 0.036686 0.537008 -0.050000
v 0.036686 0.624696 -0.050000
v -0.036686 0.624696 -0.050000
v -0.036686 0.537008 -0.050000
v -0.019506 0.438941 0.050000
v 0.020222 0.438941 0.050000
v 0.036686 0.537008 0.050000
v 0.036686 0.624696 0.050000
v -0.036686 0.624696 0.050000
v -0.036686 0.537008 0.050000
v -0.019506 0.438941 0.050000
v -0.019506 0.438941 -0.050000
v 0.020222 0.438941 0.050000
v 0.020222 0.438941 -0.050000
v 0.036686 0.537008 0.050000
v 0.036686 0.537008 -0.050000
v 0.036686 0.624696 0.050000
v 0.036686 0.624696 -0.050000
v -0.036686 0.624696 0.050000
v -0.036686 0.624696 -0.050000
v -0.036686 0.537008 0.050000
v -0.036686 0.537008 -0.050000
vn 0.0000 -0.0000 -1.0000
vn 0.0000 0.0000 1.0000
vn -0.6432 -0.7657 0.0000
vn 0.6459 -0.7634 0.0000
vn 0.9965 -0.0831 0.0000
vn 0.7071 0.7071 0.0000
vn -0.7071 0.7071 0.0000
vn -0.9962 -0.0866 0.0000
usemtl None
s 1
f 3//1 5//1 4//1
f 3//1 6//1 5//1
f 2//1 6//1 3//1
f 2//1 1//1 6//1
f 11//2 9//2 10//2
f 12//2 9//2 11//2
f 12//2 8//2 9//2
f 7//2 8//2 12//2
f 14//3 16//4 15//4 13//3
f 16//4 18//5 17//5 15//4
f 18//5 20//6 19//6 17//5
f 20//6 22//7 21//7 19//6
f 22//7 24//8 23//8 21//7
f 24//8 14//3 13//3 23//8
