# Blender v2.80 (sub 75) OBJ File: 'comma.blend'
# www.blender.org
mtllib semicolon.mtl
o Text_Text.124
v -0.038833 0.406729 -0.050000
v 0.034538 0.406729 -0.050000
v 0.034538 0.480100 -0.050000
v -0.038833 0.480100 -0.050000
v -0.001969 0.100000 -0.050000
v 0.034538 0.100000 -0.050000
v 0.034538 0.173372 -0.050000
v -0.038833 0.173372 -0.050000
v -0.038833 0.100000 -0.050000
v -0.038734 0.093368 -0.050000
v -0.038436 0.086951 -0.050000
v -0.037938 0.080751 -0.050000
v -0.037243 0.074767 -0.050000
v -0.036348 0.069000 -0.050000
v -0.035254 0.063449 -0.050000
v -0.033962 0.058113 -0.050000
v -0.032470 0.052995 -0.050000
v -0.030780 0.048092 -0.050000
v -0.028891 0.043406 -0.050000
v -0.026803 0.038935 -0.050000
v -0.024517 0.034682 -0.050000
v -0.022014 0.030614 -0.050000
v -0.019277 0.026703 -0.050000
v -0.016307 0.022949 -0.050000
v -0.013103 0.019351 -0.050000
v -0.009666 0.015910 -0.050000
v -0.005995 0.012625 -0.050000
v -0.002090 0.009497 -0.050000
v 0.002048 0.006526 -0.050000
v 0.006420 0.003711 -0.050000
v 0.011026 0.001053 -0.050000
v 0.015865 -0.001449 -0.050000
v 0.020938 -0.003794 -0.050000
v 0.038833 0.023765 -0.050000
v 0.035508 0.025315 -0.050000
v 0.032331 0.026982 -0.050000
v 0.029304 0.028765 -0.050000
v 0.026426 0.030665 -0.050000
v 0.023697 0.032682 -0.050000
v 0.021117 0.034816 -0.050000
v 0.018686 0.037066 -0.050000
v 0.016404 0.039434 -0.050000
v 0.014272 0.041918 -0.050000
v 0.012288 0.044519 -0.050000
v 0.010454 0.047237 -0.050000
v 0.008769 0.050072 -0.050000
v 0.007218 0.053070 -0.050000
v 0.005786 0.056280 -0.050000
v 0.004474 0.059702 -0.050000
v 0.003281 0.063334 -0.050000
v 0.002207 0.067178 -0.050000
v 0.001253 0.071233 -0.050000
v 0.000418 0.075499 -0.050000
v -0.000298 0.079977 -0.050000
v -0.000895 0.084666 -0.050000
v -0.001372 0.089566 -0.050000
v -0.001730 0.094677 -0.050000
v -0.038833 0.406729 0.050000
v 0.034538 0.406729 0.050000
v 0.034538 0.480100 0.050000
v -0.038833 0.480100 0.050000
v -0.001969 0.100000 0.050000
v 0.034538 0.100000 0.050000
v 0.034538 0.173372 0.050000
v -0.038833 0.173372 0.050000
v -0.038833 0.100000 0.050000
v -0.038734 0.093368 0.050000
v -0.038436 0.086951 0.050000
v -0.037938 0.080751 0.050000
v -0.037243 0.074767 0.050000
v -0.036348 0.069000 0.050000
v -0.035254 0.063449 0.050000
v -0.033962 0.058113 0.050000
v -0.032470 0.052995 0.050000
v -0.030780 0.048092 0.050000
v -0.028891 0.043406 0.050000
v -0.026803 0.038935 0.050000
v -0.024517 0.034682 0.050000
v -0.022014 0.030614 0.050000
v -0.019277 0.026703 0.050000
v -0.016307 0.022949 0.050000
v -0.013103 0.019351 0.050000
v -0.009666 0.015910 0.050000
v -0.005995 0.012625 0.050000
v -0.002090 0.009497 0.050000
v 0.002048 0.006526 0.050000
v 0.006420 0.003711 0.050000
v 0.011026 0.001053 0.050000
v 0.015865 -0.001449 0.050000
v 0.020938 -0.003794 0.050000
v 0.038833 0.023765 0.050000
v 0.035508 0.025315 0.050000
v 0.032331 0.026982 0.050000
v 0.029304 0.028765 0.050000
v 0.026426 0.030665 0.050000
v 0.023697 0.032682 0.050000
v 0.021117 0.034816 0.050000
v 0.018686 0.037066 0.050000
v 0.016404 0.039434 0.050000
v 0.014272 0.041918 0.050000
v 0.012288 0.044519 0.050000
v 0.010454 0.047237 0.050000
v 0.008769 0.050072 0.050000
v 0.007218 0.053070 0.050000
v 0.005786 0.056280 0.050000
v 0.004474 0.059702 0.050000
v 0.003281 0.063334 0.050000
v 0.002207 0.067178 0.050000
v 0.001253 0.071233 0.050000
v 0.000418 0.075499 0.050000
v -0.000298 0.079977 0.050000
v -0.000895 0.084666 0.050000
v -0.001372 0.089566 0.050000
v -0.001730 0.094677 0.050000
v -0.038833 0.406729 0.050000
v -0.038833 0.406729 -0.050000
v 0.034538 0.406729 0.050000
v 0.034538 0.406729 -0.050000
v 0.034538 0.480100 0.050000
v 0.034538 0.480100 -0.050000
v -0.038833 0.480100 0.050000
v -0.038833 0.480100 -0.050000
v -0.001969 0.100000 0.050000
v -0.001969 0.100000 -0.050000
v 0.034538 0.100000 0.050000
v 0.034538 0.100000 -0.050000
v 0.034538 0.173372 0.050000
v 0.034538 0.173372 -0.050000
v -0.038833 0.173372 0.050000
v -0.038833 0.173372 -0.050000
v -0.038833 0.100000 0.050000
v -0.038833 0.100000 -0.050000
v -0.038734 0.093368 0.050000
v -0.038734 0.093368 -0.050000
v -0.038436 0.086951 0.050000
v -0.038436 0.086951 -0.050000
v -0.037938 0.080751 0.050000
v -0.037938 0.080751 -0.050000
v -0.037243 0.074767 0.050000
v -0.037243 0.074767 -0.050000
v -0.036348 0.069000 0.050000
v -0.036348 0.069000 -0.050000
v -0.035254 0.063449 0.050000
v -0.035254 0.063449 -0.050000
v -0.033962 0.058113 0.050000
v -0.033962 0.058113 -0.050000
v -0.032470 0.052995 0.050000
v -0.032470 0.052995 -0.050000
v -0.030780 0.048092 0.050000
v -0.030780 0.048092 -0.050000
v -0.028891 0.043406 0.050000
v -0.028891 0.043406 -0.050000
v -0.026803 0.038935 0.050000
v -0.026803 0.038935 -0.050000
v -0.024517 0.034682 0.050000
v -0.024517 0.034682 -0.050000
v -0.022014 0.030614 0.050000
v -0.022014 0.030614 -0.050000
v -0.019277 0.026703 0.050000
v -0.019277 0.026703 -0.050000
v -0.016307 0.022949 0.050000
v -0.016307 0.022949 -0.050000
v -0.013103 0.019351 0.050000
v -0.013103 0.019351 -0.050000
v -0.009666 0.015910 0.050000
v -0.009666 0.015910 -0.050000
v -0.005995 0.012625 0.050000
v -0.005995 0.012625 -0.050000
v -0.002090 0.009497 0.050000
v -0.002090 0.009497 -0.050000
v 0.002048 0.006526 0.050000
v 0.002048 0.006526 -0.050000
v 0.006420 0.003711 0.050000
v 0.006420 0.003711 -0.050000
v 0.011026 0.001053 0.050000
v 0.011026 0.001053 -0.050000
v 0.015865 -0.001449 0.050000
v 0.015865 -0.001449 -0.050000
v 0.020938 -0.003794 0.050000
v 0.020938 -0.003794 -0.050000
v 0.038833 0.023765 0.050000
v 0.038833 0.023765 -0.050000
v 0.035508 0.025315 0.050000
v 0.035508 0.025315 -0.050000
v 0.032331 0.026982 0.050000
v 0.032331 0.026982 -0.050000
v 0.029304 0.028765 0.050000
v 0.029304 0.028765 -0.050000
v 0.026426 0.030665 0.050000
v 0.026426 0.030665 -0.050000
v 0.023697 0.032682 0.050000
v 0.023697 0.032682 -0.050000
v 0.021117 0.034816 0.050000
v 0.021117 0.034816 -0.050000
v 0.018686 0.037066 0.050000
v 0.018686 0.037066 -0.050000
v 0.016404 0.039434 0.050000
v 0.016404 0.039434 -0.050000
v 0.014272 0.041918 0.050000
v 0.014272 0.041918 -0.050000
v 0.012288 0.044519 0.050000
v 0.012288 0.044519 -0.050000
v 0.010454 0.047237 0.050000
v 0.010454 0.047237 -0.050000
v 0.008769 0.050072 0.050000
v 0.008769 0.050072 -0.050000
v 0.007218 0.053070 0.050000
v 0.007218 0.053070 -0.050000
v 0.005786 0.056280 0.050000
v 0.005786 0.056280 -0.050000
v 0.004474 0.059702 0.050000
v 0.004474 0.059702 -0.050000
v 0.003281 0.063334 0.050000
v 0.003281 0.063334 -0.050000
v 0.002207 0.067178 0.050000
v 0.002207 0.067178 -0.050000
v 0.001253 0.071233 0.050000
v 0.001253 0.071233 -0.050000
v 0.000418 0.075499 0.050000
v 0.000418 0.075499 -0.050000
v -0.000298 0.079977 0.050000
v -0.000298 0.079977 -0.050000
v -0.000895 0.084666 0.050000
v -0.000895 0.084666 -0.050000
v -0.001372 0.089566 0.050000
v -0.001372 0.089566 -0.050000
v -0.001730 0.094677 0.050000
v -0.001730 0.094677 -0.050000
vn 0.0000 -0.0000 -1.0000
vn 0.0000 0.0000 1.0000
vn -0.7071 -0.7071 0.0000
vn 0.7071 -0.7071 0.0000
vn 0.7071 0.7071 0.0000
vn -0.7071 0.7071 0.0000
vn 0.7228 -0.6911 0.0000
vn -1.0000 -0.0075 0.0000
vn -0.9995 -0.0307 0.0000
vn -0.9980 -0.0632 0.0000
vn -0.9952 -0.0977 0.0000
vn -0.9909 -0.1344 0.0000
vn -0.9849 -0.1733 0.0000
vn -0.9767 -0.2144 0.0000
vn -0.9662 -0.2576 0.0000
vn -0.9530 -0.3029 0.0000
vn -0.9368 -0.3500 0.0000
vn -0.9171 -0.3987 0.0000
vn -0.8938 -0.4485 0.0000
vn -0.8666 -0.4990 0.0000
vn -0.8359 -0.5489 0.0000
vn -0.8021 -0.5971 0.0000
vn -0.7659 -0.6430 0.0000
vn -0.7274 -0.6862 0.0000
vn -0.6874 -0.7263 0.0000
vn -0.6462 -0.7631 0.0000
vn -0.6044 -0.7967 0.0000
vn -0.5625 -0.8268 0.0000
vn -0.5208 -0.8537 0.0000
vn -0.4797 -0.8774 0.0000
vn -0.4395 -0.8982 0.0000
vn 0.2773 -0.9608 0.0000
vn 0.9612 0.2758 -0.0000
vn 0.4436 0.8962 -0.0000
vn 0.4862 0.8738 -0.0000
vn 0.5294 0.8484 -0.0000
vn 0.5729 0.8197 -0.0000
vn 0.6161 0.7877 -0.0000
vn 0.6586 0.7525 -0.0000
vn 0.7000 0.7142 -0.0000
vn 0.7397 0.6729 -0.0000
vn 0.7773 0.6291 -0.0000
vn 0.8124 0.5831 -0.0000
vn 0.8446 0.5354 -0.0000
vn 0.8743 0.4854 -0.0000
vn 0.9011 0.4335 -0.0000
vn 0.9238 0.3829 -0.0000
vn 0.9422 0.3352 -0.0000
vn 0.9568 0.2906 -0.0000
vn 0.9685 0.2491 0.0000
vn 0.9776 0.2106 0.0000
vn 0.9846 0.1750 0.0000
vn 0.9899 0.1421 0.0000
vn 0.9938 0.1116 0.0000
vn 0.9965 0.0834 0.0000
vn 0.9984 0.0573 0.0000
usemtl None
s 1
f 6//1 8//1 7//1
f 6//1 9//1 8//1
f 5//2 9//1 6//1
f 57//1 9//1 5//2
f 57//1 10//1 9//1
f 56//1 10//1 57//1
f 56//1 11//1 10//1
f 55//1 11//1 56//1
f 55//1 12//1 11//1
f 54//1 12//1 55//1
f 54//1 13//1 12//1
f 53//1 13//1 54//1
f 52//1 13//1 53//1
f 52//1 14//1 13//1
f 51//1 14//1 52//1
f 51//1 15//1 14//1
f 50//1 15//1 51//1
f 50//1 16//1 15//1
f 49//1 16//1 50//1
f 48//1 16//1 49//1
f 48//1 17//1 16//1
f 47//1 17//1 48//1
f 46//1 17//1 47//1
f 46//1 18//1 17//1
f 45//1 18//1 46//1
f 45//1 19//1 18//1
f 44//1 19//1 45//1
f 43//1 19//1 44//1
f 43//1 20//1 19//1
f 42//1 20//1 43//1
f 41//1 20//1 42//1
f 41//1 21//1 20//1
f 40//1 21//1 41//1
f 39//1 21//1 40//1
f 39//1 22//1 21//1
f 38//1 22//1 39//1
f 37//1 22//1 38//1
f 37//1 23//1 22//1
f 36//1 23//1 37//1
f 35//1 23//1 36//1
f 35//1 24//1 23//1
f 34//1 24//1 35//1
f 33//1 24//1 34//1
f 33//1 25//1 24//1
f 33//1 26//1 25//1
f 33//1 27//1 26//1
f 33//1 28//1 27//1
f 33//1 29//1 28//1
f 33//1 30//1 29//1
f 33//1 31//1 30//1
f 33//1 32//1 31//1
f 2//1 4//1 3//1
f 2//1 1//1 4//1
f 65//2 63//2 64//2
f 66//2 63//2 65//2
f 66//2 62//2 63//2
f 66//2 114//2 62//2
f 67//2 114//2 66//2
f 67//2 113//2 114//2
f 68//2 113//2 67//2
f 68//2 112//2 113//2
f 69//2 112//2 68//2
f 69//2 111//2 112//2
f 70//2 111//2 69//2
f 70//2 110//2 111//2
f 70//2 109//2 110//2
f 71//2 109//2 70//2
f 71//2 108//2 109//2
f 72//2 108//2 71//2
f 72//2 107//2 108//2
f 73//2 107//2 72//2
f 73//2 106//2 107//2
f 73//2 105//2 106//2
f 74//2 105//2 73//2
f 74//2 104//2 105//2
f 74//2 103//2 104//2
f 75//2 103//2 74//2
f 75//2 102//2 103//2
f 76//2 102//2 75//2
f 76//2 101//2 102//2
f 76//2 100//2 101//2
f 77//2 100//2 76//2
f 77//2 99//2 100//2
f 77//2 98//2 99//2
f 78//2 98//2 77//2
f 78//2 97//2 98//2
f 78//2 96//2 97//2
f 79//2 96//2 78//2
f 79//2 95//2 96//2
f 79//2 94//2 95//2
f 80//2 94//2 79//2
f 80//2 93//2 94//2
f 80//2 92//2 93//2
f 81//2 92//2 80//2
f 81//2 91//2 92//2
f 81//2 90//2 91//2
f 82//2 90//2 81//2
f 83//2 90//2 82//2
f 84//2 90//2 83//2
f 85//2 90//2 84//2
f 86//2 90//2 85//2
f 87//2 90//2 86//2
f 88//2 90//2 87//2
f 89//2 90//2 88//2
f 61//2 59//2 60//2
f 58//2 59//2 61//2
f 116//3 118//4 117//4 115//3
f 118//4 120//5 119//5 117//4
f 120//5 122//6 121//6 119//5
f 122//6 116//3 115//3 121//6
f 124//7 126//4 125//4 123//7
f 126//4 128//5 127//5 125//4
f 128//5 130//6 129//6 127//5
f 130//6 132//8 131//8 129//6
f 132//8 134//9 133//9 131//8
f 134//9 136//10 135//10 133//9
f 136//10 138//11 137//11 135//10
f 138//11 140//12 139//12 137//11
f 140//12 142//13 141//13 139//12
f 142//13 144//14 143//14 141//13
f 144//14 146//15 145//15 143//14
f 146//15 148//16 147//16 145//15
f 148//16 150//17 149//17 147//16
f 150//17 152//18 151//18 149//17
f 152//18 154//19 153//19 151//18
f 154//19 156//20 155//20 153//19
f 156//20 158//21 157//21 155//20
f 158//21 160//22 159//22 157//21
f 160//22 162//23 161//23 159//22
f 162//23 164//24 163//24 161//23
f 164//24 166//25 165//25 163//24
f 166//25 168//26 167//26 165//25
f 168//26 170//27 169//27 167//26
f 170//27 172//28 171//28 169//27
f 172//28 174//29 173//29 171//28
f 174//29 176//30 175//30 173//29
f 176//30 178//31 177//31 175//30
f 178//31 180//32 179//32 177//31
f 180//32 182//33 181//33 179//32
f 182//33 184//34 183//34 181//33
f 184//34 186//35 185//35 183//34
f 186//35 188//36 187//36 185//35
f 188//36 190//37 189//37 187//36
f 190//37 192//38 191//38 189//37
f 192//38 194//39 193//39 191//38
f 194//39 196//40 195//40 193//39
f 196//40 198//41 197//41 195//40
f 198//41 200//42 199//42 197//41
f 200//42 202//43 201//43 199//42
f 202//43 204//44 203//44 201//43
f 204//44 206//45 205//45 203//44
f 206//45 208//46 207//46 205//45
f 208//46 210//47 209//47 207//46
f 210//47 212//48 211//48 209//47
f 212//48 214//49 213//49 211//48
f 214//49 216//50 215//50 213//49
f 216//50 218//51 217//51 215//50
f 218//51 220//52 219//52 217//51
f 220//52 222//53 221//53 219//52
f 222//53 224//54 223//54 221//53
f 224//54 226//55 225//55 223//54
f 226//55 228//56 227//56 225//55
f 228//56 124//7 123//7 227//56
