# Blender v2.80 (sub 75) OBJ File: ''
# www.blender.org
mtllib upper_A_diae.mtl
o Text_Text.001
v 0.091983 0.656908 0.050000
v 0.024696 0.656908 0.050000
v 0.024696 0.730279 0.050000
v 0.091983 0.730279 0.050000
v -0.171797 0.100000 0.050000
v -0.245526 0.100000 0.050000
v -0.044023 0.624696 0.050000
v 0.030780 0.624696 0.050000
v 0.245526 0.100000 0.050000
v 0.166428 0.100000 0.050000
v 0.105225 0.258912 0.050000
v -0.114173 0.258912 0.050000
v -0.036507 0.469363 0.050000
v -0.094130 0.315462 0.050000
v 0.083751 0.315462 0.050000
v 0.028991 0.460773 0.050000
v 0.024905 0.471645 0.050000
v 0.020997 0.482188 0.050000
v 0.017269 0.492403 0.050000
v 0.013720 0.502291 0.050000
v 0.010350 0.511850 0.050000
v 0.007158 0.521081 0.050000
v 0.004146 0.529984 0.050000
v 0.001312 0.538559 0.050000
v -0.001342 0.546806 0.050000
v -0.003818 0.554725 0.050000
v -0.006114 0.562315 0.050000
v -0.008232 0.569578 0.050000
v -0.009959 0.561172 0.050000
v -0.011801 0.552776 0.050000
v -0.013757 0.544390 0.050000
v -0.015828 0.536014 0.050000
v -0.018012 0.527648 0.050000
v -0.020311 0.519291 0.050000
v -0.022725 0.510945 0.050000
v -0.025253 0.502609 0.050000
v -0.027895 0.494282 0.050000
v -0.030651 0.485966 0.050000
v -0.033522 0.477660 0.050000
v -0.041518 0.656908 0.050000
v -0.108805 0.656908 0.050000
v -0.108805 0.730279 0.050000
v -0.041518 0.730279 0.050000
v 0.091983 0.656908 -0.050000
v 0.024696 0.656908 -0.050000
v 0.024696 0.730279 -0.050000
v 0.091983 0.730279 -0.050000
v -0.171797 0.100000 -0.050000
v -0.245526 0.100000 -0.050000
v -0.044023 0.624696 -0.050000
v 0.030780 0.624696 -0.050000
v 0.245526 0.100000 -0.050000
v 0.166428 0.100000 -0.050000
v 0.105225 0.258912 -0.050000
v -0.114173 0.258912 -0.050000
v -0.036507 0.469363 -0.050000
v -0.094130 0.315462 -0.050000
v 0.083751 0.315462 -0.050000
v 0.028991 0.460773 -0.050000
v 0.024905 0.471645 -0.050000
v 0.020997 0.482188 -0.050000
v 0.017269 0.492403 -0.050000
v 0.013720 0.502291 -0.050000
v 0.010350 0.511850 -0.050000
v 0.007158 0.521081 -0.050000
v 0.004146 0.529984 -0.050000
v 0.001312 0.538559 -0.050000
v -0.001342 0.546806 -0.050000
v -0.003818 0.554725 -0.050000
v -0.006114 0.562315 -0.050000
v -0.008232 0.569578 -0.050000
v -0.009959 0.561172 -0.050000
v -0.011801 0.552776 -0.050000
v -0.013757 0.544390 -0.050000
v -0.015828 0.536014 -0.050000
v -0.018012 0.527648 -0.050000
v -0.020311 0.519291 -0.050000
v -0.022725 0.510945 -0.050000
v -0.025253 0.502609 -0.050000
v -0.027895 0.494282 -0.050000
v -0.030651 0.485966 -0.050000
v -0.033522 0.477660 -0.050000
v -0.041518 0.656908 -0.050000
v -0.108805 0.656908 -0.050000
v -0.108805 0.730279 -0.050000
v -0.041518 0.730279 -0.050000
v -0.171797 0.100000 -0.050000
v -0.171797 0.100000 0.050000
v -0.245526 0.100000 -0.050000
v -0.245526 0.100000 0.050000
v -0.044023 0.624696 -0.050000
v -0.044023 0.624696 0.050000
v 0.030780 0.624696 -0.050000
v 0.030780 0.624696 0.050000
v 0.245526 0.100000 -0.050000
v 0.245526 0.100000 0.050000
v 0.166428 0.100000 -0.050000
v 0.166428 0.100000 0.050000
v 0.105225 0.258912 -0.050000
v 0.105225 0.258912 0.050000
v -0.114173 0.258912 -0.050000
v -0.114173 0.258912 0.050000
v -0.036507 0.469363 -0.050000
v -0.036507 0.469363 0.050000
v -0.094130 0.315462 -0.050000
v -0.094130 0.315462 0.050000
v 0.083751 0.315462 -0.050000
v 0.083751 0.315462 0.050000
v 0.028991 0.460773 -0.050000
v 0.028991 0.460773 0.050000
v 0.024905 0.471645 -0.050000
v 0.024905 0.471645 0.050000
v 0.020997 0.482188 -0.050000
v 0.020997 0.482188 0.050000
v 0.017269 0.492403 -0.050000
v 0.017269 0.492403 0.050000
v 0.013720 0.502291 -0.050000
v 0.013720 0.502291 0.050000
v 0.010350 0.511850 -0.050000
v 0.010350 0.511850 0.050000
v 0.007158 0.521081 -0.050000
v 0.007158 0.521081 0.050000
v 0.004146 0.529984 -0.050000
v 0.004146 0.529984 0.050000
v 0.001312 0.538559 -0.050000
v 0.001312 0.538559 0.050000
v -0.001342 0.546806 -0.050000
v -0.001342 0.546806 0.050000
v -0.003818 0.554725 -0.050000
v -0.003818 0.554725 0.050000
v -0.006114 0.562315 -0.050000
v -0.006114 0.562315 0.050000
v -0.008232 0.569578 -0.050000
v -0.008232 0.569578 0.050000
v -0.009959 0.561172 -0.050000
v -0.009959 0.561172 0.050000
v -0.011801 0.552776 -0.050000
v -0.011801 0.552776 0.050000
v -0.013757 0.544390 -0.050000
v -0.013757 0.544390 0.050000
v -0.015828 0.536014 -0.050000
v -0.015828 0.536014 0.050000
v -0.018012 0.527648 -0.050000
v -0.018012 0.527648 0.050000
v -0.020311 0.519291 -0.050000
v -0.020311 0.519291 0.050000
v -0.022725 0.510945 -0.050000
v -0.022725 0.510945 0.050000
v -0.025253 0.502609 -0.050000
v -0.025253 0.502609 0.050000
v -0.027895 0.494282 -0.050000
v -0.027895 0.494282 0.050000
v -0.030651 0.485966 -0.050000
v -0.030651 0.485966 0.050000
v -0.033522 0.477660 -0.050000
v -0.033522 0.477660 0.050000
v -0.041518 0.656908 -0.050000
v -0.041518 0.656908 0.050000
v -0.108805 0.656908 -0.050000
v -0.108805 0.656908 0.050000
v -0.108805 0.730279 -0.050000
v -0.108805 0.730279 0.050000
v -0.041518 0.730279 -0.050000
v -0.041518 0.730279 0.050000
v 0.091983 0.656908 -0.050000
v 0.091983 0.656908 0.050000
v 0.024696 0.656908 -0.050000
v 0.024696 0.656908 0.050000
v 0.024696 0.730279 -0.050000
v 0.024696 0.730279 0.050000
v 0.091983 0.730279 -0.050000
v 0.091983 0.730279 0.050000
vn 0.0000 -0.0000 1.0000
vn 0.0000 0.0000 -1.0000
vn 0.5741 -0.8188 0.0000
vn -0.8242 -0.5663 0.0000
vn -0.5663 0.8242 0.0000
vn 0.5573 0.8303 0.0000
vn 0.8303 -0.5573 0.0000
vn -0.5659 -0.8244 0.0000
vn 0.9387 -0.3446 0.0000
vn 0.8218 0.5698 0.0000
vn -0.8224 0.5689 0.0000
vn -0.9359 -0.3522 0.0000
vn -0.9369 -0.3497 0.0000
vn -0.9385 -0.3452 0.0000
vn -0.9403 -0.3404 0.0000
vn -0.9422 -0.3352 0.0000
vn -0.9441 -0.3296 0.0000
vn -0.9462 -0.3236 0.0000
vn -0.9484 -0.3171 0.0000
vn -0.9507 -0.3101 0.0000
vn -0.9532 -0.3024 0.0000
vn -0.9558 -0.2940 0.0000
vn -0.9586 -0.2848 0.0000
vn 0.0405 -0.9992 0.0000
vn 0.9782 -0.2078 0.0000
vn 0.9753 -0.2207 0.0000
vn 0.9723 -0.2336 0.0000
vn 0.9692 -0.2463 0.0000
vn 0.9659 -0.2590 0.0000
vn 0.9624 -0.2715 0.0000
vn 0.9588 -0.2840 0.0000
vn 0.9551 -0.2963 0.0000
vn 0.9512 -0.3085 0.0000
vn 0.9472 -0.3206 0.0000
vn 0.9431 -0.3326 0.0000
vn 0.7071 -0.7071 0.0000
vn -0.7071 -0.7071 0.0000
vn -0.7071 0.7071 0.0000
vn 0.7071 0.7071 0.0000
usemtl None
s 1
f 6//1 28//1 7//1
f 28//1 8//1 7//1
f 28//1 9//1 8//1
f 6//1 29//1 28//1
f 27//1 9//1 28//1
f 26//1 9//1 27//1
f 6//1 30//1 29//1
f 25//1 9//1 26//1
f 6//1 31//1 30//1
f 24//1 9//1 25//1
f 6//1 32//1 31//1
f 23//1 9//1 24//1
f 6//1 33//1 32//1
f 22//1 9//1 23//1
f 6//1 34//1 33//1
f 21//1 9//1 22//1
f 6//1 35//1 34//1
f 20//1 9//1 21//1
f 6//1 36//1 35//1
f 6//1 37//1 36//1
f 19//1 9//1 20//1
f 6//1 38//1 37//1
f 18//1 9//1 19//1
f 6//1 39//1 38//1
f 17//1 9//1 18//1
f 6//1 13//1 39//1
f 16//1 9//1 17//1
f 6//1 14//1 13//1
f 15//1 9//1 16//1
f 6//1 12//1 14//1
f 12//1 15//1 14//1
f 12//1 11//1 15//1
f 11//1 9//1 15//1
f 6//1 5//1 12//1
f 10//1 9//1 11//1
f 41//1 43//1 42//1
f 41//1 40//1 43//1
f 2//1 4//1 3//1
f 2//1 1//1 4//1
f 71//2 49//2 50//2
f 51//2 71//2 50//2
f 52//2 71//2 51//2
f 72//2 49//2 71//2
f 52//2 70//2 71//2
f 52//2 69//2 70//2
f 73//2 49//2 72//2
f 52//2 68//2 69//2
f 74//2 49//2 73//2
f 52//2 67//2 68//2
f 75//2 49//2 74//2
f 52//2 66//2 67//2
f 76//2 49//2 75//2
f 52//2 65//2 66//2
f 77//2 49//2 76//2
f 52//2 64//2 65//2
f 78//2 49//2 77//2
f 52//2 63//2 64//2
f 79//2 49//2 78//2
f 80//2 49//2 79//2
f 52//2 62//2 63//2
f 81//2 49//2 80//2
f 52//2 61//2 62//2
f 82//2 49//2 81//2
f 52//2 60//2 61//2
f 56//2 49//2 82//2
f 52//2 59//2 60//2
f 57//2 49//2 56//2
f 52//2 58//2 59//2
f 55//2 49//2 57//2
f 58//2 55//2 57//2
f 54//2 55//2 58//2
f 52//2 54//2 58//2
f 48//2 49//2 55//2
f 52//2 53//2 54//2
f 86//2 84//2 85//2
f 83//2 84//2 86//2
f 47//2 45//2 46//2
f 44//2 45//2 47//2
f 88//3 90//4 89//4 87//3
f 90//4 92//5 91//5 89//4
f 92//5 94//6 93//6 91//5
f 94//6 96//7 95//7 93//6
f 96//7 98//8 97//8 95//7
f 98//8 100//8 99//8 97//8
f 100//8 102//3 101//3 99//8
f 102//3 88//3 87//3 101//3
f 104//9 106//10 105//10 103//9
f 106//10 108//11 107//11 105//10
f 108//11 110//12 109//12 107//11
f 110//12 112//13 111//13 109//12
f 112//13 114//14 113//14 111//13
f 114//14 116//15 115//15 113//14
f 116//15 118//16 117//16 115//15
f 118//16 120//17 119//17 117//16
f 120//17 122//18 121//18 119//17
f 122//18 124//19 123//19 121//18
f 124//19 126//20 125//20 123//19
f 126//20 128//21 127//21 125//20
f 128//21 130//22 129//22 127//21
f 130//22 132//23 131//23 129//22
f 132//23 134//24 133//24 131//23
f 134//24 136//25 135//25 133//24
f 136//25 138//26 137//26 135//25
f 138//26 140//27 139//27 137//26
f 140//27 142//28 141//28 139//27
f 142//28 144//29 143//29 141//28
f 144//29 146//30 145//30 143//29
f 146//30 148//31 147//31 145//30
f 148//31 150//32 149//32 147//31
f 150//32 152//33 151//33 149//32
f 152//33 154//34 153//34 151//33
f 154//34 156//35 155//35 153//34
f 156//35 104//9 103//9 155//35
f 158//36 160//37 159//37 157//36
f 160//37 162//38 161//38 159//37
f 162//38 164//39 163//39 161//38
f 164//39 158//36 157//36 163//39
f 166//36 168//37 167//37 165//36
f 168//37 170//38 169//38 167//37
f 170//38 172//39 171//39 169//38
f 172//39 166//36 165//36 171//39
