# Blender v2.80 (sub 75) OBJ File: 'comma.blend'
# www.blender.org
mtllib upper_A.mtl
o Text_Text.021
v 0.171797 0.100000 -0.050000
v 0.245526 0.100000 -0.050000
v 0.044023 0.624696 -0.050000
v -0.030780 0.624696 -0.050000
v -0.245526 0.100000 -0.050000
v -0.166428 0.100000 -0.050000
v -0.105225 0.258912 -0.050000
v 0.114173 0.258912 -0.050000
v 0.036507 0.469363 -0.050000
v 0.094130 0.315462 -0.050000
v -0.083751 0.315462 -0.050000
v -0.028991 0.460773 -0.050000
v -0.024905 0.471645 -0.050000
v -0.020997 0.482188 -0.050000
v -0.017269 0.492403 -0.050000
v -0.013720 0.502291 -0.050000
v -0.010350 0.511850 -0.050000
v -0.007158 0.521081 -0.050000
v -0.004146 0.529984 -0.050000
v -0.001312 0.538559 -0.050000
v 0.001342 0.546806 -0.050000
v 0.003818 0.554725 -0.050000
v 0.006114 0.562315 -0.050000
v 0.008232 0.569578 -0.050000
v 0.009959 0.561172 -0.050000
v 0.011801 0.552776 -0.050000
v 0.013757 0.544390 -0.050000
v 0.015828 0.536014 -0.050000
v 0.018012 0.527648 -0.050000
v 0.020311 0.519291 -0.050000
v 0.022725 0.510945 -0.050000
v 0.025253 0.502609 -0.050000
v 0.027895 0.494282 -0.050000
v 0.030651 0.485966 -0.050000
v 0.033522 0.477660 -0.050000
v 0.171797 0.100000 0.050000
v 0.245526 0.100000 0.050000
v 0.044023 0.624696 0.050000
v -0.030780 0.624696 0.050000
v -0.245526 0.100000 0.050000
v -0.166428 0.100000 0.050000
v -0.105225 0.258912 0.050000
v 0.114173 0.258912 0.050000
v 0.036507 0.469363 0.050000
v 0.094130 0.315462 0.050000
v -0.083751 0.315462 0.050000
v -0.028991 0.460773 0.050000
v -0.024905 0.471645 0.050000
v -0.020997 0.482188 0.050000
v -0.017269 0.492403 0.050000
v -0.013720 0.502291 0.050000
v -0.010350 0.511850 0.050000
v -0.007158 0.521081 0.050000
v -0.004146 0.529984 0.050000
v -0.001312 0.538559 0.050000
v 0.001342 0.546806 0.050000
v 0.003818 0.554725 0.050000
v 0.006114 0.562315 0.050000
v 0.008232 0.569578 0.050000
v 0.009959 0.561172 0.050000
v 0.011801 0.552776 0.050000
v 0.013757 0.544390 0.050000
v 0.015828 0.536014 0.050000
v 0.018012 0.527648 0.050000
v 0.020311 0.519291 0.050000
v 0.022725 0.510945 0.050000
v 0.025253 0.502609 0.050000
v 0.027895 0.494282 0.050000
v 0.030651 0.485966 0.050000
v 0.033522 0.477660 0.050000
v 0.171797 0.100000 0.050000
v 0.171797 0.100000 -0.050000
v 0.245526 0.100000 0.050000
v 0.245526 0.100000 -0.050000
v 0.044023 0.624696 0.050000
v 0.044023 0.624696 -0.050000
v -0.030780 0.624696 0.050000
v -0.030780 0.624696 -0.050000
v -0.245526 0.100000 0.050000
v -0.245526 0.100000 -0.050000
v -0.166428 0.100000 0.050000
v -0.166428 0.100000 -0.050000
v -0.105225 0.258912 0.050000
v -0.105225 0.258912 -0.050000
v 0.114173 0.258912 0.050000
v 0.114173 0.258912 -0.050000
v 0.036507 0.469363 0.050000
v 0.036507 0.469363 -0.050000
v 0.094130 0.315462 0.050000
v 0.094130 0.315462 -0.050000
v -0.083751 0.315462 0.050000
v -0.083751 0.315462 -0.050000
v -0.028991 0.460773 0.050000
v -0.028991 0.460773 -0.050000
v -0.024905 0.471645 0.050000
v -0.024905 0.471645 -0.050000
v -0.020997 0.482188 0.050000
v -0.020997 0.482188 -0.050000
v -0.017269 0.492403 0.050000
v -0.017269 0.492403 -0.050000
v -0.013720 0.502291 0.050000
v -0.013720 0.502291 -0.050000
v -0.010350 0.511850 0.050000
v -0.010350 0.511850 -0.050000
v -0.007158 0.521081 0.050000
v -0.007158 0.521081 -0.050000
v -0.004146 0.529984 0.050000
v -0.004146 0.529984 -0.050000
v -0.001312 0.538559 0.050000
v -0.001312 0.538559 -0.050000
v 0.001342 0.546806 0.050000
v 0.001342 0.546806 -0.050000
v 0.003818 0.554725 0.050000
v 0.003818 0.554725 -0.050000
v 0.006114 0.562315 0.050000
v 0.006114 0.562315 -0.050000
v 0.008232 0.569578 0.050000
v 0.008232 0.569578 -0.050000
v 0.009959 0.561172 0.050000
v 0.009959 0.561172 -0.050000
v 0.011801 0.552776 0.050000
v 0.011801 0.552776 -0.050000
v 0.013757 0.544390 0.050000
v 0.013757 0.544390 -0.050000
v 0.015828 0.536014 0.050000
v 0.015828 0.536014 -0.050000
v 0.018012 0.527648 0.050000
v 0.018012 0.527648 -0.050000
v 0.020311 0.519291 0.050000
v 0.020311 0.519291 -0.050000
v 0.022725 0.510945 0.050000
v 0.022725 0.510945 -0.050000
v 0.025253 0.502609 0.050000
v 0.025253 0.502609 -0.050000
v 0.027895 0.494282 0.050000
v 0.027895 0.494282 -0.050000
v 0.030651 0.485966 0.050000
v 0.030651 0.485966 -0.050000
v 0.033522 0.477660 0.050000
v 0.033522 0.477660 -0.050000
vn -0.0000 -0.0000 -1.0000
vn -0.0000 0.0000 1.0000
vn -0.5741 -0.8188 0.0000
vn 0.8242 -0.5663 0.0000
vn 0.5663 0.8242 0.0000
vn -0.5573 0.8303 0.0000
vn -0.8303 -0.5573 0.0000
vn 0.5659 -0.8244 0.0000
vn -0.9387 -0.3446 0.0000
vn -0.8218 0.5698 0.0000
vn 0.8224 0.5689 0.0000
vn 0.9359 -0.3522 0.0000
vn 0.9369 -0.3497 0.0000
vn 0.9385 -0.3452 0.0000
vn 0.9403 -0.3404 0.0000
vn 0.9422 -0.3352 0.0000
vn 0.9441 -0.3296 0.0000
vn 0.9462 -0.3236 0.0000
vn 0.9484 -0.3171 0.0000
vn 0.9507 -0.3101 0.0000
vn 0.9532 -0.3024 0.0000
vn 0.9558 -0.2940 0.0000
vn 0.9586 -0.2848 0.0000
vn -0.0405 -0.9992 0.0000
vn -0.9782 -0.2078 0.0000
vn -0.9753 -0.2207 0.0000
vn -0.9723 -0.2336 0.0000
vn -0.9692 -0.2463 0.0000
vn -0.9659 -0.2590 0.0000
vn -0.9624 -0.2715 0.0000
vn -0.9588 -0.2840 0.0000
vn -0.9551 -0.2963 0.0000
vn -0.9512 -0.3085 0.0000
vn -0.9472 -0.3206 0.0000
vn -0.9431 -0.3326 0.0000
usemtl None
s 1
f 2//1 24//1 3//1
f 24//1 4//1 3//1
f 24//1 5//1 4//1
f 2//1 25//1 24//1
f 23//1 5//1 24//1
f 22//1 5//1 23//1
f 2//1 26//1 25//1
f 21//1 5//1 22//1
f 2//1 27//1 26//1
f 20//1 5//1 21//1
f 2//1 28//1 27//1
f 19//1 5//1 20//1
f 2//1 29//1 28//1
f 18//1 5//1 19//1
f 2//1 30//1 29//1
f 17//1 5//1 18//1
f 2//1 31//1 30//1
f 16//1 5//1 17//1
f 2//1 32//1 31//1
f 2//1 33//1 32//1
f 15//1 5//1 16//1
f 2//1 34//1 33//1
f 14//1 5//1 15//1
f 2//1 35//1 34//1
f 13//1 5//1 14//1
f 2//1 9//1 35//1
f 12//1 5//1 13//1
f 2//1 10//1 9//1
f 11//1 5//1 12//1
f 2//1 8//1 10//1
f 8//1 11//1 10//1
f 8//1 7//1 11//1
f 7//1 5//1 11//1
f 2//1 1//1 8//1
f 6//1 5//1 7//1
f 59//2 37//2 38//2
f 39//2 59//2 38//2
f 40//2 59//2 39//2
f 60//2 37//2 59//2
f 40//2 58//2 59//2
f 40//2 57//2 58//2
f 61//2 37//2 60//2
f 40//2 56//2 57//2
f 62//2 37//2 61//2
f 40//2 55//2 56//2
f 63//2 37//2 62//2
f 40//2 54//2 55//2
f 64//2 37//2 63//2
f 40//2 53//2 54//2
f 65//2 37//2 64//2
f 40//2 52//2 53//2
f 66//2 37//2 65//2
f 40//2 51//2 52//2
f 67//2 37//2 66//2
f 68//2 37//2 67//2
f 40//2 50//2 51//2
f 69//2 37//2 68//2
f 40//2 49//2 50//2
f 70//2 37//2 69//2
f 40//2 48//2 49//2
f 44//2 37//2 70//2
f 40//2 47//2 48//2
f 45//2 37//2 44//2
f 40//2 46//2 47//2
f 43//2 37//2 45//2
f 46//2 43//2 45//2
f 42//2 43//2 46//2
f 40//2 42//2 46//2
f 36//2 37//2 43//2
f 40//2 41//2 42//2
f 72//3 74//4 73//4 71//3
f 74//4 76//5 75//5 73//4
f 76//5 78//6 77//6 75//5
f 78//6 80//7 79//7 77//6
f 80//7 82//8 81//8 79//7
f 82//8 84//8 83//8 81//8
f 84//8 86//3 85//3 83//8
f 86//3 72//3 71//3 85//3
f 88//9 90//10 89//10 87//9
f 90//10 92//11 91//11 89//10
f 92//11 94//12 93//12 91//11
f 94//12 96//13 95//13 93//12
f 96//13 98//14 97//14 95//13
f 98//14 100//15 99//15 97//14
f 100//15 102//16 101//16 99//15
f 102//16 104//17 103//17 101//16
f 104//17 106//18 105//18 103//17
f 106//18 108//19 107//19 105//18
f 108//19 110//20 109//20 107//19
f 110//20 112//21 111//21 109//20
f 112//21 114//22 113//22 111//21
f 114//22 116//23 115//23 113//22
f 116//23 118//24 117//24 115//23
f 118//24 120//25 119//25 117//24
f 120//25 122//26 121//26 119//25
f 122//26 124//27 123//27 121//26
f 124//27 126//28 125//28 123//27
f 126//28 128//29 127//29 125//28
f 128//29 130//30 129//30 127//29
f 130//30 132//31 131//31 129//30
f 132//31 134//32 133//32 131//31
f 134//32 136//33 135//33 133//32
f 136//33 138//34 137//34 135//33
f 138//34 140//35 139//35 137//34
f 140//35 88//9 87//9 139//35
