# Blender v2.80 (sub 75) OBJ File: 'comma.blend'
# www.blender.org
mtllib upper_I_circum.mtl
o Text_Text.041
v -0.035970 0.100000 -0.050000
v 0.033465 0.100000 -0.050000
v 0.033465 0.624696 -0.050000
v -0.035970 0.624696 -0.050000
v -0.040265 0.656908 -0.050000
v -0.000895 0.717752 -0.050000
v 0.039549 0.656908 -0.050000
v 0.113278 0.656908 -0.050000
v 0.035970 0.757123 -0.050000
v -0.032749 0.757123 -0.050000
v -0.113278 0.656908 -0.050000
v -0.035970 0.100000 0.050000
v 0.033465 0.100000 0.050000
v 0.033465 0.624696 0.050000
v -0.035970 0.624696 0.050000
v -0.040265 0.656908 0.050000
v -0.000895 0.717752 0.050000
v 0.039549 0.656908 0.050000
v 0.113278 0.656908 0.050000
v 0.035970 0.757123 0.050000
v -0.032749 0.757123 0.050000
v -0.113278 0.656908 0.050000
v -0.035970 0.100000 0.050000
v -0.035970 0.100000 -0.050000
v 0.033465 0.100000 0.050000
v 0.033465 0.100000 -0.050000
v 0.033465 0.624696 0.050000
v 0.033465 0.624696 -0.050000
v -0.035970 0.624696 0.050000
v -0.035970 0.624696 -0.050000
v -0.040265 0.656908 0.050000
v -0.040265 0.656908 -0.050000
v -0.000895 0.717752 0.050000
v -0.000895 0.717752 -0.050000
v 0.039549 0.656908 0.050000
v 0.039549 0.656908 -0.050000
v 0.113278 0.656908 0.050000
v 0.113278 0.656908 -0.050000
v 0.035970 0.757123 0.050000
v 0.035970 0.757123 -0.050000
v -0.032749 0.757123 0.050000
v -0.032749 0.757123 -0.050000
v -0.113278 0.656908 0.050000
v -0.113278 0.656908 -0.050000
vn -0.0000 -0.0000 -1.0000
vn 0.0000 0.0000 1.0000
vn -0.7071 -0.7071 0.0000
vn 0.7071 -0.7071 0.0000
vn 0.7071 0.7071 0.0000
vn -0.7071 0.7071 0.0000
vn 0.4779 -0.8784 0.0000
vn 0.0062 -1.0000 0.0000
vn -0.4725 -0.8814 0.0000
vn 0.8974 -0.4411 0.0000
vn 0.4411 0.8974 0.0000
vn -0.4322 0.9018 0.0000
vn -0.9018 -0.4322 0.0000
usemtl None
s 1
f 8//1 10//1 9//1
f 8//1 6//1 10//1
f 6//1 11//1 10//1
f 8//1 7//1 6//1
f 5//1 11//1 6//1
f 2//1 4//1 3//1
f 2//1 1//1 4//1
f 21//2 19//2 20//2
f 17//2 19//2 21//2
f 22//2 17//2 21//2
f 18//2 19//2 17//2
f 22//2 16//2 17//2
f 15//2 13//2 14//2
f 12//2 13//2 15//2
f 24//3 26//4 25//4 23//3
f 26//4 28//5 27//5 25//4
f 28//5 30//6 29//6 27//5
f 30//6 24//3 23//3 29//6
f 32//7 34//8 33//8 31//7
f 34//8 36//9 35//9 33//8
f 36//9 38//10 37//10 35//9
f 38//10 40//11 39//11 37//10
f 40//11 42//12 41//12 39//11
f 42//12 44//13 43//13 41//12
f 44//13 32//7 31//7 43//13
