# Blender v2.80 (sub 75) OBJ File: 'comma.blend'
# www.blender.org
mtllib upper_M.mtl
o Text_Text.047
v 0.183429 0.100000 -0.050000
v 0.250358 0.100000 -0.050000
v 0.250358 0.624696 -0.050000
v 0.145848 0.624696 -0.050000
v 0.021654 0.253186 -0.050000
v 0.018855 0.244717 -0.050000
v 0.016185 0.236612 -0.050000
v 0.013645 0.228870 -0.050000
v 0.011234 0.221491 -0.050000
v 0.008953 0.214474 -0.050000
v 0.006800 0.207820 -0.050000
v 0.004777 0.201530 -0.050000
v 0.002883 0.195602 -0.050000
v 0.001118 0.190037 -0.050000
v -0.000517 0.184835 -0.050000
v -0.002023 0.179995 -0.050000
v -0.003400 0.175519 -0.050000
v -0.004961 0.180478 -0.050000
v -0.006661 0.185809 -0.050000
v -0.008500 0.191513 -0.050000
v -0.010479 0.197590 -0.050000
v -0.012596 0.204040 -0.050000
v -0.014853 0.210863 -0.050000
v -0.017249 0.218058 -0.050000
v -0.019784 0.225626 -0.050000
v -0.022459 0.233568 -0.050000
v -0.025272 0.241882 -0.050000
v -0.028225 0.250568 -0.050000
v -0.031317 0.259628 -0.050000
v -0.156943 0.624696 -0.050000
v -0.250358 0.624696 -0.050000
v -0.250358 0.100000 -0.050000
v -0.183429 0.100000 -0.050000
v -0.183429 0.539155 -0.050000
v -0.030959 0.100000 -0.050000
v 0.031675 0.100000 -0.050000
v 0.183429 0.546672 -0.050000
v 0.183429 0.100000 0.050000
v 0.250358 0.100000 0.050000
v 0.250358 0.624696 0.050000
v 0.145848 0.624696 0.050000
v 0.021654 0.253186 0.050000
v 0.018855 0.244717 0.050000
v 0.016185 0.236612 0.050000
v 0.013645 0.228870 0.050000
v 0.011234 0.221491 0.050000
v 0.008953 0.214474 0.050000
v 0.006800 0.207820 0.050000
v 0.004777 0.201530 0.050000
v 0.002883 0.195602 0.050000
v 0.001118 0.190037 0.050000
v -0.000517 0.184835 0.050000
v -0.002023 0.179995 0.050000
v -0.003400 0.175519 0.050000
v -0.004961 0.180478 0.050000
v -0.006661 0.185809 0.050000
v -0.008500 0.191513 0.050000
v -0.010479 0.197590 0.050000
v -0.012596 0.204040 0.050000
v -0.014853 0.210863 0.050000
v -0.017249 0.218058 0.050000
v -0.019784 0.225626 0.050000
v -0.022459 0.233568 0.050000
v -0.025272 0.241882 0.050000
v -0.028225 0.250568 0.050000
v -0.031317 0.259628 0.050000
v -0.156943 0.624696 0.050000
v -0.250358 0.624696 0.050000
v -0.250358 0.100000 0.050000
v -0.183429 0.100000 0.050000
v -0.183429 0.539155 0.050000
v -0.030959 0.100000 0.050000
v 0.031675 0.100000 0.050000
v 0.183429 0.546672 0.050000
v 0.183429 0.100000 0.050000
v 0.183429 0.100000 -0.050000
v 0.250358 0.100000 0.050000
v 0.250358 0.100000 -0.050000
v 0.250358 0.624696 0.050000
v 0.250358 0.624696 -0.050000
v 0.145848 0.624696 0.050000
v 0.145848 0.624696 -0.050000
v 0.021654 0.253186 0.050000
v 0.021654 0.253186 -0.050000
v 0.018855 0.244717 0.050000
v 0.018855 0.244717 -0.050000
v 0.016185 0.236612 0.050000
v 0.016185 0.236612 -0.050000
v 0.013645 0.228870 0.050000
v 0.013645 0.228870 -0.050000
v 0.011234 0.221491 0.050000
v 0.011234 0.221491 -0.050000
v 0.008953 0.214474 0.050000
v 0.008953 0.214474 -0.050000
v 0.006800 0.207820 0.050000
v 0.006800 0.207820 -0.050000
v 0.004777 0.201530 0.050000
v 0.004777 0.201530 -0.050000
v 0.002883 0.195602 0.050000
v 0.002883 0.195602 -0.050000
v 0.001118 0.190037 0.050000
v 0.001118 0.190037 -0.050000
v -0.000517 0.184835 0.050000
v -0.000517 0.184835 -0.050000
v -0.002023 0.179995 0.050000
v -0.002023 0.179995 -0.050000
v -0.003400 0.175519 0.050000
v -0.003400 0.175519 -0.050000
v -0.004961 0.180478 0.050000
v -0.004961 0.180478 -0.050000
v -0.006661 0.185809 0.050000
v -0.006661 0.185809 -0.050000
v -0.008500 0.191513 0.050000
v -0.008500 0.191513 -0.050000
v -0.010479 0.197590 0.050000
v -0.010479 0.197590 -0.050000
v -0.012596 0.204040 0.050000
v -0.012596 0.204040 -0.050000
v -0.014853 0.210863 0.050000
v -0.014853 0.210863 -0.050000
v -0.017249 0.218058 0.050000
v -0.017249 0.218058 -0.050000
v -0.019784 0.225626 0.050000
v -0.019784 0.225626 -0.050000
v -0.022459 0.233568 0.050000
v -0.022459 0.233568 -0.050000
v -0.025272 0.241882 0.050000
v -0.025272 0.241882 -0.050000
v -0.028225 0.250568 0.050000
v -0.028225 0.250568 -0.050000
v -0.031317 0.259628 0.050000
v -0.031317 0.259628 -0.050000
v -0.156943 0.624696 0.050000
v -0.156943 0.624696 -0.050000
v -0.250358 0.624696 0.050000
v -0.250358 0.624696 -0.050000
v -0.250358 0.100000 0.050000
v -0.250358 0.100000 -0.050000
v -0.183429 0.100000 0.050000
v -0.183429 0.100000 -0.050000
v -0.183429 0.539155 0.050000
v -0.183429 0.539155 -0.050000
v -0.030959 0.100000 0.050000
v -0.030959 0.100000 -0.050000
v 0.031675 0.100000 0.050000
v 0.031675 0.100000 -0.050000
v 0.183429 0.546672 0.050000
v 0.183429 0.546672 -0.050000
vn 0.0000 -0.0000 -1.0000
vn 0.0000 0.0000 1.0000
vn -0.7071 -0.7071 0.0000
vn 0.7071 -0.7071 0.0000
vn 0.7071 0.7071 0.0000
vn -0.5844 0.8115 0.0000
vn -0.9490 0.3154 0.0000
vn -0.9497 0.3133 0.0000
vn -0.9500 0.3123 0.0000
vn -0.9504 0.3111 0.0000
vn -0.9508 0.3099 0.0000
vn -0.9512 0.3085 0.0000
vn -0.9517 0.3070 0.0000
vn -0.9523 0.3053 0.0000
vn -0.9529 0.3033 0.0000
vn -0.9536 0.3011 0.0000
vn -0.9544 0.2985 0.0000
vn -0.9553 0.2956 0.0000
vn -0.0033 1.0000 0.0000
vn 0.9533 0.3020 0.0000
vn 0.9522 0.3053 0.0000
vn 0.9513 0.3082 0.0000
vn 0.9505 0.3108 0.0000
vn 0.9498 0.3130 0.0000
vn 0.9491 0.3150 0.0000
vn 0.9485 0.3168 0.0000
vn 0.9480 0.3184 0.0000
vn 0.9475 0.3199 0.0000
vn 0.9470 0.3212 0.0000
vn 0.9466 0.3224 0.0000
vn 0.9460 0.3242 0.0000
vn 0.5808 0.8141 0.0000
vn -0.7071 0.7071 0.0000
vn 0.1663 -0.9861 0.0000
vn -0.5797 -0.8149 0.0000
vn 0.5824 -0.8129 0.0000
vn -0.1630 -0.9866 0.0000
usemtl None
s 1
f 2//1 37//1 3//1
f 37//1 4//1 3//1
f 37//1 5//1 4//1
f 29//1 34//1 30//1
f 34//1 31//1 30//1
f 34//1 32//1 31//1
f 2//1 1//1 37//1
f 36//1 5//1 37//1
f 29//1 35//1 34//1
f 33//1 32//1 34//1
f 28//1 35//1 29//1
f 36//1 6//1 5//1
f 27//1 35//1 28//1
f 36//1 7//1 6//1
f 26//1 35//1 27//1
f 36//1 8//1 7//1
f 25//1 35//1 26//1
f 36//1 9//1 8//1
f 24//1 35//1 25//1
f 36//1 10//1 9//1
f 23//1 35//1 24//1
f 36//1 11//1 10//1
f 22//1 35//1 23//1
f 36//1 12//1 11//1
f 21//1 35//1 22//1
f 36//1 13//1 12//1
f 20//1 35//1 21//1
f 36//1 14//1 13//1
f 19//1 35//1 20//1
f 36//1 15//1 14//1
f 18//1 35//1 19//1
f 36//1 16//1 15//1
f 17//1 35//1 18//1
f 36//1 17//1 16//1
f 36//1 35//1 17//1
f 74//2 39//2 40//2
f 41//2 74//2 40//2
f 42//2 74//2 41//2
f 71//2 66//2 67//2
f 68//2 71//2 67//2
f 69//2 71//2 68//2
f 38//2 39//2 74//2
f 42//2 73//2 74//2
f 72//2 66//2 71//2
f 69//2 70//2 71//2
f 72//2 65//2 66//2
f 43//2 73//2 42//2
f 72//2 64//2 65//2
f 44//2 73//2 43//2
f 72//2 63//2 64//2
f 45//2 73//2 44//2
f 72//2 62//2 63//2
f 46//2 73//2 45//2
f 72//2 61//2 62//2
f 47//2 73//2 46//2
f 72//2 60//2 61//2
f 48//2 73//2 47//2
f 72//2 59//2 60//2
f 49//2 73//2 48//2
f 72//2 58//2 59//2
f 50//2 73//2 49//2
f 72//2 57//2 58//2
f 51//2 73//2 50//2
f 72//2 56//2 57//2
f 52//2 73//2 51//2
f 72//2 55//2 56//2
f 53//2 73//2 52//2
f 72//2 54//2 55//2
f 54//2 73//2 53//2
f 72//2 73//2 54//2
f 76//3 78//4 77//4 75//3
f 78//4 80//5 79//5 77//4
f 80//5 82//6 81//6 79//5
f 82//6 84//7 83//7 81//6
f 84//7 86//8 85//8 83//7
f 86//8 88//9 87//9 85//8
f 88//9 90//10 89//10 87//9
f 90//10 92//11 91//11 89//10
f 92//11 94//12 93//12 91//11
f 94//12 96//13 95//13 93//12
f 96//13 98//14 97//14 95//13
f 98//14 100//15 99//15 97//14
f 100//15 102//16 101//16 99//15
f 102//16 104//17 103//17 101//16
f 104//17 106//18 105//18 103//17
f 106//18 108//19 107//19 105//18
f 108//19 110//20 109//20 107//19
f 110//20 112//21 111//21 109//20
f 112//21 114//22 113//22 111//21
f 114//22 116//23 115//23 113//22
f 116//23 118//24 117//24 115//23
f 118//24 120//25 119//25 117//24
f 120//25 122//26 121//26 119//25
f 122//26 124//27 123//27 121//26
f 124//27 126//28 125//28 123//27
f 126//28 128//29 127//29 125//28
f 128//29 130//30 129//30 127//29
f 130//30 132//31 131//31 129//30
f 132//31 134//32 133//32 131//31
f 134//32 136//33 135//33 133//32
f 136//33 138//3 137//3 135//33
f 138//3 140//4 139//4 137//3
f 140//4 142//34 141//34 139//4
f 142//34 144//35 143//35 141//34
f 144//35 146//36 145//36 143//35
f 146//36 148//37 147//37 145//36
f 148//37 76//3 75//3 147//37
