# Blender v2.80 (sub 75) OBJ File: 'comma.blend'
# www.blender.org
mtllib upper_I_grave.mtl
o Text_Text.043
v -0.051181 0.100000 -0.050000
v 0.018253 0.100000 -0.050000
v 0.018253 0.624696 -0.050000
v -0.051181 0.624696 -0.050000
v -0.018969 0.757123 -0.050000
v -0.067287 0.656908 -0.050000
v -0.015390 0.656908 -0.050000
v 0.067287 0.757123 -0.050000
v -0.051181 0.100000 0.050000
v 0.018253 0.100000 0.050000
v 0.018253 0.624696 0.050000
v -0.051181 0.624696 0.050000
v -0.018969 0.757123 0.050000
v -0.067287 0.656908 0.050000
v -0.015390 0.656908 0.050000
v 0.067287 0.757123 0.050000
v -0.051181 0.100000 0.050000
v -0.051181 0.100000 -0.050000
v 0.018253 0.100000 0.050000
v 0.018253 0.100000 -0.050000
v 0.018253 0.624696 0.050000
v 0.018253 0.624696 -0.050000
v -0.051181 0.624696 0.050000
v -0.051181 0.624696 -0.050000
v -0.018969 0.757123 0.050000
v -0.018969 0.757123 -0.050000
v -0.067287 0.656908 0.050000
v -0.067287 0.656908 -0.050000
v -0.015390 0.656908 0.050000
v -0.015390 0.656908 -0.050000
v 0.067287 0.757123 0.050000
v 0.067287 0.757123 -0.050000
vn 0.0000 -0.0000 -1.0000
vn 0.0000 0.0000 1.0000
vn -0.7071 -0.7071 0.0000
vn 0.7071 -0.7071 0.0000
vn 0.7071 0.7071 0.0000
vn -0.7071 0.7071 0.0000
vn -0.5318 0.8468 0.0000
vn -0.8468 -0.5318 0.0000
vn 0.4264 -0.9045 0.0000
vn 0.9045 0.4264 0.0000
usemtl None
s 1
f 7//1 5//1 8//1
f 7//1 6//1 5//1
f 2//1 4//1 3//1
f 2//1 1//1 4//1
f 13//2 15//2 16//2
f 14//2 15//2 13//2
f 12//2 10//2 11//2
f 9//2 10//2 12//2
f 18//3 20//4 19//4 17//3
f 20//4 22//5 21//5 19//4
f 22//5 24//6 23//6 21//5
f 24//6 18//3 17//3 23//6
f 26//7 28//8 27//8 25//7
f 28//8 30//9 29//9 27//8
f 30//9 32//10 31//10 29//9
f 32//10 26//7 25//7 31//10
