# Blender v2.80 (sub 75) OBJ File: 'comma.blend'
# www.blender.org
mtllib upper_I_diae.mtl
o Text_Text.042
v -0.100394 0.656908 -0.050000
v -0.033107 0.656908 -0.050000
v -0.033107 0.730279 -0.050000
v -0.100394 0.730279 -0.050000
v 0.033107 0.656908 -0.050000
v 0.100394 0.656908 -0.050000
v 0.100394 0.730279 -0.050000
v 0.033107 0.730279 -0.050000
v -0.035970 0.100000 -0.050000
v 0.033465 0.100000 -0.050000
v 0.033465 0.624696 -0.050000
v -0.035970 0.624696 -0.050000
v -0.100394 0.656908 0.050000
v -0.033107 0.656908 0.050000
v -0.033107 0.730279 0.050000
v -0.100394 0.730279 0.050000
v 0.033107 0.656908 0.050000
v 0.100394 0.656908 0.050000
v 0.100394 0.730279 0.050000
v 0.033107 0.730279 0.050000
v -0.035970 0.100000 0.050000
v 0.033465 0.100000 0.050000
v 0.033465 0.624696 0.050000
v -0.035970 0.624696 0.050000
v -0.035970 0.100000 0.050000
v -0.035970 0.100000 -0.050000
v 0.033465 0.100000 0.050000
v 0.033465 0.100000 -0.050000
v 0.033465 0.624696 0.050000
v 0.033465 0.624696 -0.050000
v -0.035970 0.624696 0.050000
v -0.035970 0.624696 -0.050000
v 0.033107 0.656908 0.050000
v 0.033107 0.656908 -0.050000
v 0.100394 0.656908 0.050000
v 0.100394 0.656908 -0.050000
v 0.100394 0.730279 0.050000
v 0.100394 0.730279 -0.050000
v 0.033107 0.730279 0.050000
v 0.033107 0.730279 -0.050000
v -0.100394 0.656908 0.050000
v -0.100394 0.656908 -0.050000
v -0.033107 0.656908 0.050000
v -0.033107 0.656908 -0.050000
v -0.033107 0.730279 0.050000
v -0.033107 0.730279 -0.050000
v -0.100394 0.730279 0.050000
v -0.100394 0.730279 -0.050000
vn 0.0000 -0.0000 -1.0000
vn 0.0000 0.0000 1.0000
vn -0.7071 -0.7071 0.0000
vn 0.7071 -0.7071 0.0000
vn 0.7071 0.7071 0.0000
vn -0.7071 0.7071 0.0000
usemtl None
s 1
f 6//1 8//1 7//1
f 6//1 5//1 8//1
f 10//1 12//1 11//1
f 10//1 9//1 12//1
f 2//1 4//1 3//1
f 2//1 1//1 4//1
f 20//2 18//2 19//2
f 17//2 18//2 20//2
f 24//2 22//2 23//2
f 21//2 22//2 24//2
f 16//2 14//2 15//2
f 13//2 14//2 16//2
f 26//3 28//4 27//4 25//3
f 28//4 30//5 29//5 27//4
f 30//5 32//6 31//6 29//5
f 32//6 26//3 25//3 31//6
f 34//3 36//4 35//4 33//3
f 36//4 38//5 37//5 35//4
f 38//5 40//6 39//6 37//5
f 40//6 34//3 33//3 39//6
f 42//3 44//4 43//4 41//3
f 44//4 46//5 45//5 43//4
f 46//5 48//6 47//6 45//5
f 48//6 42//3 41//3 47//6
