# Blender v2.80 (sub 75) OBJ File: 'comma.blend'
# www.blender.org
mtllib upper_Y.mtl
o Text_Text.069
v -0.031138 0.100000 -0.050000
v 0.038296 0.100000 -0.050000
v 0.038296 0.322262 -0.050000
v 0.240515 0.624696 -0.050000
v 0.156049 0.624696 -0.050000
v 0.052613 0.466500 -0.050000
v 0.047868 0.459103 -0.050000
v 0.043178 0.451706 -0.050000
v 0.038542 0.444309 -0.050000
v 0.033962 0.436912 -0.050000
v 0.029436 0.429516 -0.050000
v 0.024964 0.422119 -0.050000
v 0.020548 0.414722 -0.050000
v 0.016185 0.407325 -0.050000
v 0.011878 0.399928 -0.050000
v 0.007625 0.392532 -0.050000
v 0.003427 0.385135 -0.050000
v -0.000716 0.377738 -0.050000
v -0.004722 0.384670 -0.050000
v -0.008868 0.391746 -0.050000
v -0.013153 0.398967 -0.050000
v -0.017577 0.406331 -0.050000
v -0.022141 0.413840 -0.050000
v -0.026843 0.421493 -0.050000
v -0.031685 0.429290 -0.050000
v -0.036666 0.437231 -0.050000
v -0.041786 0.445316 -0.050000
v -0.047045 0.453545 -0.050000
v -0.052444 0.461919 -0.050000
v -0.057981 0.470437 -0.050000
v -0.159628 0.624696 -0.050000
v -0.240515 0.624696 -0.050000
v -0.031138 0.322262 -0.050000
v -0.031138 0.100000 0.050000
v 0.038296 0.100000 0.050000
v 0.038296 0.322262 0.050000
v 0.240515 0.624696 0.050000
v 0.156049 0.624696 0.050000
v 0.052613 0.466500 0.050000
v 0.047868 0.459103 0.050000
v 0.043178 0.451706 0.050000
v 0.038542 0.444309 0.050000
v 0.033962 0.436912 0.050000
v 0.029436 0.429516 0.050000
v 0.024964 0.422119 0.050000
v 0.020548 0.414722 0.050000
v 0.016185 0.407325 0.050000
v 0.011878 0.399928 0.050000
v 0.007625 0.392532 0.050000
v 0.003427 0.385135 0.050000
v -0.000716 0.377738 0.050000
v -0.004722 0.384670 0.050000
v -0.008868 0.391746 0.050000
v -0.013153 0.398967 0.050000
v -0.017577 0.406331 0.050000
v -0.022141 0.413840 0.050000
v -0.026843 0.421493 0.050000
v -0.031685 0.429290 0.050000
v -0.036666 0.437231 0.050000
v -0.041786 0.445316 0.050000
v -0.047045 0.453545 0.050000
v -0.052444 0.461919 0.050000
v -0.057981 0.470437 0.050000
v -0.159628 0.624696 0.050000
v -0.240515 0.624696 0.050000
v -0.031138 0.322262 0.050000
v -0.031138 0.100000 0.050000
v -0.031138 0.100000 -0.050000
v 0.038296 0.100000 0.050000
v 0.038296 0.100000 -0.050000
v 0.038296 0.322262 0.050000
v 0.038296 0.322262 -0.050000
v 0.240515 0.624696 0.050000
v 0.240515 0.624696 -0.050000
v 0.156049 0.624696 0.050000
v 0.156049 0.624696 -0.050000
v 0.052613 0.466500 0.050000
v 0.052613 0.466500 -0.050000
v 0.047868 0.459103 0.050000
v 0.047868 0.459103 -0.050000
v 0.043178 0.451706 0.050000
v 0.043178 0.451706 -0.050000
v 0.038542 0.444309 0.050000
v 0.038542 0.444309 -0.050000
v 0.033962 0.436912 0.050000
v 0.033962 0.436912 -0.050000
v 0.029436 0.429516 0.050000
v 0.029436 0.429516 -0.050000
v 0.024964 0.422119 0.050000
v 0.024964 0.422119 -0.050000
v 0.020548 0.414722 0.050000
v 0.020548 0.414722 -0.050000
v 0.016185 0.407325 0.050000
v 0.016185 0.407325 -0.050000
v 0.011878 0.399928 0.050000
v 0.011878 0.399928 -0.050000
v 0.007625 0.392532 0.050000
v 0.007625 0.392532 -0.050000
v 0.003427 0.385135 0.050000
v 0.003427 0.385135 -0.050000
v -0.000716 0.377738 0.050000
v -0.000716 0.377738 -0.050000
v -0.004722 0.384670 0.050000
v -0.004722 0.384670 -0.050000
v -0.008868 0.391746 0.050000
v -0.008868 0.391746 -0.050000
v -0.013153 0.398967 0.050000
v -0.013153 0.398967 -0.050000
v -0.017577 0.406331 0.050000
v -0.017577 0.406331 -0.050000
v -0.022141 0.413840 0.050000
v -0.022141 0.413840 -0.050000
v -0.026843 0.421493 0.050000
v -0.026843 0.421493 -0.050000
v -0.031685 0.429290 0.050000
v -0.031685 0.429290 -0.050000
v -0.036666 0.437231 0.050000
v -0.036666 0.437231 -0.050000
v -0.041786 0.445316 0.050000
v -0.041786 0.445316 -0.050000
v -0.047045 0.453545 0.050000
v -0.047045 0.453545 -0.050000
v -0.052444 0.461919 0.050000
v -0.052444 0.461919 -0.050000
v -0.057981 0.470437 0.050000
v -0.057981 0.470437 -0.050000
v -0.159628 0.624696 0.050000
v -0.159628 0.624696 -0.050000
v -0.240515 0.624696 0.050000
v -0.240515 0.624696 -0.050000
v -0.031138 0.322262 0.050000
v -0.031138 0.322262 -0.050000
vn -0.0000 -0.0000 -1.0000
vn -0.0000 0.0000 1.0000
vn -0.7071 -0.7071 0.0000
vn 0.7071 -0.7071 0.0000
vn 0.9569 -0.2904 0.0000
vn 0.8820 0.4713 0.0000
vn -0.4758 0.8796 0.0000
vn -0.8393 0.5436 0.0000
vn -0.8431 0.5377 0.0000
vn -0.8460 0.5333 0.0000
vn -0.8488 0.5288 0.0000
vn -0.8516 0.5242 0.0000
vn -0.8544 0.5196 0.0000
vn -0.8572 0.5150 0.0000
vn -0.8600 0.5103 0.0000
vn -0.8628 0.5056 0.0000
vn -0.8655 0.5008 0.0000
vn -0.8683 0.4960 0.0000
vn -0.8711 0.4912 0.0000
vn -0.0067 1.0000 0.0000
vn 0.8643 0.5030 0.0000
vn 0.8614 0.5079 0.0000
vn 0.8586 0.5127 0.0000
vn 0.8559 0.5172 0.0000
vn 0.8533 0.5214 0.0000
vn 0.8508 0.5255 0.0000
vn 0.8483 0.5294 0.0000
vn 0.8460 0.5332 0.0000
vn 0.8437 0.5368 0.0000
vn 0.8415 0.5402 0.0000
vn 0.8394 0.5435 0.0000
vn 0.8367 0.5476 0.0000
vn 0.4742 0.8804 0.0000
vn -0.8858 0.4641 0.0000
vn -0.9545 -0.2982 0.0000
usemtl None
s 1
f 3//1 5//1 4//1
f 3//1 6//1 5//1
f 30//1 32//1 31//1
f 30//1 33//1 32//1
f 29//1 33//1 30//1
f 3//1 7//1 6//1
f 28//1 33//1 29//1
f 3//1 8//1 7//1
f 27//1 33//1 28//1
f 3//1 9//1 8//1
f 26//1 33//1 27//1
f 3//1 10//1 9//1
f 25//1 33//1 26//1
f 3//1 11//1 10//1
f 3//1 12//1 11//1
f 24//1 33//1 25//1
f 3//1 13//1 12//1
f 23//1 33//1 24//1
f 3//1 14//1 13//1
f 22//1 33//1 23//1
f 3//1 15//1 14//1
f 21//1 33//1 22//1
f 3//1 16//1 15//1
f 20//1 33//1 21//1
f 3//1 17//1 16//1
f 19//1 33//1 20//1
f 3//1 18//1 17//1
f 18//1 33//1 19//1
f 3//1 33//1 18//1
f 2//1 33//1 3//1
f 2//1 1//1 33//1
f 38//2 36//2 37//2
f 39//2 36//2 38//2
f 65//2 63//2 64//2
f 66//2 63//2 65//2
f 66//2 62//2 63//2
f 40//2 36//2 39//2
f 66//2 61//2 62//2
f 41//2 36//2 40//2
f 66//2 60//2 61//2
f 42//2 36//2 41//2
f 66//2 59//2 60//2
f 43//2 36//2 42//2
f 66//2 58//2 59//2
f 44//2 36//2 43//2
f 45//2 36//2 44//2
f 66//2 57//2 58//2
f 46//2 36//2 45//2
f 66//2 56//2 57//2
f 47//2 36//2 46//2
f 66//2 55//2 56//2
f 48//2 36//2 47//2
f 66//2 54//2 55//2
f 49//2 36//2 48//2
f 66//2 53//2 54//2
f 50//2 36//2 49//2
f 66//2 52//2 53//2
f 51//2 36//2 50//2
f 66//2 51//2 52//2
f 66//2 36//2 51//2
f 66//2 35//2 36//2
f 34//2 35//2 66//2
f 68//3 70//4 69//4 67//3
f 70//4 72//5 71//5 69//4
f 72//5 74//6 73//6 71//5
f 74//6 76//7 75//7 73//6
f 76//7 78//8 77//8 75//7
f 78//8 80//9 79//9 77//8
f 80//9 82//10 81//10 79//9
f 82//10 84//11 83//11 81//10
f 84//11 86//12 85//12 83//11
f 86//12 88//13 87//13 85//12
f 88//13 90//14 89//14 87//13
f 90//14 92//15 91//15 89//14
f 92//15 94//16 93//16 91//15
f 94//16 96//17 95//17 93//16
f 96//17 98//18 97//18 95//17
f 98//18 100//19 99//19 97//18
f 100//19 102//20 101//20 99//19
f 102//20 104//21 103//21 101//20
f 104//21 106//22 105//22 103//21
f 106//22 108//23 107//23 105//22
f 108//23 110//24 109//24 107//23
f 110//24 112//25 111//25 109//24
f 112//25 114//26 113//26 111//25
f 114//26 116//27 115//27 113//26
f 116//27 118//28 117//28 115//27
f 118//28 120//29 119//29 117//28
f 120//29 122//30 121//30 119//29
f 122//30 124//31 123//31 121//30
f 124//31 126//32 125//32 123//31
f 126//32 128//33 127//33 125//32
f 128//33 130//34 129//34 127//33
f 130//34 132//35 131//35 129//34
f 132//35 68//3 67//3 131//35
