# Blender v2.80 (sub 75) OBJ File: 'comma.blend'
# www.blender.org
mtllib upper_E_acute.mtl
o Text_Text.031
v -0.000716 0.656908 -0.050000
v 0.052613 0.656908 -0.050000
v 0.005011 0.757123 -0.050000
v -0.079456 0.757123 -0.050000
v -0.195777 0.100000 -0.050000
v 0.195777 0.100000 -0.050000
v 0.195777 0.624696 -0.050000
v -0.183608 0.624696 -0.050000
v -0.183608 0.562778 -0.050000
v 0.126342 0.562778 -0.050000
v 0.126342 0.402076 -0.050000
v -0.163923 0.402076 -0.050000
v -0.163923 0.340515 -0.050000
v 0.126342 0.340515 -0.050000
v 0.126342 0.161919 -0.050000
v -0.195777 0.161919 -0.050000
v -0.000716 0.656908 0.050000
v 0.052613 0.656908 0.050000
v 0.005011 0.757123 0.050000
v -0.079456 0.757123 0.050000
v -0.195777 0.100000 0.050000
v 0.195777 0.100000 0.050000
v 0.195777 0.624696 0.050000
v -0.183608 0.624696 0.050000
v -0.183608 0.562778 0.050000
v 0.126342 0.562778 0.050000
v 0.126342 0.402076 0.050000
v -0.163923 0.402076 0.050000
v -0.163923 0.340515 0.050000
v 0.126342 0.340515 0.050000
v 0.126342 0.161919 0.050000
v -0.195777 0.161919 0.050000
v -0.195777 0.100000 0.050000
v -0.195777 0.100000 -0.050000
v 0.195777 0.100000 0.050000
v 0.195777 0.100000 -0.050000
v 0.195777 0.624696 0.050000
v 0.195777 0.624696 -0.050000
v -0.183608 0.624696 0.050000
v -0.183608 0.624696 -0.050000
v -0.183608 0.562778 0.050000
v -0.183608 0.562778 -0.050000
v 0.126342 0.562778 0.050000
v 0.126342 0.562778 -0.050000
v 0.126342 0.402076 0.050000
v 0.126342 0.402076 -0.050000
v -0.163923 0.402076 0.050000
v -0.163923 0.402076 -0.050000
v -0.163923 0.340515 0.050000
v -0.163923 0.340515 -0.050000
v 0.126342 0.340515 0.050000
v 0.126342 0.340515 -0.050000
v 0.126342 0.161919 0.050000
v 0.126342 0.161919 -0.050000
v -0.195777 0.161919 0.050000
v -0.195777 0.161919 -0.050000
v -0.000716 0.656908 0.050000
v -0.000716 0.656908 -0.050000
v 0.052613 0.656908 0.050000
v 0.052613 0.656908 -0.050000
v 0.005011 0.757123 0.050000
v 0.005011 0.757123 -0.050000
v -0.079456 0.757123 0.050000
v -0.079456 0.757123 -0.050000
vn 0.0000 -0.0000 -1.0000
vn 0.0000 0.0000 1.0000
vn -0.7071 -0.7071 0.0000
vn 0.7071 -0.7071 0.0000
vn 0.7071 0.7071 0.0000
vn -0.7071 0.7071 0.0000
vn -0.4371 -0.8994 0.0000
vn 0.8453 -0.5343 0.0000
vn 0.5343 0.8453 0.0000
vn -0.8994 0.4371 0.0000
usemtl None
s 1
f 6//1 10//1 7//1
f 10//1 8//1 7//1
f 10//1 9//1 8//1
f 6//1 11//1 10//1
f 6//1 14//1 11//1
f 14//1 12//1 11//1
f 14//1 13//1 12//1
f 6//1 15//1 14//1
f 6//1 16//1 15//1
f 6//1 5//1 16//1
f 2//1 4//1 3//1
f 2//1 1//1 4//1
f 26//2 22//2 23//2
f 24//2 26//2 23//2
f 25//2 26//2 24//2
f 27//2 22//2 26//2
f 30//2 22//2 27//2
f 28//2 30//2 27//2
f 29//2 30//2 28//2
f 31//2 22//2 30//2
f 32//2 22//2 31//2
f 21//2 22//2 32//2
f 20//2 18//2 19//2
f 17//2 18//2 20//2
f 34//3 36//4 35//4 33//3
f 36//4 38//5 37//5 35//4
f 38//5 40//6 39//6 37//5
f 40//6 42//3 41//3 39//6
f 42//3 44//3 43//3 41//3
f 44//3 46//6 45//6 43//3
f 46//6 48//6 47//6 45//6
f 48//6 50//3 49//3 47//6
f 50//3 52//3 51//3 49//3
f 52//3 54//6 53//6 51//3
f 54//6 56//6 55//6 53//6
f 56//6 34//3 33//3 55//6
f 58//7 60//8 59//8 57//7
f 60//8 62//9 61//9 59//8
f 62//9 64//10 63//10 61//9
f 64//10 58//7 57//7 63//10
