# Blender v2.80 (sub 75) OBJ File: 'comma.blend'
# www.blender.org
mtllib upper_I.mtl
o Text_Text.039
v -0.034717 0.100000 -0.050000
v 0.034717 0.100000 -0.050000
v 0.034717 0.624696 -0.050000
v -0.034717 0.624696 -0.050000
v -0.034717 0.100000 0.050000
v 0.034717 0.100000 0.050000
v 0.034717 0.624696 0.050000
v -0.034717 0.624696 0.050000
v -0.034717 0.100000 0.050000
v -0.034717 0.100000 -0.050000
v 0.034717 0.100000 0.050000
v 0.034717 0.100000 -0.050000
v 0.034717 0.624696 0.050000
v 0.034717 0.624696 -0.050000
v -0.034717 0.624696 0.050000
v -0.034717 0.624696 -0.050000
vn 0.0000 -0.0000 -1.0000
vn 0.0000 0.0000 1.0000
vn -0.7071 -0.7071 0.0000
vn 0.7071 -0.7071 0.0000
vn 0.7071 0.7071 0.0000
vn -0.7071 0.7071 0.0000
usemtl None
s 1
f 2//1 4//1 3//1
f 2//1 1//1 4//1
f 8//2 6//2 7//2
f 5//2 6//2 8//2
f 10//3 12//4 11//4 9//3
f 12//4 14//5 13//5 11//4
f 14//5 16//6 15//6 13//5
f 16//6 10//3 9//3 15//6
